# Generated by tools/generate_scene.py
mtllib earth-ground.mtl
o grass-0
usemtl grass-0
v -6.495 0.080 -6.495
v -6.495 0.080 -5.505
v -5.505 0.080 -5.505
v -5.505 0.080 -6.495
f 1 2 3
f 1 3 4
v -2.495 0.080 -6.495
v -2.495 0.080 -5.505
v -1.505 0.080 -5.505
v -1.505 0.080 -6.495
f 5 6 7
f 5 7 8
v 1.505 0.080 -6.495
v 1.505 0.080 -5.505
v 2.495 0.080 -5.505
v 2.495 0.080 -6.495
f 9 10 11
f 9 11 12
v 5.505 0.080 -6.495
v 5.505 0.080 -5.505
v 6.495 0.080 -5.505
v 6.495 0.080 -6.495
f 13 14 15
f 13 15 16
v -4.495 0.080 -4.495
v -4.495 0.080 -3.505
v -3.505 0.080 -3.505
v -3.505 0.080 -4.495
f 17 18 19
f 17 19 20
v -0.495 0.080 -4.495
v -0.495 0.080 -3.505
v 0.495 0.080 -3.505
v 0.495 0.080 -4.495
f 21 22 23
f 21 23 24
v 3.505 0.080 -4.495
v 3.505 0.080 -3.505
v 4.495 0.080 -3.505
v 4.495 0.080 -4.495
f 25 26 27
f 25 27 28
v -6.495 0.080 -2.495
v -6.495 0.080 -1.505
v -5.505 0.080 -1.505
v -5.505 0.080 -2.495
f 29 30 31
f 29 31 32
v -2.495 0.080 -2.495
v -2.495 0.080 -1.505
v -1.505 0.080 -1.505
v -1.505 0.080 -2.495
f 33 34 35
f 33 35 36
v 1.505 0.080 -2.495
v 1.505 0.080 -1.505
v 2.495 0.080 -1.505
v 2.495 0.080 -2.495
f 37 38 39
f 37 39 40
v 5.505 0.080 -2.495
v 5.505 0.080 -1.505
v 6.495 0.080 -1.505
v 6.495 0.080 -2.495
f 41 42 43
f 41 43 44
v -4.495 0.080 -0.495
v -4.495 0.080 0.495
v -3.505 0.080 0.495
v -3.505 0.080 -0.495
f 45 46 47
f 45 47 48
v -0.495 0.080 -0.495
v -0.495 0.080 0.495
v 0.495 0.080 0.495
v 0.495 0.080 -0.495
f 49 50 51
f 49 51 52
v 3.505 0.080 -0.495
v 3.505 0.080 0.495
v 4.495 0.080 0.495
v 4.495 0.080 -0.495
f 53 54 55
f 53 55 56
v -6.495 0.080 1.505
v -6.495 0.080 2.495
v -5.505 0.080 2.495
v -5.505 0.080 1.505
f 57 58 59
f 57 59 60
v -2.495 0.080 1.505
v -2.495 0.080 2.495
v -1.505 0.080 2.495
v -1.505 0.080 1.505
f 61 62 63
f 61 63 64
v 1.505 0.080 1.505
v 1.505 0.080 2.495
v 2.495 0.080 2.495
v 2.495 0.080 1.505
f 65 66 67
f 65 67 68
v 5.505 0.080 1.505
v 5.505 0.080 2.495
v 6.495 0.080 2.495
v 6.495 0.080 1.505
f 69 70 71
f 69 71 72
v -4.495 0.080 3.505
v -4.495 0.080 4.495
v -3.505 0.080 4.495
v -3.505 0.080 3.505
f 73 74 75
f 73 75 76
v -0.495 0.080 3.505
v -0.495 0.080 4.495
v 0.495 0.080 4.495
v 0.495 0.080 3.505
f 77 78 79
f 77 79 80
v 3.505 0.080 3.505
v 3.505 0.080 4.495
v 4.495 0.080 4.495
v 4.495 0.080 3.505
f 81 82 83
f 81 83 84
v -6.495 0.080 5.505
v -6.495 0.080 6.495
v -5.505 0.080 6.495
v -5.505 0.080 5.505
f 85 86 87
f 85 87 88
v -2.495 0.080 5.505
v -2.495 0.080 6.495
v -1.505 0.080 6.495
v -1.505 0.080 5.505
f 89 90 91
f 89 91 92
v 1.505 0.080 5.505
v 1.505 0.080 6.495
v 2.495 0.080 6.495
v 2.495 0.080 5.505
f 93 94 95
f 93 95 96
v 5.505 0.080 5.505
v 5.505 0.080 6.495
v 6.495 0.080 6.495
v 6.495 0.080 5.505
f 97 98 99
f 97 99 100
o grass-1
usemtl grass-1
v -7.495 0.080 -7.495
v -7.495 0.080 -6.505
v -6.505 0.080 -6.505
v -6.505 0.080 -7.495
f 101 102 103
f 101 103 104
v -7.495 -0.240 -7.495
v -7.495 0.080 -7.495
v -6.505 0.080 -7.495
v -6.505 -0.240 -7.495
f 105 106 107
f 105 107 108
v -7.495 -0.240 -6.505
v -7.495 0.080 -6.505
v -7.495 0.080 -7.495
v -7.495 -0.240 -7.495
f 109 110 111
f 109 111 112
v -5.495 0.080 -7.495
v -5.495 0.080 -6.505
v -4.505 0.080 -6.505
v -4.505 0.080 -7.495
f 113 114 115
f 113 115 116
v -5.495 -0.240 -7.495
v -5.495 0.080 -7.495
v -4.505 0.080 -7.495
v -4.505 -0.240 -7.495
f 117 118 119
f 117 119 120
v -3.495 0.080 -7.495
v -3.495 0.080 -6.505
v -2.505 0.080 -6.505
v -2.505 0.080 -7.495
f 121 122 123
f 121 123 124
v -3.495 -0.240 -7.495
v -3.495 0.080 -7.495
v -2.505 0.080 -7.495
v -2.505 -0.240 -7.495
f 125 126 127
f 125 127 128
v -1.495 0.080 -7.495
v -1.495 0.080 -6.505
v -0.505 0.080 -6.505
v -0.505 0.080 -7.495
f 129 130 131
f 129 131 132
v -1.495 -0.240 -7.495
v -1.495 0.080 -7.495
v -0.505 0.080 -7.495
v -0.505 -0.240 -7.495
f 133 134 135
f 133 135 136
v 0.505 0.080 -7.495
v 0.505 0.080 -6.505
v 1.495 0.080 -6.505
v 1.495 0.080 -7.495
f 137 138 139
f 137 139 140
v 0.505 -0.240 -7.495
v 0.505 0.080 -7.495
v 1.495 0.080 -7.495
v 1.495 -0.240 -7.495
f 141 142 143
f 141 143 144
v 2.505 0.080 -7.495
v 2.505 0.080 -6.505
v 3.495 0.080 -6.505
v 3.495 0.080 -7.495
f 145 146 147
f 145 147 148
v 2.505 -0.240 -7.495
v 2.505 0.080 -7.495
v 3.495 0.080 -7.495
v 3.495 -0.240 -7.495
f 149 150 151
f 149 151 152
v 4.505 0.080 -7.495
v 4.505 0.080 -6.505
v 5.495 0.080 -6.505
v 5.495 0.080 -7.495
f 153 154 155
f 153 155 156
v 4.505 -0.240 -7.495
v 4.505 0.080 -7.495
v 5.495 0.080 -7.495
v 5.495 -0.240 -7.495
f 157 158 159
f 157 159 160
v 6.505 0.080 -7.495
v 6.505 0.080 -6.505
v 7.495 0.080 -6.505
v 7.495 0.080 -7.495
f 161 162 163
f 161 163 164
v 6.505 -0.240 -7.495
v 6.505 0.080 -7.495
v 7.495 0.080 -7.495
v 7.495 -0.240 -7.495
f 165 166 167
f 165 167 168
v 7.495 -0.240 -7.495
v 7.495 0.080 -7.495
v 7.495 0.080 -6.505
v 7.495 -0.240 -6.505
f 169 170 171
f 169 171 172
v -7.495 0.080 -6.495
v -7.495 0.080 -5.505
v -6.505 0.080 -5.505
v -6.505 0.080 -6.495
f 173 174 175
f 173 175 176
v -7.495 -0.240 -5.505
v -7.495 0.080 -5.505
v -7.495 0.080 -6.495
v -7.495 -0.240 -6.495
f 177 178 179
f 177 179 180
v -3.495 0.080 -6.495
v -3.495 0.080 -5.505
v -2.505 0.080 -5.505
v -2.505 0.080 -6.495
f 181 182 183
f 181 183 184
v 0.505 0.080 -6.495
v 0.505 0.080 -5.505
v 1.495 0.080 -5.505
v 1.495 0.080 -6.495
f 185 186 187
f 185 187 188
v 4.505 0.080 -6.495
v 4.505 0.080 -5.505
v 5.495 0.080 -5.505
v 5.495 0.080 -6.495
f 189 190 191
f 189 191 192
v -7.495 0.080 -5.495
v -7.495 0.080 -4.505
v -6.505 0.080 -4.505
v -6.505 0.080 -5.495
f 193 194 195
f 193 195 196
v -7.495 -0.240 -4.505
v -7.495 0.080 -4.505
v -7.495 0.080 -5.495
v -7.495 -0.240 -5.495
f 197 198 199
f 197 199 200
v -6.495 0.080 -5.495
v -6.495 0.080 -4.505
v -5.505 0.080 -4.505
v -5.505 0.080 -5.495
f 201 202 203
f 201 203 204
v -5.495 0.080 -5.495
v -5.495 0.080 -4.505
v -4.505 0.080 -4.505
v -4.505 0.080 -5.495
f 205 206 207
f 205 207 208
v -4.495 0.080 -5.495
v -4.495 0.080 -4.505
v -3.505 0.080 -4.505
v -3.505 0.080 -5.495
f 209 210 211
f 209 211 212
v -3.495 0.080 -5.495
v -3.495 0.080 -4.505
v -2.505 0.080 -4.505
v -2.505 0.080 -5.495
f 213 214 215
f 213 215 216
v -2.495 0.080 -5.495
v -2.495 0.080 -4.505
v -1.505 0.080 -4.505
v -1.505 0.080 -5.495
f 217 218 219
f 217 219 220
v -1.495 0.080 -5.495
v -1.495 0.080 -4.505
v -0.505 0.080 -4.505
v -0.505 0.080 -5.495
f 221 222 223
f 221 223 224
v -0.495 0.080 -5.495
v -0.495 0.080 -4.505
v 0.495 0.080 -4.505
v 0.495 0.080 -5.495
f 225 226 227
f 225 227 228
v 0.505 0.080 -5.495
v 0.505 0.080 -4.505
v 1.495 0.080 -4.505
v 1.495 0.080 -5.495
f 229 230 231
f 229 231 232
v 1.505 0.080 -5.495
v 1.505 0.080 -4.505
v 2.495 0.080 -4.505
v 2.495 0.080 -5.495
f 233 234 235
f 233 235 236
v 2.505 0.080 -5.495
v 2.505 0.080 -4.505
v 3.495 0.080 -4.505
v 3.495 0.080 -5.495
f 237 238 239
f 237 239 240
v 3.505 0.080 -5.495
v 3.505 0.080 -4.505
v 4.495 0.080 -4.505
v 4.495 0.080 -5.495
f 241 242 243
f 241 243 244
v 4.505 0.080 -5.495
v 4.505 0.080 -4.505
v 5.495 0.080 -4.505
v 5.495 0.080 -5.495
f 245 246 247
f 245 247 248
v 5.505 0.080 -5.495
v 5.505 0.080 -4.505
v 6.495 0.080 -4.505
v 6.495 0.080 -5.495
f 249 250 251
f 249 251 252
v 6.505 0.080 -5.495
v 6.505 0.080 -4.505
v 7.495 0.080 -4.505
v 7.495 0.080 -5.495
f 253 254 255
f 253 255 256
v 7.495 -0.240 -5.495
v 7.495 0.080 -5.495
v 7.495 0.080 -4.505
v 7.495 -0.240 -4.505
f 257 258 259
f 257 259 260
v -7.495 0.080 -4.495
v -7.495 0.080 -3.505
v -6.505 0.080 -3.505
v -6.505 0.080 -4.495
f 261 262 263
f 261 263 264
v -7.495 -0.240 -3.505
v -7.495 0.080 -3.505
v -7.495 0.080 -4.495
v -7.495 -0.240 -4.495
f 265 266 267
f 265 267 268
v -3.495 0.080 -4.495
v -3.495 0.080 -3.505
v -2.505 0.080 -3.505
v -2.505 0.080 -4.495
f 269 270 271
f 269 271 272
v 0.505 0.080 -4.495
v 0.505 0.080 -3.505
v 1.495 0.080 -3.505
v 1.495 0.080 -4.495
f 273 274 275
f 273 275 276
v 4.505 0.080 -4.495
v 4.505 0.080 -3.505
v 5.495 0.080 -3.505
v 5.495 0.080 -4.495
f 277 278 279
f 277 279 280
v -7.495 0.080 -3.495
v -7.495 0.080 -2.505
v -6.505 0.080 -2.505
v -6.505 0.080 -3.495
f 281 282 283
f 281 283 284
v -7.495 -0.240 -2.505
v -7.495 0.080 -2.505
v -7.495 0.080 -3.495
v -7.495 -0.240 -3.495
f 285 286 287
f 285 287 288
v -5.495 0.080 -3.495
v -5.495 0.080 -2.505
v -4.505 0.080 -2.505
v -4.505 0.080 -3.495
f 289 290 291
f 289 291 292
v -3.495 0.080 -3.495
v -3.495 0.080 -2.505
v -2.505 0.080 -2.505
v -2.505 0.080 -3.495
f 293 294 295
f 293 295 296
v -1.495 0.080 -3.495
v -1.495 0.080 -2.505
v -0.505 0.080 -2.505
v -0.505 0.080 -3.495
f 297 298 299
f 297 299 300
v 0.505 0.080 -3.495
v 0.505 0.080 -2.505
v 1.495 0.080 -2.505
v 1.495 0.080 -3.495
f 301 302 303
f 301 303 304
v 2.505 0.080 -3.495
v 2.505 0.080 -2.505
v 3.495 0.080 -2.505
v 3.495 0.080 -3.495
f 305 306 307
f 305 307 308
v 4.505 0.080 -3.495
v 4.505 0.080 -2.505
v 5.495 0.080 -2.505
v 5.495 0.080 -3.495
f 309 310 311
f 309 311 312
v 6.505 0.080 -3.495
v 6.505 0.080 -2.505
v 7.495 0.080 -2.505
v 7.495 0.080 -3.495
f 313 314 315
f 313 315 316
v 7.495 -0.240 -3.495
v 7.495 0.080 -3.495
v 7.495 0.080 -2.505
v 7.495 -0.240 -2.505
f 317 318 319
f 317 319 320
v -7.495 0.080 -2.495
v -7.495 0.080 -1.505
v -6.505 0.080 -1.505
v -6.505 0.080 -2.495
f 321 322 323
f 321 323 324
v -7.495 -0.240 -1.505
v -7.495 0.080 -1.505
v -7.495 0.080 -2.495
v -7.495 -0.240 -2.495
f 325 326 327
f 325 327 328
v -3.495 0.080 -2.495
v -3.495 0.080 -1.505
v -2.505 0.080 -1.505
v -2.505 0.080 -2.495
f 329 330 331
f 329 331 332
v 0.505 0.080 -2.495
v 0.505 0.080 -1.505
v 1.495 0.080 -1.505
v 1.495 0.080 -2.495
f 333 334 335
f 333 335 336
v 4.505 0.080 -2.495
v 4.505 0.080 -1.505
v 5.495 0.080 -1.505
v 5.495 0.080 -2.495
f 337 338 339
f 337 339 340
v -7.495 0.080 -1.495
v -7.495 0.080 -0.505
v -6.505 0.080 -0.505
v -6.505 0.080 -1.495
f 341 342 343
f 341 343 344
v -7.495 -0.240 -0.505
v -7.495 0.080 -0.505
v -7.495 0.080 -1.495
v -7.495 -0.240 -1.495
f 345 346 347
f 345 347 348
v -6.495 0.080 -1.495
v -6.495 0.080 -0.505
v -5.505 0.080 -0.505
v -5.505 0.080 -1.495
f 349 350 351
f 349 351 352
v -5.495 0.080 -1.495
v -5.495 0.080 -0.505
v -4.505 0.080 -0.505
v -4.505 0.080 -1.495
f 353 354 355
f 353 355 356
v -4.495 0.080 -1.495
v -4.495 0.080 -0.505
v -3.505 0.080 -0.505
v -3.505 0.080 -1.495
f 357 358 359
f 357 359 360
v -3.495 0.080 -1.495
v -3.495 0.080 -0.505
v -2.505 0.080 -0.505
v -2.505 0.080 -1.495
f 361 362 363
f 361 363 364
v -2.495 0.080 -1.495
v -2.495 0.080 -0.505
v -1.505 0.080 -0.505
v -1.505 0.080 -1.495
f 365 366 367
f 365 367 368
v -1.495 0.080 -1.495
v -1.495 0.080 -0.505
v -0.505 0.080 -0.505
v -0.505 0.080 -1.495
f 369 370 371
f 369 371 372
v -0.495 0.080 -1.495
v -0.495 0.080 -0.505
v 0.495 0.080 -0.505
v 0.495 0.080 -1.495
f 373 374 375
f 373 375 376
v 0.505 0.080 -1.495
v 0.505 0.080 -0.505
v 1.495 0.080 -0.505
v 1.495 0.080 -1.495
f 377 378 379
f 377 379 380
v 1.505 0.080 -1.495
v 1.505 0.080 -0.505
v 2.495 0.080 -0.505
v 2.495 0.080 -1.495
f 381 382 383
f 381 383 384
v 2.505 0.080 -1.495
v 2.505 0.080 -0.505
v 3.495 0.080 -0.505
v 3.495 0.080 -1.495
f 385 386 387
f 385 387 388
v 3.505 0.080 -1.495
v 3.505 0.080 -0.505
v 4.495 0.080 -0.505
v 4.495 0.080 -1.495
f 389 390 391
f 389 391 392
v 4.505 0.080 -1.495
v 4.505 0.080 -0.505
v 5.495 0.080 -0.505
v 5.495 0.080 -1.495
f 393 394 395
f 393 395 396
v 5.505 0.080 -1.495
v 5.505 0.080 -0.505
v 6.495 0.080 -0.505
v 6.495 0.080 -1.495
f 397 398 399
f 397 399 400
v 6.505 0.080 -1.495
v 6.505 0.080 -0.505
v 7.495 0.080 -0.505
v 7.495 0.080 -1.495
f 401 402 403
f 401 403 404
v 7.495 -0.240 -1.495
v 7.495 0.080 -1.495
v 7.495 0.080 -0.505
v 7.495 -0.240 -0.505
f 405 406 407
f 405 407 408
v -7.495 0.080 -0.495
v -7.495 0.080 0.495
v -6.505 0.080 0.495
v -6.505 0.080 -0.495
f 409 410 411
f 409 411 412
v -7.495 -0.240 0.495
v -7.495 0.080 0.495
v -7.495 0.080 -0.495
v -7.495 -0.240 -0.495
f 413 414 415
f 413 415 416
v -3.495 0.080 -0.495
v -3.495 0.080 0.495
v -2.505 0.080 0.495
v -2.505 0.080 -0.495
f 417 418 419
f 417 419 420
v 0.505 0.080 -0.495
v 0.505 0.080 0.495
v 1.495 0.080 0.495
v 1.495 0.080 -0.495
f 421 422 423
f 421 423 424
v 4.505 0.080 -0.495
v 4.505 0.080 0.495
v 5.495 0.080 0.495
v 5.495 0.080 -0.495
f 425 426 427
f 425 427 428
v -7.495 0.080 0.505
v -7.495 0.080 1.495
v -6.505 0.080 1.495
v -6.505 0.080 0.505
f 429 430 431
f 429 431 432
v -7.495 -0.240 1.495
v -7.495 0.080 1.495
v -7.495 0.080 0.505
v -7.495 -0.240 0.505
f 433 434 435
f 433 435 436
v -5.495 0.080 0.505
v -5.495 0.080 1.495
v -4.505 0.080 1.495
v -4.505 0.080 0.505
f 437 438 439
f 437 439 440
v -3.495 0.080 0.505
v -3.495 0.080 1.495
v -2.505 0.080 1.495
v -2.505 0.080 0.505
f 441 442 443
f 441 443 444
v -1.495 0.080 0.505
v -1.495 0.080 1.495
v -0.505 0.080 1.495
v -0.505 0.080 0.505
f 445 446 447
f 445 447 448
v 0.505 0.080 0.505
v 0.505 0.080 1.495
v 1.495 0.080 1.495
v 1.495 0.080 0.505
f 449 450 451
f 449 451 452
v 2.505 0.080 0.505
v 2.505 0.080 1.495
v 3.495 0.080 1.495
v 3.495 0.080 0.505
f 453 454 455
f 453 455 456
v 4.505 0.080 0.505
v 4.505 0.080 1.495
v 5.495 0.080 1.495
v 5.495 0.080 0.505
f 457 458 459
f 457 459 460
v 6.505 0.080 0.505
v 6.505 0.080 1.495
v 7.495 0.080 1.495
v 7.495 0.080 0.505
f 461 462 463
f 461 463 464
v 7.495 -0.240 0.505
v 7.495 0.080 0.505
v 7.495 0.080 1.495
v 7.495 -0.240 1.495
f 465 466 467
f 465 467 468
v -7.495 0.080 1.505
v -7.495 0.080 2.495
v -6.505 0.080 2.495
v -6.505 0.080 1.505
f 469 470 471
f 469 471 472
v -7.495 -0.240 2.495
v -7.495 0.080 2.495
v -7.495 0.080 1.505
v -7.495 -0.240 1.505
f 473 474 475
f 473 475 476
v -3.495 0.080 1.505
v -3.495 0.080 2.495
v -2.505 0.080 2.495
v -2.505 0.080 1.505
f 477 478 479
f 477 479 480
v 0.505 0.080 1.505
v 0.505 0.080 2.495
v 1.495 0.080 2.495
v 1.495 0.080 1.505
f 481 482 483
f 481 483 484
v 4.505 0.080 1.505
v 4.505 0.080 2.495
v 5.495 0.080 2.495
v 5.495 0.080 1.505
f 485 486 487
f 485 487 488
v -7.495 0.080 2.505
v -7.495 0.080 3.495
v -6.505 0.080 3.495
v -6.505 0.080 2.505
f 489 490 491
f 489 491 492
v -7.495 -0.240 3.495
v -7.495 0.080 3.495
v -7.495 0.080 2.505
v -7.495 -0.240 2.505
f 493 494 495
f 493 495 496
v -6.495 0.080 2.505
v -6.495 0.080 3.495
v -5.505 0.080 3.495
v -5.505 0.080 2.505
f 497 498 499
f 497 499 500
v -5.495 0.080 2.505
v -5.495 0.080 3.495
v -4.505 0.080 3.495
v -4.505 0.080 2.505
f 501 502 503
f 501 503 504
v -4.495 0.080 2.505
v -4.495 0.080 3.495
v -3.505 0.080 3.495
v -3.505 0.080 2.505
f 505 506 507
f 505 507 508
v -3.495 0.080 2.505
v -3.495 0.080 3.495
v -2.505 0.080 3.495
v -2.505 0.080 2.505
f 509 510 511
f 509 511 512
v -2.495 0.080 2.505
v -2.495 0.080 3.495
v -1.505 0.080 3.495
v -1.505 0.080 2.505
f 513 514 515
f 513 515 516
v -1.495 0.080 2.505
v -1.495 0.080 3.495
v -0.505 0.080 3.495
v -0.505 0.080 2.505
f 517 518 519
f 517 519 520
v -0.495 0.080 2.505
v -0.495 0.080 3.495
v 0.495 0.080 3.495
v 0.495 0.080 2.505
f 521 522 523
f 521 523 524
v 0.505 0.080 2.505
v 0.505 0.080 3.495
v 1.495 0.080 3.495
v 1.495 0.080 2.505
f 525 526 527
f 525 527 528
v 1.505 0.080 2.505
v 1.505 0.080 3.495
v 2.495 0.080 3.495
v 2.495 0.080 2.505
f 529 530 531
f 529 531 532
v 2.505 0.080 2.505
v 2.505 0.080 3.495
v 3.495 0.080 3.495
v 3.495 0.080 2.505
f 533 534 535
f 533 535 536
v 3.505 0.080 2.505
v 3.505 0.080 3.495
v 4.495 0.080 3.495
v 4.495 0.080 2.505
f 537 538 539
f 537 539 540
v 4.505 0.080 2.505
v 4.505 0.080 3.495
v 5.495 0.080 3.495
v 5.495 0.080 2.505
f 541 542 543
f 541 543 544
v 5.505 0.080 2.505
v 5.505 0.080 3.495
v 6.495 0.080 3.495
v 6.495 0.080 2.505
f 545 546 547
f 545 547 548
v 6.505 0.080 2.505
v 6.505 0.080 3.495
v 7.495 0.080 3.495
v 7.495 0.080 2.505
f 549 550 551
f 549 551 552
v 7.495 -0.240 2.505
v 7.495 0.080 2.505
v 7.495 0.080 3.495
v 7.495 -0.240 3.495
f 553 554 555
f 553 555 556
v -7.495 0.080 3.505
v -7.495 0.080 4.495
v -6.505 0.080 4.495
v -6.505 0.080 3.505
f 557 558 559
f 557 559 560
v -7.495 -0.240 4.495
v -7.495 0.080 4.495
v -7.495 0.080 3.505
v -7.495 -0.240 3.505
f 561 562 563
f 561 563 564
v -3.495 0.080 3.505
v -3.495 0.080 4.495
v -2.505 0.080 4.495
v -2.505 0.080 3.505
f 565 566 567
f 565 567 568
v 0.505 0.080 3.505
v 0.505 0.080 4.495
v 1.495 0.080 4.495
v 1.495 0.080 3.505
f 569 570 571
f 569 571 572
v 4.505 0.080 3.505
v 4.505 0.080 4.495
v 5.495 0.080 4.495
v 5.495 0.080 3.505
f 573 574 575
f 573 575 576
v -7.495 0.080 4.505
v -7.495 0.080 5.495
v -6.505 0.080 5.495
v -6.505 0.080 4.505
f 577 578 579
f 577 579 580
v -7.495 -0.240 5.495
v -7.495 0.080 5.495
v -7.495 0.080 4.505
v -7.495 -0.240 4.505
f 581 582 583
f 581 583 584
v -5.495 0.080 4.505
v -5.495 0.080 5.495
v -4.505 0.080 5.495
v -4.505 0.080 4.505
f 585 586 587
f 585 587 588
v -3.495 0.080 4.505
v -3.495 0.080 5.495
v -2.505 0.080 5.495
v -2.505 0.080 4.505
f 589 590 591
f 589 591 592
v -1.495 0.080 4.505
v -1.495 0.080 5.495
v -0.505 0.080 5.495
v -0.505 0.080 4.505
f 593 594 595
f 593 595 596
v 0.505 0.080 4.505
v 0.505 0.080 5.495
v 1.495 0.080 5.495
v 1.495 0.080 4.505
f 597 598 599
f 597 599 600
v 2.505 0.080 4.505
v 2.505 0.080 5.495
v 3.495 0.080 5.495
v 3.495 0.080 4.505
f 601 602 603
f 601 603 604
v 4.505 0.080 4.505
v 4.505 0.080 5.495
v 5.495 0.080 5.495
v 5.495 0.080 4.505
f 605 606 607
f 605 607 608
v 6.505 0.080 4.505
v 6.505 0.080 5.495
v 7.495 0.080 5.495
v 7.495 0.080 4.505
f 609 610 611
f 609 611 612
v 7.495 -0.240 4.505
v 7.495 0.080 4.505
v 7.495 0.080 5.495
v 7.495 -0.240 5.495
f 613 614 615
f 613 615 616
v -7.495 0.080 5.505
v -7.495 0.080 6.495
v -6.505 0.080 6.495
v -6.505 0.080 5.505
f 617 618 619
f 617 619 620
v -7.495 -0.240 6.495
v -7.495 0.080 6.495
v -7.495 0.080 5.505
v -7.495 -0.240 5.505
f 621 622 623
f 621 623 624
v -3.495 0.080 5.505
v -3.495 0.080 6.495
v -2.505 0.080 6.495
v -2.505 0.080 5.505
f 625 626 627
f 625 627 628
v 0.505 0.080 5.505
v 0.505 0.080 6.495
v 1.495 0.080 6.495
v 1.495 0.080 5.505
f 629 630 631
f 629 631 632
v 4.505 0.080 5.505
v 4.505 0.080 6.495
v 5.495 0.080 6.495
v 5.495 0.080 5.505
f 633 634 635
f 633 635 636
v -7.495 0.080 6.505
v -7.495 0.080 7.495
v -6.505 0.080 7.495
v -6.505 0.080 6.505
f 637 638 639
f 637 639 640
v -6.505 -0.240 7.495
v -6.505 0.080 7.495
v -7.495 0.080 7.495
v -7.495 -0.240 7.495
f 641 642 643
f 641 643 644
v -7.495 -0.240 7.495
v -7.495 0.080 7.495
v -7.495 0.080 6.505
v -7.495 -0.240 6.505
f 645 646 647
f 645 647 648
v -6.495 0.080 6.505
v -6.495 0.080 7.495
v -5.505 0.080 7.495
v -5.505 0.080 6.505
f 649 650 651
f 649 651 652
v -5.505 -0.240 7.495
v -5.505 0.080 7.495
v -6.495 0.080 7.495
v -6.495 -0.240 7.495
f 653 654 655
f 653 655 656
v -5.495 0.080 6.505
v -5.495 0.080 7.495
v -4.505 0.080 7.495
v -4.505 0.080 6.505
f 657 658 659
f 657 659 660
v -4.505 -0.240 7.495
v -4.505 0.080 7.495
v -5.495 0.080 7.495
v -5.495 -0.240 7.495
f 661 662 663
f 661 663 664
v -4.495 0.080 6.505
v -4.495 0.080 7.495
v -3.505 0.080 7.495
v -3.505 0.080 6.505
f 665 666 667
f 665 667 668
v -3.505 -0.240 7.495
v -3.505 0.080 7.495
v -4.495 0.080 7.495
v -4.495 -0.240 7.495
f 669 670 671
f 669 671 672
v -3.495 0.080 6.505
v -3.495 0.080 7.495
v -2.505 0.080 7.495
v -2.505 0.080 6.505
f 673 674 675
f 673 675 676
v -2.505 -0.240 7.495
v -2.505 0.080 7.495
v -3.495 0.080 7.495
v -3.495 -0.240 7.495
f 677 678 679
f 677 679 680
v -2.495 0.080 6.505
v -2.495 0.080 7.495
v -1.505 0.080 7.495
v -1.505 0.080 6.505
f 681 682 683
f 681 683 684
v -1.505 -0.240 7.495
v -1.505 0.080 7.495
v -2.495 0.080 7.495
v -2.495 -0.240 7.495
f 685 686 687
f 685 687 688
v -1.495 0.080 6.505
v -1.495 0.080 7.495
v -0.505 0.080 7.495
v -0.505 0.080 6.505
f 689 690 691
f 689 691 692
v -0.505 -0.240 7.495
v -0.505 0.080 7.495
v -1.495 0.080 7.495
v -1.495 -0.240 7.495
f 693 694 695
f 693 695 696
v -0.495 0.080 6.505
v -0.495 0.080 7.495
v 0.495 0.080 7.495
v 0.495 0.080 6.505
f 697 698 699
f 697 699 700
v 0.495 -0.240 7.495
v 0.495 0.080 7.495
v -0.495 0.080 7.495
v -0.495 -0.240 7.495
f 701 702 703
f 701 703 704
v 0.505 0.080 6.505
v 0.505 0.080 7.495
v 1.495 0.080 7.495
v 1.495 0.080 6.505
f 705 706 707
f 705 707 708
v 1.495 -0.240 7.495
v 1.495 0.080 7.495
v 0.505 0.080 7.495
v 0.505 -0.240 7.495
f 709 710 711
f 709 711 712
v 1.505 0.080 6.505
v 1.505 0.080 7.495
v 2.495 0.080 7.495
v 2.495 0.080 6.505
f 713 714 715
f 713 715 716
v 2.495 -0.240 7.495
v 2.495 0.080 7.495
v 1.505 0.080 7.495
v 1.505 -0.240 7.495
f 717 718 719
f 717 719 720
v 2.505 0.080 6.505
v 2.505 0.080 7.495
v 3.495 0.080 7.495
v 3.495 0.080 6.505
f 721 722 723
f 721 723 724
v 3.495 -0.240 7.495
v 3.495 0.080 7.495
v 2.505 0.080 7.495
v 2.505 -0.240 7.495
f 725 726 727
f 725 727 728
v 3.505 0.080 6.505
v 3.505 0.080 7.495
v 4.495 0.080 7.495
v 4.495 0.080 6.505
f 729 730 731
f 729 731 732
v 4.495 -0.240 7.495
v 4.495 0.080 7.495
v 3.505 0.080 7.495
v 3.505 -0.240 7.495
f 733 734 735
f 733 735 736
v 4.505 0.080 6.505
v 4.505 0.080 7.495
v 5.495 0.080 7.495
v 5.495 0.080 6.505
f 737 738 739
f 737 739 740
v 5.495 -0.240 7.495
v 5.495 0.080 7.495
v 4.505 0.080 7.495
v 4.505 -0.240 7.495
f 741 742 743
f 741 743 744
v 5.505 0.080 6.505
v 5.505 0.080 7.495
v 6.495 0.080 7.495
v 6.495 0.080 6.505
f 745 746 747
f 745 747 748
v 6.495 -0.240 7.495
v 6.495 0.080 7.495
v 5.505 0.080 7.495
v 5.505 -0.240 7.495
f 749 750 751
f 749 751 752
v 6.505 0.080 6.505
v 6.505 0.080 7.495
v 7.495 0.080 7.495
v 7.495 0.080 6.505
f 753 754 755
f 753 755 756
v 7.495 -0.240 7.495
v 7.495 0.080 7.495
v 6.505 0.080 7.495
v 6.505 -0.240 7.495
f 757 758 759
f 757 759 760
v 7.495 -0.240 6.505
v 7.495 0.080 6.505
v 7.495 0.080 7.495
v 7.495 -0.240 7.495
f 761 762 763
f 761 763 764
o grass-2
usemtl grass-2
v -4.495 0.080 -6.495
v -4.495 0.080 -5.505
v -3.505 0.080 -5.505
v -3.505 0.080 -6.495
f 765 766 767
f 765 767 768
v -0.495 0.080 -6.495
v -0.495 0.080 -5.505
v 0.495 0.080 -5.505
v 0.495 0.080 -6.495
f 769 770 771
f 769 771 772
v 3.505 0.080 -6.495
v 3.505 0.080 -5.505
v 4.495 0.080 -5.505
v 4.495 0.080 -6.495
f 773 774 775
f 773 775 776
v -6.495 0.080 -4.495
v -6.495 0.080 -3.505
v -5.505 0.080 -3.505
v -5.505 0.080 -4.495
f 777 778 779
f 777 779 780
v -2.495 0.080 -4.495
v -2.495 0.080 -3.505
v -1.505 0.080 -3.505
v -1.505 0.080 -4.495
f 781 782 783
f 781 783 784
v 1.505 0.080 -4.495
v 1.505 0.080 -3.505
v 2.495 0.080 -3.505
v 2.495 0.080 -4.495
f 785 786 787
f 785 787 788
v 5.505 0.080 -4.495
v 5.505 0.080 -3.505
v 6.495 0.080 -3.505
v 6.495 0.080 -4.495
f 789 790 791
f 789 791 792
v -4.495 0.080 -2.495
v -4.495 0.080 -1.505
v -3.505 0.080 -1.505
v -3.505 0.080 -2.495
f 793 794 795
f 793 795 796
v -0.495 0.080 -2.495
v -0.495 0.080 -1.505
v 0.495 0.080 -1.505
v 0.495 0.080 -2.495
f 797 798 799
f 797 799 800
v 3.505 0.080 -2.495
v 3.505 0.080 -1.505
v 4.495 0.080 -1.505
v 4.495 0.080 -2.495
f 801 802 803
f 801 803 804
v -6.495 0.080 -0.495
v -6.495 0.080 0.495
v -5.505 0.080 0.495
v -5.505 0.080 -0.495
f 805 806 807
f 805 807 808
v -2.495 0.080 -0.495
v -2.495 0.080 0.495
v -1.505 0.080 0.495
v -1.505 0.080 -0.495
f 809 810 811
f 809 811 812
v 1.505 0.080 -0.495
v 1.505 0.080 0.495
v 2.495 0.080 0.495
v 2.495 0.080 -0.495
f 813 814 815
f 813 815 816
v 5.505 0.080 -0.495
v 5.505 0.080 0.495
v 6.495 0.080 0.495
v 6.495 0.080 -0.495
f 817 818 819
f 817 819 820
v -4.495 0.080 1.505
v -4.495 0.080 2.495
v -3.505 0.080 2.495
v -3.505 0.080 1.505
f 821 822 823
f 821 823 824
v -0.495 0.080 1.505
v -0.495 0.080 2.495
v 0.495 0.080 2.495
v 0.495 0.080 1.505
f 825 826 827
f 825 827 828
v 3.505 0.080 1.505
v 3.505 0.080 2.495
v 4.495 0.080 2.495
v 4.495 0.080 1.505
f 829 830 831
f 829 831 832
v -6.495 0.080 3.505
v -6.495 0.080 4.495
v -5.505 0.080 4.495
v -5.505 0.080 3.505
f 833 834 835
f 833 835 836
v -2.495 0.080 3.505
v -2.495 0.080 4.495
v -1.505 0.080 4.495
v -1.505 0.080 3.505
f 837 838 839
f 837 839 840
v 1.505 0.080 3.505
v 1.505 0.080 4.495
v 2.495 0.080 4.495
v 2.495 0.080 3.505
f 841 842 843
f 841 843 844
v 5.505 0.080 3.505
v 5.505 0.080 4.495
v 6.495 0.080 4.495
v 6.495 0.080 3.505
f 845 846 847
f 845 847 848
v -4.495 0.080 5.505
v -4.495 0.080 6.495
v -3.505 0.080 6.495
v -3.505 0.080 5.505
f 849 850 851
f 849 851 852
v -0.495 0.080 5.505
v -0.495 0.080 6.495
v 0.495 0.080 6.495
v 0.495 0.080 5.505
f 853 854 855
f 853 855 856
v 3.505 0.080 5.505
v 3.505 0.080 6.495
v 4.495 0.080 6.495
v 4.495 0.080 5.505
f 857 858 859
f 857 859 860
o grass-3
usemtl grass-3
v -6.495 0.080 -7.495
v -6.495 0.080 -6.505
v -5.505 0.080 -6.505
v -5.505 0.080 -7.495
f 861 862 863
f 861 863 864
v -6.495 -0.240 -7.495
v -6.495 0.080 -7.495
v -5.505 0.080 -7.495
v -5.505 -0.240 -7.495
f 865 866 867
f 865 867 868
v -4.495 0.080 -7.495
v -4.495 0.080 -6.505
v -3.505 0.080 -6.505
v -3.505 0.080 -7.495
f 869 870 871
f 869 871 872
v -4.495 -0.240 -7.495
v -4.495 0.080 -7.495
v -3.505 0.080 -7.495
v -3.505 -0.240 -7.495
f 873 874 875
f 873 875 876
v -2.495 0.080 -7.495
v -2.495 0.080 -6.505
v -1.505 0.080 -6.505
v -1.505 0.080 -7.495
f 877 878 879
f 877 879 880
v -2.495 -0.240 -7.495
v -2.495 0.080 -7.495
v -1.505 0.080 -7.495
v -1.505 -0.240 -7.495
f 881 882 883
f 881 883 884
v -0.495 0.080 -7.495
v -0.495 0.080 -6.505
v 0.495 0.080 -6.505
v 0.495 0.080 -7.495
f 885 886 887
f 885 887 888
v -0.495 -0.240 -7.495
v -0.495 0.080 -7.495
v 0.495 0.080 -7.495
v 0.495 -0.240 -7.495
f 889 890 891
f 889 891 892
v 1.505 0.080 -7.495
v 1.505 0.080 -6.505
v 2.495 0.080 -6.505
v 2.495 0.080 -7.495
f 893 894 895
f 893 895 896
v 1.505 -0.240 -7.495
v 1.505 0.080 -7.495
v 2.495 0.080 -7.495
v 2.495 -0.240 -7.495
f 897 898 899
f 897 899 900
v 3.505 0.080 -7.495
v 3.505 0.080 -6.505
v 4.495 0.080 -6.505
v 4.495 0.080 -7.495
f 901 902 903
f 901 903 904
v 3.505 -0.240 -7.495
v 3.505 0.080 -7.495
v 4.495 0.080 -7.495
v 4.495 -0.240 -7.495
f 905 906 907
f 905 907 908
v 5.505 0.080 -7.495
v 5.505 0.080 -6.505
v 6.495 0.080 -6.505
v 6.495 0.080 -7.495
f 909 910 911
f 909 911 912
v 5.505 -0.240 -7.495
v 5.505 0.080 -7.495
v 6.495 0.080 -7.495
v 6.495 -0.240 -7.495
f 913 914 915
f 913 915 916
v -5.495 0.080 -6.495
v -5.495 0.080 -5.505
v -4.505 0.080 -5.505
v -4.505 0.080 -6.495
f 917 918 919
f 917 919 920
v -1.495 0.080 -6.495
v -1.495 0.080 -5.505
v -0.505 0.080 -5.505
v -0.505 0.080 -6.495
f 921 922 923
f 921 923 924
v 2.505 0.080 -6.495
v 2.505 0.080 -5.505
v 3.495 0.080 -5.505
v 3.495 0.080 -6.495
f 925 926 927
f 925 927 928
v 6.505 0.080 -6.495
v 6.505 0.080 -5.505
v 7.495 0.080 -5.505
v 7.495 0.080 -6.495
f 929 930 931
f 929 931 932
v 7.495 -0.240 -6.495
v 7.495 0.080 -6.495
v 7.495 0.080 -5.505
v 7.495 -0.240 -5.505
f 933 934 935
f 933 935 936
v -5.495 0.080 -4.495
v -5.495 0.080 -3.505
v -4.505 0.080 -3.505
v -4.505 0.080 -4.495
f 937 938 939
f 937 939 940
v -1.495 0.080 -4.495
v -1.495 0.080 -3.505
v -0.505 0.080 -3.505
v -0.505 0.080 -4.495
f 941 942 943
f 941 943 944
v 2.505 0.080 -4.495
v 2.505 0.080 -3.505
v 3.495 0.080 -3.505
v 3.495 0.080 -4.495
f 945 946 947
f 945 947 948
v 6.505 0.080 -4.495
v 6.505 0.080 -3.505
v 7.495 0.080 -3.505
v 7.495 0.080 -4.495
f 949 950 951
f 949 951 952
v 7.495 -0.240 -4.495
v 7.495 0.080 -4.495
v 7.495 0.080 -3.505
v 7.495 -0.240 -3.505
f 953 954 955
f 953 955 956
v -6.495 0.080 -3.495
v -6.495 0.080 -2.505
v -5.505 0.080 -2.505
v -5.505 0.080 -3.495
f 957 958 959
f 957 959 960
v -4.495 0.080 -3.495
v -4.495 0.080 -2.505
v -3.505 0.080 -2.505
v -3.505 0.080 -3.495
f 961 962 963
f 961 963 964
v -2.495 0.080 -3.495
v -2.495 0.080 -2.505
v -1.505 0.080 -2.505
v -1.505 0.080 -3.495
f 965 966 967
f 965 967 968
v -0.495 0.080 -3.495
v -0.495 0.080 -2.505
v 0.495 0.080 -2.505
v 0.495 0.080 -3.495
f 969 970 971
f 969 971 972
v 1.505 0.080 -3.495
v 1.505 0.080 -2.505
v 2.495 0.080 -2.505
v 2.495 0.080 -3.495
f 973 974 975
f 973 975 976
v 3.505 0.080 -3.495
v 3.505 0.080 -2.505
v 4.495 0.080 -2.505
v 4.495 0.080 -3.495
f 977 978 979
f 977 979 980
v 5.505 0.080 -3.495
v 5.505 0.080 -2.505
v 6.495 0.080 -2.505
v 6.495 0.080 -3.495
f 981 982 983
f 981 983 984
v -5.495 0.080 -2.495
v -5.495 0.080 -1.505
v -4.505 0.080 -1.505
v -4.505 0.080 -2.495
f 985 986 987
f 985 987 988
v -1.495 0.080 -2.495
v -1.495 0.080 -1.505
v -0.505 0.080 -1.505
v -0.505 0.080 -2.495
f 989 990 991
f 989 991 992
v 2.505 0.080 -2.495
v 2.505 0.080 -1.505
v 3.495 0.080 -1.505
v 3.495 0.080 -2.495
f 993 994 995
f 993 995 996
v 6.505 0.080 -2.495
v 6.505 0.080 -1.505
v 7.495 0.080 -1.505
v 7.495 0.080 -2.495
f 997 998 999
f 997 999 1000
v 7.495 -0.240 -2.495
v 7.495 0.080 -2.495
v 7.495 0.080 -1.505
v 7.495 -0.240 -1.505
f 1001 1002 1003
f 1001 1003 1004
v -5.495 0.080 -0.495
v -5.495 0.080 0.495
v -4.505 0.080 0.495
v -4.505 0.080 -0.495
f 1005 1006 1007
f 1005 1007 1008
v -1.495 0.080 -0.495
v -1.495 0.080 0.495
v -0.505 0.080 0.495
v -0.505 0.080 -0.495
f 1009 1010 1011
f 1009 1011 1012
v 2.505 0.080 -0.495
v 2.505 0.080 0.495
v 3.495 0.080 0.495
v 3.495 0.080 -0.495
f 1013 1014 1015
f 1013 1015 1016
v 6.505 0.080 -0.495
v 6.505 0.080 0.495
v 7.495 0.080 0.495
v 7.495 0.080 -0.495
f 1017 1018 1019
f 1017 1019 1020
v 7.495 -0.240 -0.495
v 7.495 0.080 -0.495
v 7.495 0.080 0.495
v 7.495 -0.240 0.495
f 1021 1022 1023
f 1021 1023 1024
v -6.495 0.080 0.505
v -6.495 0.080 1.495
v -5.505 0.080 1.495
v -5.505 0.080 0.505
f 1025 1026 1027
f 1025 1027 1028
v -4.495 0.080 0.505
v -4.495 0.080 1.495
v -3.505 0.080 1.495
v -3.505 0.080 0.505
f 1029 1030 1031
f 1029 1031 1032
v -2.495 0.080 0.505
v -2.495 0.080 1.495
v -1.505 0.080 1.495
v -1.505 0.080 0.505
f 1033 1034 1035
f 1033 1035 1036
v -0.495 0.080 0.505
v -0.495 0.080 1.495
v 0.495 0.080 1.495
v 0.495 0.080 0.505
f 1037 1038 1039
f 1037 1039 1040
v 1.505 0.080 0.505
v 1.505 0.080 1.495
v 2.495 0.080 1.495
v 2.495 0.080 0.505
f 1041 1042 1043
f 1041 1043 1044
v 3.505 0.080 0.505
v 3.505 0.080 1.495
v 4.495 0.080 1.495
v 4.495 0.080 0.505
f 1045 1046 1047
f 1045 1047 1048
v 5.505 0.080 0.505
v 5.505 0.080 1.495
v 6.495 0.080 1.495
v 6.495 0.080 0.505
f 1049 1050 1051
f 1049 1051 1052
v -5.495 0.080 1.505
v -5.495 0.080 2.495
v -4.505 0.080 2.495
v -4.505 0.080 1.505
f 1053 1054 1055
f 1053 1055 1056
v -1.495 0.080 1.505
v -1.495 0.080 2.495
v -0.505 0.080 2.495
v -0.505 0.080 1.505
f 1057 1058 1059
f 1057 1059 1060
v 2.505 0.080 1.505
v 2.505 0.080 2.495
v 3.495 0.080 2.495
v 3.495 0.080 1.505
f 1061 1062 1063
f 1061 1063 1064
v 6.505 0.080 1.505
v 6.505 0.080 2.495
v 7.495 0.080 2.495
v 7.495 0.080 1.505
f 1065 1066 1067
f 1065 1067 1068
v 7.495 -0.240 1.505
v 7.495 0.080 1.505
v 7.495 0.080 2.495
v 7.495 -0.240 2.495
f 1069 1070 1071
f 1069 1071 1072
v -5.495 0.080 3.505
v -5.495 0.080 4.495
v -4.505 0.080 4.495
v -4.505 0.080 3.505
f 1073 1074 1075
f 1073 1075 1076
v -1.495 0.080 3.505
v -1.495 0.080 4.495
v -0.505 0.080 4.495
v -0.505 0.080 3.505
f 1077 1078 1079
f 1077 1079 1080
v 2.505 0.080 3.505
v 2.505 0.080 4.495
v 3.495 0.080 4.495
v 3.495 0.080 3.505
f 1081 1082 1083
f 1081 1083 1084
v 6.505 0.080 3.505
v 6.505 0.080 4.495
v 7.495 0.080 4.495
v 7.495 0.080 3.505
f 1085 1086 1087
f 1085 1087 1088
v 7.495 -0.240 3.505
v 7.495 0.080 3.505
v 7.495 0.080 4.495
v 7.495 -0.240 4.495
f 1089 1090 1091
f 1089 1091 1092
v -6.495 0.080 4.505
v -6.495 0.080 5.495
v -5.505 0.080 5.495
v -5.505 0.080 4.505
f 1093 1094 1095
f 1093 1095 1096
v -4.495 0.080 4.505
v -4.495 0.080 5.495
v -3.505 0.080 5.495
v -3.505 0.080 4.505
f 1097 1098 1099
f 1097 1099 1100
v -2.495 0.080 4.505
v -2.495 0.080 5.495
v -1.505 0.080 5.495
v -1.505 0.080 4.505
f 1101 1102 1103
f 1101 1103 1104
v -0.495 0.080 4.505
v -0.495 0.080 5.495
v 0.495 0.080 5.495
v 0.495 0.080 4.505
f 1105 1106 1107
f 1105 1107 1108
v 1.505 0.080 4.505
v 1.505 0.080 5.495
v 2.495 0.080 5.495
v 2.495 0.080 4.505
f 1109 1110 1111
f 1109 1111 1112
v 3.505 0.080 4.505
v 3.505 0.080 5.495
v 4.495 0.080 5.495
v 4.495 0.080 4.505
f 1113 1114 1115
f 1113 1115 1116
v 5.505 0.080 4.505
v 5.505 0.080 5.495
v 6.495 0.080 5.495
v 6.495 0.080 4.505
f 1117 1118 1119
f 1117 1119 1120
v -5.495 0.080 5.505
v -5.495 0.080 6.495
v -4.505 0.080 6.495
v -4.505 0.080 5.505
f 1121 1122 1123
f 1121 1123 1124
v -1.495 0.080 5.505
v -1.495 0.080 6.495
v -0.505 0.080 6.495
v -0.505 0.080 5.505
f 1125 1126 1127
f 1125 1127 1128
v 2.505 0.080 5.505
v 2.505 0.080 6.495
v 3.495 0.080 6.495
v 3.495 0.080 5.505
f 1129 1130 1131
f 1129 1131 1132
v 6.505 0.080 5.505
v 6.505 0.080 6.495
v 7.495 0.080 6.495
v 7.495 0.080 5.505
f 1133 1134 1135
f 1133 1135 1136
v 7.495 -0.240 5.505
v 7.495 0.080 5.505
v 7.495 0.080 6.495
v 7.495 -0.240 6.495
f 1137 1138 1139
f 1137 1139 1140
o earth-cliff
usemtl earth-cliff
v -7.495 -0.230 -7.495
v -7.495 -0.230 7.495
v 7.495 -0.230 7.495
v 7.495 -0.230 -7.495
f 1141 1142 1143
f 1141 1143 1144
