{
  "asset": {
    "version": "2.0",
    "generator": "Bozzard gilded-night original crescent"
  },
  "scene": 0,
  "scenes": [
    {
      "nodes": [
        0
      ]
    }
  ],
  "nodes": [
    {
      "mesh": 0
    }
  ],
  "meshes": [
    {
      "primitives": [
        {
          "attributes": {
            "POSITION": 0,
            "NORMAL": 1
          },
          "indices": 2,
          "material": 0
        }
      ]
    }
  ],
  "materials": [
    {
      "doubleSided": true,
      "pbrMetallicRoughness": {
        "baseColorFactor": [
          0,
          0,
          0,
          1
        ],
        "metallicFactor": 0,
        "roughnessFactor": 1
      },
      "emissiveFactor": [
        0.7,
        0.82,
        1
      ]
    }
  ],
  "buffers": [
    {
      "byteLength": 3888,
      "uri": "data:application/octet-stream;base64,"
    }
  ],
  "bufferViews": [
    {
      "buffer": 0,
      "byteOffset": 0,
      "byteLength": 1560
    },
    {
      "buffer": 0,
      "byteOffset": 1560,
      "byteLength": 1560
    },
    {
      "buffer": 0,
      "byteOffset": 3120,
      "byteLength": 768
    }
  ],
  "accessors": [
    {
      "bufferView": 0,
      "componentType": 5126,
      "count": 130,
      "type": "VEC3",
      "min": [
        -1,
        -1,
        0
      ],
      "max": [
        1,
        1,
        0
      ]
    },
    {
      "bufferView": 1,
      "componentType": 5126,
      "count": 130,
      "type": "VEC3"
    },
    {
      "bufferView": 2,
      "componentType": 5123,
      "count": 384,
      "type": "SCALAR"
    }
  ]
}
