{
 "asset": {
  "version": "2.0",
  "generator": "Bozzard tools/gen_pagoda.py"
 },
 "scene": 0,
 "scenes": [
  {
   "nodes": [
    0
   ]
  }
 ],
 "nodes": [
  {
   "name": "cloud-2",
   "mesh": 0
  }
 ],
 "meshes": [
  {
   "name": "cloud-2",
   "primitives": [
    {
     "attributes": {
      "POSITION": 0,
      "NORMAL": 1
     },
     "indices": 2,
     "material": 0
    },
    {
     "attributes": {
      "POSITION": 3,
      "NORMAL": 4
     },
     "indices": 5,
     "material": 1
    },
    {
     "attributes": {
      "POSITION": 6,
      "NORMAL": 7
     },
     "indices": 8,
     "material": 2
    }
   ]
  }
 ],
 "materials": [
  {
   "name": "c-e8eefc",
   "pbrMetallicRoughness": {
    "baseColorFactor": [
     0.806952,
     0.854993,
     0.973445,
     0.92
    ],
    "metallicFactor": 0.0,
    "roughnessFactor": 1.0
   },
   "alphaMode": "BLEND"
  },
  {
   "name": "c-f4f7ff",
   "pbrMetallicRoughness": {
    "baseColorFactor": [
     0.904661,
     0.930111,
     1.0,
     0.92
    ],
    "metallicFactor": 0.0,
    "roughnessFactor": 1.0
   },
   "alphaMode": "BLEND"
  },
  {
   "name": "c-ffffff",
   "pbrMetallicRoughness": {
    "baseColorFactor": [
     1.0,
     1.0,
     1.0,
     0.92
    ],
    "metallicFactor": 0.0,
    "roughnessFactor": 1.0
   },
   "alphaMode": "BLEND"
  }
 ],
 "buffers": [
  {
   "uri": "data:application/octet-stream;base64,",
   "byteLength": 74520
  }
 ],
 "bufferViews": [
  {
   "buffer": 0,
   "byteOffset": 0,
   "byteLength": 8688,
   "target": 34962
  },
  {
   "buffer": 0,
   "byteOffset": 8688,
   "byteLength": 8688,
   "target": 34962
  },
  {
   "buffer": 0,
   "byteOffset": 17376,
   "byteLength": 2172,
   "target": 34963
  },
  {
   "buffer": 0,
   "byteOffset": 19548,
   "byteLength": 1680,
   "target": 34962
  },
  {
   "buffer": 0,
   "byteOffset": 21228,
   "byteLength": 1680,
   "target": 34962
  },
  {
   "buffer": 0,
   "byteOffset": 22908,
   "byteLength": 420,
   "target": 34963
  },
  {
   "buffer": 0,
   "byteOffset": 23328,
   "byteLength": 22752,
   "target": 34962
  },
  {
   "buffer": 0,
   "byteOffset": 46080,
   "byteLength": 22752,
   "target": 34962
  },
  {
   "buffer": 0,
   "byteOffset": 68832,
   "byteLength": 5688,
   "target": 34963
  }
 ],
 "accessors": [
  {
   "bufferView": 0,
   "componentType": 5126,
   "count": 724,
   "type": "VEC3",
   "min": [
    -3.0,
    -3.0,
    -11.0
   ],
   "max": [
    4.0,
    4.0,
    4.0
   ]
  },
  {
   "bufferView": 1,
   "componentType": 5126,
   "count": 724,
   "type": "VEC3"
  },
  {
   "bufferView": 2,
   "componentType": 5123,
   "count": 1086,
   "type": "SCALAR"
  },
  {
   "bufferView": 3,
   "componentType": 5126,
   "count": 140,
   "type": "VEC3",
   "min": [
    -3.0,
    -2.0,
    -6.0
   ],
   "max": [
    1.0,
    3.0,
    -2.0
   ]
  },
  {
   "bufferView": 4,
   "componentType": 5126,
   "count": 140,
   "type": "VEC3"
  },
  {
   "bufferView": 5,
   "componentType": 5123,
   "count": 210,
   "type": "SCALAR"
  },
  {
   "bufferView": 6,
   "componentType": 5126,
   "count": 1896,
   "type": "VEC3",
   "min": [
    -7.0,
    -3.0,
    -12.0
   ],
   "max": [
    5.0,
    7.0,
    0.0
   ]
  },
  {
   "bufferView": 7,
   "componentType": 5126,
   "count": 1896,
   "type": "VEC3"
  },
  {
   "bufferView": 8,
   "componentType": 5123,
   "count": 2844,
   "type": "SCALAR"
  }
 ]
}
