{
 "asset": {
  "version": "2.0",
  "generator": "Bozzard tools/gen_pagoda.py"
 },
 "scene": 0,
 "scenes": [
  {
   "nodes": [
    0
   ]
  }
 ],
 "nodes": [
  {
   "name": "cloud-1",
   "mesh": 0
  }
 ],
 "meshes": [
  {
   "name": "cloud-1",
   "primitives": [
    {
     "attributes": {
      "POSITION": 0,
      "NORMAL": 1
     },
     "indices": 2,
     "material": 0
    },
    {
     "attributes": {
      "POSITION": 3,
      "NORMAL": 4
     },
     "indices": 5,
     "material": 1
    },
    {
     "attributes": {
      "POSITION": 6,
      "NORMAL": 7
     },
     "indices": 8,
     "material": 2
    }
   ]
  }
 ],
 "materials": [
  {
   "name": "c-e8eefc",
   "pbrMetallicRoughness": {
    "baseColorFactor": [
     0.806952,
     0.854993,
     0.973445,
     0.92
    ],
    "metallicFactor": 0.0,
    "roughnessFactor": 1.0
   },
   "alphaMode": "BLEND"
  },
  {
   "name": "c-f4f7ff",
   "pbrMetallicRoughness": {
    "baseColorFactor": [
     0.904661,
     0.930111,
     1.0,
     0.92
    ],
    "metallicFactor": 0.0,
    "roughnessFactor": 1.0
   },
   "alphaMode": "BLEND"
  },
  {
   "name": "c-ffffff",
   "pbrMetallicRoughness": {
    "baseColorFactor": [
     1.0,
     1.0,
     1.0,
     0.92
    ],
    "metallicFactor": 0.0,
    "roughnessFactor": 1.0
   },
   "alphaMode": "BLEND"
  }
 ],
 "buffers": [
  {
   "uri": "data:application/octet-stream;base64,",
   "byteLength": 50112
  }
 ],
 "bufferViews": [
  {
   "buffer": 0,
   "byteOffset": 0,
   "byteLength": 4992,
   "target": 34962
  },
  {
   "buffer": 0,
   "byteOffset": 4992,
   "byteLength": 4992,
   "target": 34962
  },
  {
   "buffer": 0,
   "byteOffset": 9984,
   "byteLength": 1248,
   "target": 34963
  },
  {
   "buffer": 0,
   "byteOffset": 11232,
   "byteLength": 9984,
   "target": 34962
  },
  {
   "buffer": 0,
   "byteOffset": 21216,
   "byteLength": 9984,
   "target": 34962
  },
  {
   "buffer": 0,
   "byteOffset": 31200,
   "byteLength": 2496,
   "target": 34963
  },
  {
   "buffer": 0,
   "byteOffset": 33696,
   "byteLength": 7296,
   "target": 34962
  },
  {
   "buffer": 0,
   "byteOffset": 40992,
   "byteLength": 7296,
   "target": 34962
  },
  {
   "buffer": 0,
   "byteOffset": 48288,
   "byteLength": 1824,
   "target": 34963
  }
 ],
 "accessors": [
  {
   "bufferView": 0,
   "componentType": 5126,
   "count": 416,
   "type": "VEC3",
   "min": [
    -4.0,
    -3.0,
    -6.0
   ],
   "max": [
    1.0,
    3.0,
    0.0
   ]
  },
  {
   "bufferView": 1,
   "componentType": 5126,
   "count": 416,
   "type": "VEC3"
  },
  {
   "bufferView": 2,
   "componentType": 5123,
   "count": 624,
   "type": "SCALAR"
  },
  {
   "bufferView": 3,
   "componentType": 5126,
   "count": 832,
   "type": "VEC3",
   "min": [
    -5.0,
    -4.0,
    0.0
   ],
   "max": [
    3.0,
    4.0,
    7.0
   ]
  },
  {
   "bufferView": 4,
   "componentType": 5126,
   "count": 832,
   "type": "VEC3"
  },
  {
   "bufferView": 5,
   "componentType": 5123,
   "count": 1248,
   "type": "SCALAR"
  },
  {
   "bufferView": 6,
   "componentType": 5126,
   "count": 608,
   "type": "VEC3",
   "min": [
    -2.0,
    -4.0,
    -4.0
   ],
   "max": [
    5.0,
    4.0,
    3.0
   ]
  },
  {
   "bufferView": 7,
   "componentType": 5126,
   "count": 608,
   "type": "VEC3"
  },
  {
   "bufferView": 8,
   "componentType": 5123,
   "count": 912,
   "type": "SCALAR"
  }
 ]
}
