{
 "asset": {
  "version": "2.0",
  "generator": "Bozzard tools/gen_pagoda.py"
 },
 "scene": 0,
 "scenes": [
  {
   "nodes": [
    0
   ]
  }
 ],
 "nodes": [
  {
   "name": "cloud-3",
   "mesh": 0
  }
 ],
 "meshes": [
  {
   "name": "cloud-3",
   "primitives": [
    {
     "attributes": {
      "POSITION": 0,
      "NORMAL": 1
     },
     "indices": 2,
     "material": 0
    },
    {
     "attributes": {
      "POSITION": 3,
      "NORMAL": 4
     },
     "indices": 5,
     "material": 1
    },
    {
     "attributes": {
      "POSITION": 6,
      "NORMAL": 7
     },
     "indices": 8,
     "material": 2
    }
   ]
  }
 ],
 "materials": [
  {
   "name": "c-e8eefc",
   "pbrMetallicRoughness": {
    "baseColorFactor": [
     0.806952,
     0.854993,
     0.973445,
     0.92
    ],
    "metallicFactor": 0.0,
    "roughnessFactor": 1.0
   },
   "alphaMode": "BLEND"
  },
  {
   "name": "c-f4f7ff",
   "pbrMetallicRoughness": {
    "baseColorFactor": [
     0.904661,
     0.930111,
     1.0,
     0.92
    ],
    "metallicFactor": 0.0,
    "roughnessFactor": 1.0
   },
   "alphaMode": "BLEND"
  },
  {
   "name": "c-ffffff",
   "pbrMetallicRoughness": {
    "baseColorFactor": [
     1.0,
     1.0,
     1.0,
     0.92
    ],
    "metallicFactor": 0.0,
    "roughnessFactor": 1.0
   },
   "alphaMode": "BLEND"
  }
 ],
 "buffers": [
  {
   "uri": "data:application/octet-stream;base64,",
   "byteLength": 82728
  }
 ],
 "bufferViews": [
  {
   "buffer": 0,
   "byteOffset": 0,
   "byteLength": 18336,
   "target": 34962
  },
  {
   "buffer": 0,
   "byteOffset": 18336,
   "byteLength": 18336,
   "target": 34962
  },
  {
   "buffer": 0,
   "byteOffset": 36672,
   "byteLength": 4584,
   "target": 34963
  },
  {
   "buffer": 0,
   "byteOffset": 41256,
   "byteLength": 12192,
   "target": 34962
  },
  {
   "buffer": 0,
   "byteOffset": 53448,
   "byteLength": 12192,
   "target": 34962
  },
  {
   "buffer": 0,
   "byteOffset": 65640,
   "byteLength": 3048,
   "target": 34963
  },
  {
   "buffer": 0,
   "byteOffset": 68688,
   "byteLength": 6240,
   "target": 34962
  },
  {
   "buffer": 0,
   "byteOffset": 74928,
   "byteLength": 6240,
   "target": 34962
  },
  {
   "buffer": 0,
   "byteOffset": 81168,
   "byteLength": 1560,
   "target": 34963
  }
 ],
 "accessors": [
  {
   "bufferView": 0,
   "componentType": 5126,
   "count": 1528,
   "type": "VEC3",
   "min": [
    -7.0,
    -3.0,
    -3.0
   ],
   "max": [
    4.0,
    5.0,
    7.0
   ]
  },
  {
   "bufferView": 1,
   "componentType": 5126,
   "count": 1528,
   "type": "VEC3"
  },
  {
   "bufferView": 2,
   "componentType": 5123,
   "count": 2292,
   "type": "SCALAR"
  },
  {
   "bufferView": 3,
   "componentType": 5126,
   "count": 1016,
   "type": "VEC3",
   "min": [
    -12.0,
    -3.0,
    -10.0
   ],
   "max": [
    2.0,
    4.0,
    5.0
   ]
  },
  {
   "bufferView": 4,
   "componentType": 5126,
   "count": 1016,
   "type": "VEC3"
  },
  {
   "bufferView": 5,
   "componentType": 5123,
   "count": 1524,
   "type": "SCALAR"
  },
  {
   "bufferView": 6,
   "componentType": 5126,
   "count": 520,
   "type": "VEC3",
   "min": [
    -12.0,
    -3.0,
    -8.0
   ],
   "max": [
    -2.0,
    4.0,
    -1.0
   ]
  },
  {
   "bufferView": 7,
   "componentType": 5126,
   "count": 520,
   "type": "VEC3"
  },
  {
   "bufferView": 8,
   "componentType": 5123,
   "count": 780,
   "type": "SCALAR"
  }
 ]
}
