{
 "asset": {
  "version": "2.0",
  "generator": "Bozzard tools/gen_pagoda.py"
 },
 "scene": 0,
 "scenes": [
  {
   "nodes": [
    0
   ]
  }
 ],
 "nodes": [
  {
   "name": "cloud-4",
   "mesh": 0
  }
 ],
 "meshes": [
  {
   "name": "cloud-4",
   "primitives": [
    {
     "attributes": {
      "POSITION": 0,
      "NORMAL": 1
     },
     "indices": 2,
     "material": 0
    },
    {
     "attributes": {
      "POSITION": 3,
      "NORMAL": 4
     },
     "indices": 5,
     "material": 1
    },
    {
     "attributes": {
      "POSITION": 6,
      "NORMAL": 7
     },
     "indices": 8,
     "material": 2
    }
   ]
  }
 ],
 "materials": [
  {
   "name": "c-e8eefc",
   "pbrMetallicRoughness": {
    "baseColorFactor": [
     0.806952,
     0.854993,
     0.973445,
     0.92
    ],
    "metallicFactor": 0.0,
    "roughnessFactor": 1.0
   },
   "alphaMode": "BLEND"
  },
  {
   "name": "c-f4f7ff",
   "pbrMetallicRoughness": {
    "baseColorFactor": [
     0.904661,
     0.930111,
     1.0,
     0.92
    ],
    "metallicFactor": 0.0,
    "roughnessFactor": 1.0
   },
   "alphaMode": "BLEND"
  },
  {
   "name": "c-ffffff",
   "pbrMetallicRoughness": {
    "baseColorFactor": [
     1.0,
     1.0,
     1.0,
     0.92
    ],
    "metallicFactor": 0.0,
    "roughnessFactor": 1.0
   },
   "alphaMode": "BLEND"
  }
 ],
 "buffers": [
  {
   "uri": "data:application/octet-stream;base64,",
   "byteLength": 96552
  }
 ],
 "bufferViews": [
  {
   "buffer": 0,
   "byteOffset": 0,
   "byteLength": 2352,
   "target": 34962
  },
  {
   "buffer": 0,
   "byteOffset": 2352,
   "byteLength": 2352,
   "target": 34962
  },
  {
   "buffer": 0,
   "byteOffset": 4704,
   "byteLength": 588,
   "target": 34963
  },
  {
   "buffer": 0,
   "byteOffset": 5292,
   "byteLength": 26208,
   "target": 34962
  },
  {
   "buffer": 0,
   "byteOffset": 31500,
   "byteLength": 26208,
   "target": 34962
  },
  {
   "buffer": 0,
   "byteOffset": 57708,
   "byteLength": 6552,
   "target": 34963
  },
  {
   "buffer": 0,
   "byteOffset": 64260,
   "byteLength": 14352,
   "target": 34962
  },
  {
   "buffer": 0,
   "byteOffset": 78612,
   "byteLength": 14352,
   "target": 34962
  },
  {
   "buffer": 0,
   "byteOffset": 92964,
   "byteLength": 3588,
   "target": 34963
  }
 ],
 "accessors": [
  {
   "bufferView": 0,
   "componentType": 5126,
   "count": 196,
   "type": "VEC3",
   "min": [
    -4.0,
    -3.0,
    -3.0
   ],
   "max": [
    1.0,
    2.0,
    2.0
   ]
  },
  {
   "bufferView": 1,
   "componentType": 5126,
   "count": 196,
   "type": "VEC3"
  },
  {
   "bufferView": 2,
   "componentType": 5123,
   "count": 294,
   "type": "SCALAR"
  },
  {
   "bufferView": 3,
   "componentType": 5126,
   "count": 2184,
   "type": "VEC3",
   "min": [
    -16.0,
    -4.0,
    -8.0
   ],
   "max": [
    3.0,
    5.0,
    4.0
   ]
  },
  {
   "bufferView": 4,
   "componentType": 5126,
   "count": 2184,
   "type": "VEC3"
  },
  {
   "bufferView": 5,
   "componentType": 5123,
   "count": 3276,
   "type": "SCALAR"
  },
  {
   "bufferView": 6,
   "componentType": 5126,
   "count": 1196,
   "type": "VEC3",
   "min": [
    -17.0,
    -3.0,
    -12.0
   ],
   "max": [
    -4.0,
    4.0,
    3.0
   ]
  },
  {
   "bufferView": 7,
   "componentType": 5126,
   "count": 1196,
   "type": "VEC3"
  },
  {
   "bufferView": 8,
   "componentType": 5123,
   "count": 1794,
   "type": "SCALAR"
  }
 ]
}
