{
 "asset": {
  "version": "2.0",
  "generator": "Bozzard tools/gen_pagoda.py"
 },
 "scene": 0,
 "scenes": [
  {
   "nodes": [
    0
   ]
  }
 ],
 "nodes": [
  {
   "name": "cloud-0",
   "mesh": 0
  }
 ],
 "meshes": [
  {
   "name": "cloud-0",
   "primitives": [
    {
     "attributes": {
      "POSITION": 0,
      "NORMAL": 1
     },
     "indices": 2,
     "material": 0
    },
    {
     "attributes": {
      "POSITION": 3,
      "NORMAL": 4
     },
     "indices": 5,
     "material": 1
    }
   ]
  }
 ],
 "materials": [
  {
   "name": "c-e8eefc",
   "pbrMetallicRoughness": {
    "baseColorFactor": [
     0.806952,
     0.854993,
     0.973445,
     0.92
    ],
    "metallicFactor": 0.0,
    "roughnessFactor": 1.0
   },
   "alphaMode": "BLEND"
  },
  {
   "name": "c-f4f7ff",
   "pbrMetallicRoughness": {
    "baseColorFactor": [
     0.904661,
     0.930111,
     1.0,
     0.92
    ],
    "metallicFactor": 0.0,
    "roughnessFactor": 1.0
   },
   "alphaMode": "BLEND"
  }
 ],
 "buffers": [
  {
   "uri": "data:application/octet-stream;base64,",
   "byteLength": 36936
  }
 ],
 "bufferViews": [
  {
   "buffer": 0,
   "byteOffset": 0,
   "byteLength": 2064,
   "target": 34962
  },
  {
   "buffer": 0,
   "byteOffset": 2064,
   "byteLength": 2064,
   "target": 34962
  },
  {
   "buffer": 0,
   "byteOffset": 4128,
   "byteLength": 516,
   "target": 34963
  },
  {
   "buffer": 0,
   "byteOffset": 4644,
   "byteLength": 14352,
   "target": 34962
  },
  {
   "buffer": 0,
   "byteOffset": 18996,
   "byteLength": 14352,
   "target": 34962
  },
  {
   "buffer": 0,
   "byteOffset": 33348,
   "byteLength": 3588,
   "target": 34963
  }
 ],
 "accessors": [
  {
   "bufferView": 0,
   "componentType": 5126,
   "count": 172,
   "type": "VEC3",
   "min": [
    -3.0,
    -3.0,
    2.0
   ],
   "max": [
    3.0,
    4.0,
    4.0
   ]
  },
  {
   "bufferView": 1,
   "componentType": 5126,
   "count": 172,
   "type": "VEC3"
  },
  {
   "bufferView": 2,
   "componentType": 5123,
   "count": 258,
   "type": "SCALAR"
  },
  {
   "bufferView": 3,
   "componentType": 5126,
   "count": 1196,
   "type": "VEC3",
   "min": [
    -4.0,
    -3.0,
    -5.0
   ],
   "max": [
    5.0,
    5.0,
    4.0
   ]
  },
  {
   "bufferView": 4,
   "componentType": 5126,
   "count": 1196,
   "type": "VEC3"
  },
  {
   "bufferView": 5,
   "componentType": 5123,
   "count": 1794,
   "type": "SCALAR"
  }
 ]
}
