{
 "asset": {
  "version": "2.0",
  "generator": "Bozzard tools/gen_pagoda.py"
 },
 "scene": 0,
 "scenes": [
  {
   "nodes": [
    0
   ]
  }
 ],
 "nodes": [
  {
   "name": "cloud-5",
   "mesh": 0
  }
 ],
 "meshes": [
  {
   "name": "cloud-5",
   "primitives": [
    {
     "attributes": {
      "POSITION": 0,
      "NORMAL": 1
     },
     "indices": 2,
     "material": 0
    },
    {
     "attributes": {
      "POSITION": 3,
      "NORMAL": 4
     },
     "indices": 5,
     "material": 1
    },
    {
     "attributes": {
      "POSITION": 6,
      "NORMAL": 7
     },
     "indices": 8,
     "material": 2
    }
   ]
  }
 ],
 "materials": [
  {
   "name": "c-e8eefc",
   "pbrMetallicRoughness": {
    "baseColorFactor": [
     0.806952,
     0.854993,
     0.973445,
     0.92
    ],
    "metallicFactor": 0.0,
    "roughnessFactor": 1.0
   },
   "alphaMode": "BLEND"
  },
  {
   "name": "c-f4f7ff",
   "pbrMetallicRoughness": {
    "baseColorFactor": [
     0.904661,
     0.930111,
     1.0,
     0.92
    ],
    "metallicFactor": 0.0,
    "roughnessFactor": 1.0
   },
   "alphaMode": "BLEND"
  },
  {
   "name": "c-ffffff",
   "pbrMetallicRoughness": {
    "baseColorFactor": [
     1.0,
     1.0,
     1.0,
     0.92
    ],
    "metallicFactor": 0.0,
    "roughnessFactor": 1.0
   },
   "alphaMode": "BLEND"
  }
 ],
 "buffers": [
  {
   "uri": "data:application/octet-stream;base64,",
   "byteLength": 67176
  }
 ],
 "bufferViews": [
  {
   "buffer": 0,
   "byteOffset": 0,
   "byteLength": 8832,
   "target": 34962
  },
  {
   "buffer": 0,
   "byteOffset": 8832,
   "byteLength": 8832,
   "target": 34962
  },
  {
   "buffer": 0,
   "byteOffset": 17664,
   "byteLength": 2208,
   "target": 34963
  },
  {
   "buffer": 0,
   "byteOffset": 19872,
   "byteLength": 12240,
   "target": 34962
  },
  {
   "buffer": 0,
   "byteOffset": 32112,
   "byteLength": 12240,
   "target": 34962
  },
  {
   "buffer": 0,
   "byteOffset": 44352,
   "byteLength": 3060,
   "target": 34963
  },
  {
   "buffer": 0,
   "byteOffset": 47412,
   "byteLength": 8784,
   "target": 34962
  },
  {
   "buffer": 0,
   "byteOffset": 56196,
   "byteLength": 8784,
   "target": 34962
  },
  {
   "buffer": 0,
   "byteOffset": 64980,
   "byteLength": 2196,
   "target": 34963
  }
 ],
 "accessors": [
  {
   "bufferView": 0,
   "componentType": 5126,
   "count": 736,
   "type": "VEC3",
   "min": [
    -8.0,
    -5.0,
    -6.0
   ],
   "max": [
    2.0,
    2.0,
    5.0
   ]
  },
  {
   "bufferView": 1,
   "componentType": 5126,
   "count": 736,
   "type": "VEC3"
  },
  {
   "bufferView": 2,
   "componentType": 5123,
   "count": 1104,
   "type": "SCALAR"
  },
  {
   "bufferView": 3,
   "componentType": 5126,
   "count": 1020,
   "type": "VEC3",
   "min": [
    -5.0,
    -4.0,
    -7.0
   ],
   "max": [
    7.0,
    3.0,
    4.0
   ]
  },
  {
   "bufferView": 4,
   "componentType": 5126,
   "count": 1020,
   "type": "VEC3"
  },
  {
   "bufferView": 5,
   "componentType": 5123,
   "count": 1530,
   "type": "SCALAR"
  },
  {
   "bufferView": 6,
   "componentType": 5126,
   "count": 732,
   "type": "VEC3",
   "min": [
    -5.0,
    -6.0,
    -3.0
   ],
   "max": [
    2.0,
    4.0,
    6.0
   ]
  },
  {
   "bufferView": 7,
   "componentType": 5126,
   "count": 732,
   "type": "VEC3"
  },
  {
   "bufferView": 8,
   "componentType": 5123,
   "count": 1098,
   "type": "SCALAR"
  }
 ]
}
