{
 "asset": {
  "version": "2.0",
  "generator": "Bozzard tools/gen_pagoda.py"
 },
 "scene": 0,
 "scenes": [
  {
   "nodes": [
    0
   ]
  }
 ],
 "nodes": [
  {
   "name": "flower-lantern",
   "mesh": 0
  }
 ],
 "meshes": [
  {
   "name": "flower-lantern",
   "primitives": [
    {
     "attributes": {
      "POSITION": 0,
      "NORMAL": 1
     },
     "indices": 2,
     "material": 0
    }
   ]
  }
 ],
 "materials": [
  {
   "name": "c-ff6b57",
   "pbrMetallicRoughness": {
    "baseColorFactor": [
     1.0,
     0.147027,
     0.095307,
     1.0
    ],
    "metallicFactor": 0.0,
    "roughnessFactor": 1.0
   },
   "emissiveFactor": [
    1.0,
    0.147027,
    0.095307
   ],
   "extensions": {
    "KHR_materials_emissive_strength": {
     "emissiveStrength": 0.85
    }
   }
  }
 ],
 "buffers": [
  {
   "uri": "data:application/octet-stream;base64,",
   "byteLength": 648
  }
 ],
 "bufferViews": [
  {
   "buffer": 0,
   "byteOffset": 0,
   "byteLength": 288,
   "target": 34962
  },
  {
   "buffer": 0,
   "byteOffset": 288,
   "byteLength": 288,
   "target": 34962
  },
  {
   "buffer": 0,
   "byteOffset": 576,
   "byteLength": 72,
   "target": 34963
  }
 ],
 "accessors": [
  {
   "bufferView": 0,
   "componentType": 5126,
   "count": 24,
   "type": "VEC3",
   "min": [
    -0.5,
    -0.5,
    -0.5
   ],
   "max": [
    0.5,
    0.5,
    0.5
   ]
  },
  {
   "bufferView": 1,
   "componentType": 5126,
   "count": 24,
   "type": "VEC3"
  },
  {
   "bufferView": 2,
   "componentType": 5123,
   "count": 36,
   "type": "SCALAR"
  }
 ],
 "extensionsUsed": [
  "KHR_materials_emissive_strength"
 ]
}
