{
 "asset": {
  "version": "2.0",
  "generator": "Bozzard tools/gen_pagoda.py"
 },
 "scene": 0,
 "scenes": [
  {
   "nodes": [
    0
   ]
  }
 ],
 "nodes": [
  {
   "name": "garden",
   "mesh": 0
  }
 ],
 "meshes": [
  {
   "name": "garden",
   "primitives": [
    {
     "attributes": {
      "POSITION": 0,
      "NORMAL": 1
     },
     "indices": 2,
     "material": 0
    },
    {
     "attributes": {
      "POSITION": 3,
      "NORMAL": 4
     },
     "indices": 5,
     "material": 1
    },
    {
     "attributes": {
      "POSITION": 6,
      "NORMAL": 7
     },
     "indices": 8,
     "material": 2
    },
    {
     "attributes": {
      "POSITION": 9,
      "NORMAL": 10
     },
     "indices": 11,
     "material": 3
    },
    {
     "attributes": {
      "POSITION": 12,
      "NORMAL": 13
     },
     "indices": 14,
     "material": 4
    },
    {
     "attributes": {
      "POSITION": 15,
      "NORMAL": 16
     },
     "indices": 17,
     "material": 5
    },
    {
     "attributes": {
      "POSITION": 18,
      "NORMAL": 19
     },
     "indices": 20,
     "material": 6
    },
    {
     "attributes": {
      "POSITION": 21,
      "NORMAL": 22
     },
     "indices": 23,
     "material": 7
    },
    {
     "attributes": {
      "POSITION": 24,
      "NORMAL": 25
     },
     "indices": 26,
     "material": 8
    },
    {
     "attributes": {
      "POSITION": 27,
      "NORMAL": 28
     },
     "indices": 29,
     "material": 9
    },
    {
     "attributes": {
      "POSITION": 30,
      "NORMAL": 31
     },
     "indices": 32,
     "material": 10
    },
    {
     "attributes": {
      "POSITION": 33,
      "NORMAL": 34
     },
     "indices": 35,
     "material": 11
    },
    {
     "attributes": {
      "POSITION": 36,
      "NORMAL": 37
     },
     "indices": 38,
     "material": 12
    },
    {
     "attributes": {
      "POSITION": 39,
      "NORMAL": 40
     },
     "indices": 41,
     "material": 13
    },
    {
     "attributes": {
      "POSITION": 42,
      "NORMAL": 43
     },
     "indices": 44,
     "material": 14
    },
    {
     "attributes": {
      "POSITION": 45,
      "NORMAL": 46
     },
     "indices": 47,
     "material": 15
    },
    {
     "attributes": {
      "POSITION": 48,
      "NORMAL": 49
     },
     "indices": 50,
     "material": 16
    },
    {
     "attributes": {
      "POSITION": 51,
      "NORMAL": 52
     },
     "indices": 53,
     "material": 17
    },
    {
     "attributes": {
      "POSITION": 54,
      "NORMAL": 55
     },
     "indices": 56,
     "material": 18
    },
    {
     "attributes": {
      "POSITION": 57,
      "NORMAL": 58
     },
     "indices": 59,
     "material": 19
    },
    {
     "attributes": {
      "POSITION": 60,
      "NORMAL": 61
     },
     "indices": 62,
     "material": 20
    },
    {
     "attributes": {
      "POSITION": 63,
      "NORMAL": 64
     },
     "indices": 65,
     "material": 21
    },
    {
     "attributes": {
      "POSITION": 66,
      "NORMAL": 67
     },
     "indices": 68,
     "material": 22
    },
    {
     "attributes": {
      "POSITION": 69,
      "NORMAL": 70
     },
     "indices": 71,
     "material": 23
    },
    {
     "attributes": {
      "POSITION": 72,
      "NORMAL": 73
     },
     "indices": 74,
     "material": 24
    },
    {
     "attributes": {
      "POSITION": 75,
      "NORMAL": 76
     },
     "indices": 77,
     "material": 25
    },
    {
     "attributes": {
      "POSITION": 78,
      "NORMAL": 79
     },
     "indices": 80,
     "material": 26
    },
    {
     "attributes": {
      "POSITION": 81,
      "NORMAL": 82
     },
     "indices": 83,
     "material": 27
    },
    {
     "attributes": {
      "POSITION": 84,
      "NORMAL": 85
     },
     "indices": 86,
     "material": 28
    },
    {
     "attributes": {
      "POSITION": 87,
      "NORMAL": 88
     },
     "indices": 89,
     "material": 29
    },
    {
     "attributes": {
      "POSITION": 90,
      "NORMAL": 91
     },
     "indices": 92,
     "material": 30
    },
    {
     "attributes": {
      "POSITION": 93,
      "NORMAL": 94
     },
     "indices": 95,
     "material": 31
    },
    {
     "attributes": {
      "POSITION": 96,
      "NORMAL": 97
     },
     "indices": 98,
     "material": 32
    },
    {
     "attributes": {
      "POSITION": 99,
      "NORMAL": 100
     },
     "indices": 101,
     "material": 33
    },
    {
     "attributes": {
      "POSITION": 102,
      "NORMAL": 103
     },
     "indices": 104,
     "material": 34
    },
    {
     "attributes": {
      "POSITION": 105,
      "NORMAL": 106
     },
     "indices": 107,
     "material": 35
    },
    {
     "attributes": {
      "POSITION": 108,
      "NORMAL": 109
     },
     "indices": 110,
     "material": 36
    },
    {
     "attributes": {
      "POSITION": 111,
      "NORMAL": 112
     },
     "indices": 113,
     "material": 37
    },
    {
     "attributes": {
      "POSITION": 114,
      "NORMAL": 115
     },
     "indices": 116,
     "material": 38
    },
    {
     "attributes": {
      "POSITION": 117,
      "NORMAL": 118
     },
     "indices": 119,
     "material": 39
    },
    {
     "attributes": {
      "POSITION": 120,
      "NORMAL": 121
     },
     "indices": 122,
     "material": 40
    },
    {
     "attributes": {
      "POSITION": 123,
      "NORMAL": 124
     },
     "indices": 125,
     "material": 41
    }
   ]
  }
 ],
 "materials": [
  {
   "name": "c-2a6fa8",
   "pbrMetallicRoughness": {
    "baseColorFactor": [
     0.023153,
     0.158961,
     0.391572,
     1.0
    ],
    "metallicFactor": 0.0,
    "roughnessFactor": 1.0
   }
  },
  {
   "name": "c-2f7fbf",
   "pbrMetallicRoughness": {
    "baseColorFactor": [
     0.028426,
     0.212231,
     0.520996,
     1.0
    ],
    "metallicFactor": 0.0,
    "roughnessFactor": 1.0
   }
  },
  {
   "name": "c-356232",
   "pbrMetallicRoughness": {
    "baseColorFactor": [
     0.035601,
     0.122139,
     0.031896,
     1.0
    ],
    "metallicFactor": 0.0,
    "roughnessFactor": 1.0
   }
  },
  {
   "name": "c-3a90d0",
   "pbrMetallicRoughness": {
    "baseColorFactor": [
     0.042311,
     0.278894,
     0.630757,
     1.0
    ],
    "metallicFactor": 0.0,
    "roughnessFactor": 1.0
   }
  },
  {
   "name": "c-3b6f38",
   "pbrMetallicRoughness": {
    "baseColorFactor": [
     0.043735,
     0.158961,
     0.039546,
     1.0
    ],
    "metallicFactor": 0.0,
    "roughnessFactor": 1.0
   }
  },
  {
   "name": "c-458040",
   "pbrMetallicRoughness": {
    "baseColorFactor": [
     0.059511,
     0.215861,
     0.051269,
     1.0
    ],
    "metallicFactor": 0.0,
    "roughnessFactor": 1.0
   }
  },
  {
   "name": "c-4e3220",
   "pbrMetallicRoughness": {
    "baseColorFactor": [
     0.076185,
     0.031896,
     0.014444,
     1.0
    ],
    "metallicFactor": 0.0,
    "roughnessFactor": 1.0
   }
  },
  {
   "name": "c-4f8f4a",
   "pbrMetallicRoughness": {
    "baseColorFactor": [
     0.078187,
     0.274677,
     0.068478,
     1.0
    ],
    "metallicFactor": 0.0,
    "roughnessFactor": 1.0
   }
  },
  {
   "name": "c-5a3a26",
   "pbrMetallicRoughness": {
    "baseColorFactor": [
     0.102242,
     0.042311,
     0.019382,
     1.0
    ],
    "metallicFactor": 0.0,
    "roughnessFactor": 1.0
   }
  },
  {
   "name": "c-5aa055",
   "pbrMetallicRoughness": {
    "baseColorFactor": [
     0.102242,
     0.351533,
     0.090842,
     1.0
    ],
    "metallicFactor": 0.0,
    "roughnessFactor": 1.0
   }
  },
  {
   "name": "c-5d241d",
   "pbrMetallicRoughness": {
    "baseColorFactor": [
     0.109462,
     0.017642,
     0.012286,
     1.0
    ],
    "metallicFactor": 0.0,
    "roughnessFactor": 1.0
   }
  },
  {
   "name": "c-63ab5c",
   "pbrMetallicRoughness": {
    "baseColorFactor": [
     0.124772,
     0.40724,
     0.107023,
     1.0
    ],
    "metallicFactor": 0.0,
    "roughnessFactor": 1.0
   }
  },
  {
   "name": "c-6b2a21",
   "pbrMetallicRoughness": {
    "baseColorFactor": [
     0.147027,
     0.023153,
     0.015209,
     1.0
    ],
    "metallicFactor": 0.0,
    "roughnessFactor": 1.0
   }
  },
  {
   "name": "c-6b452e",
   "pbrMetallicRoughness": {
    "baseColorFactor": [
     0.147027,
     0.059511,
     0.027321,
     1.0
    ],
    "metallicFactor": 0.0,
    "roughnessFactor": 1.0
   }
  },
  {
   "name": "c-7f8794",
   "pbrMetallicRoughness": {
    "baseColorFactor": [
     0.212231,
     0.242281,
     0.296138,
     1.0
    ],
    "metallicFactor": 0.0,
    "roughnessFactor": 1.0
   }
  },
  {
   "name": "c-7fa65a",
   "pbrMetallicRoughness": {
    "baseColorFactor": [
     0.212231,
     0.381326,
     0.102242,
     1.0
    ],
    "metallicFactor": 0.0,
    "roughnessFactor": 1.0
   }
  },
  {
   "name": "c-7fd0f0",
   "pbrMetallicRoughness": {
    "baseColorFactor": [
     0.212231,
     0.630757,
     0.871367,
     1.0
    ],
    "metallicFactor": 0.0,
    "roughnessFactor": 1.0
   },
   "emissiveFactor": [
    0.212231,
    0.630757,
    0.871367
   ],
   "extensions": {
    "KHR_materials_emissive_strength": {
     "emissiveStrength": 0.85
    }
   }
  },
  {
   "name": "c-8a6a44",
   "pbrMetallicRoughness": {
    "baseColorFactor": [
     0.254152,
     0.144128,
     0.057805,
     1.0
    ],
    "metallicFactor": 0.0,
    "roughnessFactor": 1.0
   }
  },
  {
   "name": "c-8f97a6",
   "pbrMetallicRoughness": {
    "baseColorFactor": [
     0.274677,
     0.309469,
     0.381326,
     1.0
    ],
    "metallicFactor": 0.0,
    "roughnessFactor": 1.0
   }
  },
  {
   "name": "c-8fb86a",
   "pbrMetallicRoughness": {
    "baseColorFactor": [
     0.274677,
     0.47932,
     0.144128,
     1.0
    ],
    "metallicFactor": 0.0,
    "roughnessFactor": 1.0
   }
  },
  {
   "name": "c-9aa3b0",
   "pbrMetallicRoughness": {
    "baseColorFactor": [
     0.323143,
     0.366253,
     0.434154,
     1.0
    ],
    "metallicFactor": 0.0,
    "roughnessFactor": 1.0
   }
  },
  {
   "name": "c-9adcf7",
   "pbrMetallicRoughness": {
    "baseColorFactor": [
     0.323143,
     0.715694,
     0.930111,
     1.0
    ],
    "metallicFactor": 0.0,
    "roughnessFactor": 1.0
   },
   "emissiveFactor": [
    0.323143,
    0.715694,
    0.930111
   ],
   "extensions": {
    "KHR_materials_emissive_strength": {
     "emissiveStrength": 0.85
    }
   }
  },
  {
   "name": "c-9c7a52",
   "pbrMetallicRoughness": {
    "baseColorFactor": [
     0.332452,
     0.194618,
     0.084376,
     1.0
    ],
    "metallicFactor": 0.0,
    "roughnessFactor": 1.0
   }
  },
  {
   "name": "c-a8937b",
   "pbrMetallicRoughness": {
    "baseColorFactor": [
     0.391572,
     0.291771,
     0.198069,
     1.0
    ],
    "metallicFactor": 0.0,
    "roughnessFactor": 1.0
   }
  },
  {
   "name": "c-a8b1bd",
   "pbrMetallicRoughness": {
    "baseColorFactor": [
     0.391572,
     0.439657,
     0.508881,
     1.0
    ],
    "metallicFactor": 0.0,
    "roughnessFactor": 1.0
   }
  },
  {
   "name": "c-b0a694",
   "pbrMetallicRoughness": {
    "baseColorFactor": [
     0.434154,
     0.381326,
     0.296138,
     1.0
    ],
    "metallicFactor": 0.0,
    "roughnessFactor": 1.0
   }
  },
  {
   "name": "c-b9a48a",
   "pbrMetallicRoughness": {
    "baseColorFactor": [
     0.48515,
     0.371238,
     0.254152,
     1.0
    ],
    "metallicFactor": 0.0,
    "roughnessFactor": 1.0
   }
  },
  {
   "name": "c-bfb6a6",
   "pbrMetallicRoughness": {
    "baseColorFactor": [
     0.520996,
     0.467784,
     0.381326,
     1.0
    ],
    "metallicFactor": 0.0,
    "roughnessFactor": 1.0
   }
  },
  {
   "name": "c-c0392b",
   "pbrMetallicRoughness": {
    "baseColorFactor": [
     0.527115,
     0.040915,
     0.024158,
     1.0
    ],
    "metallicFactor": 0.0,
    "roughnessFactor": 1.0
   }
  },
  {
   "name": "c-c7b39a",
   "pbrMetallicRoughness": {
    "baseColorFactor": [
     0.571125,
     0.450786,
     0.323143,
     1.0
    ],
    "metallicFactor": 0.0,
    "roughnessFactor": 1.0
   }
  },
  {
   "name": "c-cbb58c",
   "pbrMetallicRoughness": {
    "baseColorFactor": [
     0.597202,
     0.462077,
     0.262251,
     1.0
    ],
    "metallicFactor": 0.0,
    "roughnessFactor": 1.0
   }
  },
  {
   "name": "c-cdc4b4",
   "pbrMetallicRoughness": {
    "baseColorFactor": [
     0.610496,
     0.552011,
     0.456411,
     1.0
    ],
    "metallicFactor": 0.0,
    "roughnessFactor": 1.0
   }
  },
  {
   "name": "c-d04a3a",
   "pbrMetallicRoughness": {
    "baseColorFactor": [
     0.630757,
     0.068478,
     0.042311,
     1.0
    ],
    "metallicFactor": 0.0,
    "roughnessFactor": 1.0
   }
  },
  {
   "name": "c-d8c49a",
   "pbrMetallicRoughness": {
    "baseColorFactor": [
     0.686685,
     0.552011,
     0.323143,
     1.0
    ],
    "metallicFactor": 0.0,
    "roughnessFactor": 1.0
   }
  },
  {
   "name": "c-e0ab35",
   "pbrMetallicRoughness": {
    "baseColorFactor": [
     0.745404,
     0.40724,
     0.035601,
     1.0
    ],
    "metallicFactor": 0.0,
    "roughnessFactor": 1.0
   },
   "emissiveFactor": [
    0.745404,
    0.40724,
    0.035601
   ],
   "extensions": {
    "KHR_materials_emissive_strength": {
     "emissiveStrength": 0.85
    }
   }
  },
  {
   "name": "c-e4d2ab",
   "pbrMetallicRoughness": {
    "baseColorFactor": [
     0.775822,
     0.64448,
     0.40724,
     1.0
    ],
    "metallicFactor": 0.0,
    "roughnessFactor": 1.0
   }
  },
  {
   "name": "c-f2503c",
   "pbrMetallicRoughness": {
    "baseColorFactor": [
     0.887923,
     0.08022,
     0.045186,
     1.0
    ],
    "metallicFactor": 0.0,
    "roughnessFactor": 1.0
   },
   "emissiveFactor": [
    0.887923,
    0.08022,
    0.045186
   ],
   "extensions": {
    "KHR_materials_emissive_strength": {
     "emissiveStrength": 0.85
    }
   }
  },
  {
   "name": "c-f2c14e",
   "pbrMetallicRoughness": {
    "baseColorFactor": [
     0.887923,
     0.533276,
     0.076185,
     1.0
    ],
    "metallicFactor": 0.0,
    "roughnessFactor": 1.0
   },
   "emissiveFactor": [
    0.887923,
    0.533276,
    0.076185
   ],
   "extensions": {
    "KHR_materials_emissive_strength": {
     "emissiveStrength": 0.85
    }
   }
  },
  {
   "name": "c-ff6b57",
   "pbrMetallicRoughness": {
    "baseColorFactor": [
     1.0,
     0.147027,
     0.095307,
     1.0
    ],
    "metallicFactor": 0.0,
    "roughnessFactor": 1.0
   },
   "emissiveFactor": [
    1.0,
    0.147027,
    0.095307
   ],
   "extensions": {
    "KHR_materials_emissive_strength": {
     "emissiveStrength": 0.85
    }
   }
  },
  {
   "name": "c-ff8a70",
   "pbrMetallicRoughness": {
    "baseColorFactor": [
     1.0,
     0.254152,
     0.162029,
     1.0
    ],
    "metallicFactor": 0.0,
    "roughnessFactor": 1.0
   },
   "emissiveFactor": [
    1.0,
    0.254152,
    0.162029
   ],
   "extensions": {
    "KHR_materials_emissive_strength": {
     "emissiveStrength": 0.85
    }
   }
  },
  {
   "name": "c-ffe08a",
   "pbrMetallicRoughness": {
    "baseColorFactor": [
     1.0,
     0.745404,
     0.254152,
     1.0
    ],
    "metallicFactor": 0.0,
    "roughnessFactor": 1.0
   },
   "emissiveFactor": [
    1.0,
    0.745404,
    0.254152
   ],
   "extensions": {
    "KHR_materials_emissive_strength": {
     "emissiveStrength": 0.85
    }
   }
  },
  {
   "name": "c-fff0b5",
   "pbrMetallicRoughness": {
    "baseColorFactor": [
     1.0,
     0.871367,
     0.462077,
     1.0
    ],
    "metallicFactor": 0.0,
    "roughnessFactor": 1.0
   },
   "emissiveFactor": [
    1.0,
    0.871367,
    0.462077
   ],
   "extensions": {
    "KHR_materials_emissive_strength": {
     "emissiveStrength": 0.85
    }
   }
  }
 ],
 "buffers": [
  {
   "uri": "garden.bin",
   "byteLength": 4097088
  }
 ],
 "bufferViews": [
  {
   "buffer": 0,
   "byteOffset": 0,
   "byteLength": 3744,
   "target": 34962
  },
  {
   "buffer": 0,
   "byteOffset": 3744,
   "byteLength": 3744,
   "target": 34962
  },
  {
   "buffer": 0,
   "byteOffset": 7488,
   "byteLength": 936,
   "target": 34963
  },
  {
   "buffer": 0,
   "byteOffset": 8424,
   "byteLength": 4368,
   "target": 34962
  },
  {
   "buffer": 0,
   "byteOffset": 12792,
   "byteLength": 4368,
   "target": 34962
  },
  {
   "buffer": 0,
   "byteOffset": 17160,
   "byteLength": 1092,
   "target": 34963
  },
  {
   "buffer": 0,
   "byteOffset": 18252,
   "byteLength": 116592,
   "target": 34962
  },
  {
   "buffer": 0,
   "byteOffset": 134844,
   "byteLength": 116592,
   "target": 34962
  },
  {
   "buffer": 0,
   "byteOffset": 251436,
   "byteLength": 29148,
   "target": 34963
  },
  {
   "buffer": 0,
   "byteOffset": 280584,
   "byteLength": 3792,
   "target": 34962
  },
  {
   "buffer": 0,
   "byteOffset": 284376,
   "byteLength": 3792,
   "target": 34962
  },
  {
   "buffer": 0,
   "byteOffset": 288168,
   "byteLength": 948,
   "target": 34963
  },
  {
   "buffer": 0,
   "byteOffset": 289116,
   "byteLength": 119232,
   "target": 34962
  },
  {
   "buffer": 0,
   "byteOffset": 408348,
   "byteLength": 119232,
   "target": 34962
  },
  {
   "buffer": 0,
   "byteOffset": 527580,
   "byteLength": 29808,
   "target": 34963
  },
  {
   "buffer": 0,
   "byteOffset": 557388,
   "byteLength": 272688,
   "target": 34962
  },
  {
   "buffer": 0,
   "byteOffset": 830076,
   "byteLength": 272688,
   "target": 34962
  },
  {
   "buffer": 0,
   "byteOffset": 1102764,
   "byteLength": 68172,
   "target": 34963
  },
  {
   "buffer": 0,
   "byteOffset": 1170936,
   "byteLength": 3456,
   "target": 34962
  },
  {
   "buffer": 0,
   "byteOffset": 1174392,
   "byteLength": 3456,
   "target": 34962
  },
  {
   "buffer": 0,
   "byteOffset": 1177848,
   "byteLength": 864,
   "target": 34963
  },
  {
   "buffer": 0,
   "byteOffset": 1178712,
   "byteLength": 260928,
   "target": 34962
  },
  {
   "buffer": 0,
   "byteOffset": 1439640,
   "byteLength": 260928,
   "target": 34962
  },
  {
   "buffer": 0,
   "byteOffset": 1700568,
   "byteLength": 65232,
   "target": 34963
  },
  {
   "buffer": 0,
   "byteOffset": 1765800,
   "byteLength": 2016,
   "target": 34962
  },
  {
   "buffer": 0,
   "byteOffset": 1767816,
   "byteLength": 2016,
   "target": 34962
  },
  {
   "buffer": 0,
   "byteOffset": 1769832,
   "byteLength": 504,
   "target": 34963
  },
  {
   "buffer": 0,
   "byteOffset": 1770336,
   "byteLength": 267552,
   "target": 34962
  },
  {
   "buffer": 0,
   "byteOffset": 2037888,
   "byteLength": 267552,
   "target": 34962
  },
  {
   "buffer": 0,
   "byteOffset": 2305440,
   "byteLength": 66888,
   "target": 34963
  },
  {
   "buffer": 0,
   "byteOffset": 2372328,
   "byteLength": 14784,
   "target": 34962
  },
  {
   "buffer": 0,
   "byteOffset": 2387112,
   "byteLength": 14784,
   "target": 34962
  },
  {
   "buffer": 0,
   "byteOffset": 2401896,
   "byteLength": 3696,
   "target": 34963
  },
  {
   "buffer": 0,
   "byteOffset": 2405592,
   "byteLength": 263760,
   "target": 34962
  },
  {
   "buffer": 0,
   "byteOffset": 2669352,
   "byteLength": 263760,
   "target": 34962
  },
  {
   "buffer": 0,
   "byteOffset": 2933112,
   "byteLength": 65940,
   "target": 34963
  },
  {
   "buffer": 0,
   "byteOffset": 2999052,
   "byteLength": 1344,
   "target": 34962
  },
  {
   "buffer": 0,
   "byteOffset": 3000396,
   "byteLength": 1344,
   "target": 34962
  },
  {
   "buffer": 0,
   "byteOffset": 3001740,
   "byteLength": 336,
   "target": 34963
  },
  {
   "buffer": 0,
   "byteOffset": 3002076,
   "byteLength": 3360,
   "target": 34962
  },
  {
   "buffer": 0,
   "byteOffset": 3005436,
   "byteLength": 3360,
   "target": 34962
  },
  {
   "buffer": 0,
   "byteOffset": 3008796,
   "byteLength": 840,
   "target": 34963
  },
  {
   "buffer": 0,
   "byteOffset": 3009636,
   "byteLength": 12864,
   "target": 34962
  },
  {
   "buffer": 0,
   "byteOffset": 3022500,
   "byteLength": 12864,
   "target": 34962
  },
  {
   "buffer": 0,
   "byteOffset": 3035364,
   "byteLength": 3216,
   "target": 34963
  },
  {
   "buffer": 0,
   "byteOffset": 3038580,
   "byteLength": 103728,
   "target": 34962
  },
  {
   "buffer": 0,
   "byteOffset": 3142308,
   "byteLength": 103728,
   "target": 34962
  },
  {
   "buffer": 0,
   "byteOffset": 3246036,
   "byteLength": 25932,
   "target": 34963
  },
  {
   "buffer": 0,
   "byteOffset": 3271968,
   "byteLength": 768,
   "target": 34962
  },
  {
   "buffer": 0,
   "byteOffset": 3272736,
   "byteLength": 768,
   "target": 34962
  },
  {
   "buffer": 0,
   "byteOffset": 3273504,
   "byteLength": 192,
   "target": 34963
  },
  {
   "buffer": 0,
   "byteOffset": 3273696,
   "byteLength": 960,
   "target": 34962
  },
  {
   "buffer": 0,
   "byteOffset": 3274656,
   "byteLength": 960,
   "target": 34962
  },
  {
   "buffer": 0,
   "byteOffset": 3275616,
   "byteLength": 240,
   "target": 34963
  },
  {
   "buffer": 0,
   "byteOffset": 3275856,
   "byteLength": 27264,
   "target": 34962
  },
  {
   "buffer": 0,
   "byteOffset": 3303120,
   "byteLength": 27264,
   "target": 34962
  },
  {
   "buffer": 0,
   "byteOffset": 3330384,
   "byteLength": 6816,
   "target": 34963
  },
  {
   "buffer": 0,
   "byteOffset": 3337200,
   "byteLength": 104208,
   "target": 34962
  },
  {
   "buffer": 0,
   "byteOffset": 3441408,
   "byteLength": 104208,
   "target": 34962
  },
  {
   "buffer": 0,
   "byteOffset": 3545616,
   "byteLength": 26052,
   "target": 34963
  },
  {
   "buffer": 0,
   "byteOffset": 3571668,
   "byteLength": 24144,
   "target": 34962
  },
  {
   "buffer": 0,
   "byteOffset": 3595812,
   "byteLength": 24144,
   "target": 34962
  },
  {
   "buffer": 0,
   "byteOffset": 3619956,
   "byteLength": 6036,
   "target": 34963
  },
  {
   "buffer": 0,
   "byteOffset": 3625992,
   "byteLength": 864,
   "target": 34962
  },
  {
   "buffer": 0,
   "byteOffset": 3626856,
   "byteLength": 864,
   "target": 34962
  },
  {
   "buffer": 0,
   "byteOffset": 3627720,
   "byteLength": 216,
   "target": 34963
  },
  {
   "buffer": 0,
   "byteOffset": 3627936,
   "byteLength": 1920,
   "target": 34962
  },
  {
   "buffer": 0,
   "byteOffset": 3629856,
   "byteLength": 1920,
   "target": 34962
  },
  {
   "buffer": 0,
   "byteOffset": 3631776,
   "byteLength": 480,
   "target": 34963
  },
  {
   "buffer": 0,
   "byteOffset": 3632256,
   "byteLength": 24864,
   "target": 34962
  },
  {
   "buffer": 0,
   "byteOffset": 3657120,
   "byteLength": 24864,
   "target": 34962
  },
  {
   "buffer": 0,
   "byteOffset": 3681984,
   "byteLength": 6216,
   "target": 34963
  },
  {
   "buffer": 0,
   "byteOffset": 3688200,
   "byteLength": 19776,
   "target": 34962
  },
  {
   "buffer": 0,
   "byteOffset": 3707976,
   "byteLength": 19776,
   "target": 34962
  },
  {
   "buffer": 0,
   "byteOffset": 3727752,
   "byteLength": 4944,
   "target": 34963
  },
  {
   "buffer": 0,
   "byteOffset": 3732696,
   "byteLength": 17472,
   "target": 34962
  },
  {
   "buffer": 0,
   "byteOffset": 3750168,
   "byteLength": 17472,
   "target": 34962
  },
  {
   "buffer": 0,
   "byteOffset": 3767640,
   "byteLength": 4368,
   "target": 34963
  },
  {
   "buffer": 0,
   "byteOffset": 3772008,
   "byteLength": 25536,
   "target": 34962
  },
  {
   "buffer": 0,
   "byteOffset": 3797544,
   "byteLength": 25536,
   "target": 34962
  },
  {
   "buffer": 0,
   "byteOffset": 3823080,
   "byteLength": 6384,
   "target": 34963
  },
  {
   "buffer": 0,
   "byteOffset": 3829464,
   "byteLength": 17712,
   "target": 34962
  },
  {
   "buffer": 0,
   "byteOffset": 3847176,
   "byteLength": 17712,
   "target": 34962
  },
  {
   "buffer": 0,
   "byteOffset": 3864888,
   "byteLength": 4428,
   "target": 34963
  },
  {
   "buffer": 0,
   "byteOffset": 3869316,
   "byteLength": 8448,
   "target": 34962
  },
  {
   "buffer": 0,
   "byteOffset": 3877764,
   "byteLength": 8448,
   "target": 34962
  },
  {
   "buffer": 0,
   "byteOffset": 3886212,
   "byteLength": 2112,
   "target": 34963
  },
  {
   "buffer": 0,
   "byteOffset": 3888324,
   "byteLength": 26544,
   "target": 34962
  },
  {
   "buffer": 0,
   "byteOffset": 3914868,
   "byteLength": 26544,
   "target": 34962
  },
  {
   "buffer": 0,
   "byteOffset": 3941412,
   "byteLength": 6636,
   "target": 34963
  },
  {
   "buffer": 0,
   "byteOffset": 3948048,
   "byteLength": 240,
   "target": 34962
  },
  {
   "buffer": 0,
   "byteOffset": 3948288,
   "byteLength": 240,
   "target": 34962
  },
  {
   "buffer": 0,
   "byteOffset": 3948528,
   "byteLength": 60,
   "target": 34963
  },
  {
   "buffer": 0,
   "byteOffset": 3948588,
   "byteLength": 16896,
   "target": 34962
  },
  {
   "buffer": 0,
   "byteOffset": 3965484,
   "byteLength": 16896,
   "target": 34962
  },
  {
   "buffer": 0,
   "byteOffset": 3982380,
   "byteLength": 4224,
   "target": 34963
  },
  {
   "buffer": 0,
   "byteOffset": 3986604,
   "byteLength": 8688,
   "target": 34962
  },
  {
   "buffer": 0,
   "byteOffset": 3995292,
   "byteLength": 8688,
   "target": 34962
  },
  {
   "buffer": 0,
   "byteOffset": 4003980,
   "byteLength": 2172,
   "target": 34963
  },
  {
   "buffer": 0,
   "byteOffset": 4006152,
   "byteLength": 240,
   "target": 34962
  },
  {
   "buffer": 0,
   "byteOffset": 4006392,
   "byteLength": 240,
   "target": 34962
  },
  {
   "buffer": 0,
   "byteOffset": 4006632,
   "byteLength": 60,
   "target": 34963
  },
  {
   "buffer": 0,
   "byteOffset": 4006692,
   "byteLength": 240,
   "target": 34962
  },
  {
   "buffer": 0,
   "byteOffset": 4006932,
   "byteLength": 240,
   "target": 34962
  },
  {
   "buffer": 0,
   "byteOffset": 4007172,
   "byteLength": 60,
   "target": 34963
  },
  {
   "buffer": 0,
   "byteOffset": 4007232,
   "byteLength": 96,
   "target": 34962
  },
  {
   "buffer": 0,
   "byteOffset": 4007328,
   "byteLength": 96,
   "target": 34962
  },
  {
   "buffer": 0,
   "byteOffset": 4007424,
   "byteLength": 24,
   "target": 34963
  },
  {
   "buffer": 0,
   "byteOffset": 4007448,
   "byteLength": 2304,
   "target": 34962
  },
  {
   "buffer": 0,
   "byteOffset": 4009752,
   "byteLength": 2304,
   "target": 34962
  },
  {
   "buffer": 0,
   "byteOffset": 4012056,
   "byteLength": 576,
   "target": 34963
  },
  {
   "buffer": 0,
   "byteOffset": 4012632,
   "byteLength": 240,
   "target": 34962
  },
  {
   "buffer": 0,
   "byteOffset": 4012872,
   "byteLength": 240,
   "target": 34962
  },
  {
   "buffer": 0,
   "byteOffset": 4013112,
   "byteLength": 60,
   "target": 34963
  },
  {
   "buffer": 0,
   "byteOffset": 4013172,
   "byteLength": 9984,
   "target": 34962
  },
  {
   "buffer": 0,
   "byteOffset": 4023156,
   "byteLength": 9984,
   "target": 34962
  },
  {
   "buffer": 0,
   "byteOffset": 4033140,
   "byteLength": 2496,
   "target": 34963
  },
  {
   "buffer": 0,
   "byteOffset": 4035636,
   "byteLength": 13392,
   "target": 34962
  },
  {
   "buffer": 0,
   "byteOffset": 4049028,
   "byteLength": 13392,
   "target": 34962
  },
  {
   "buffer": 0,
   "byteOffset": 4062420,
   "byteLength": 3348,
   "target": 34963
  },
  {
   "buffer": 0,
   "byteOffset": 4065768,
   "byteLength": 5760,
   "target": 34962
  },
  {
   "buffer": 0,
   "byteOffset": 4071528,
   "byteLength": 5760,
   "target": 34962
  },
  {
   "buffer": 0,
   "byteOffset": 4077288,
   "byteLength": 1440,
   "target": 34963
  },
  {
   "buffer": 0,
   "byteOffset": 4078728,
   "byteLength": 8160,
   "target": 34962
  },
  {
   "buffer": 0,
   "byteOffset": 4086888,
   "byteLength": 8160,
   "target": 34962
  },
  {
   "buffer": 0,
   "byteOffset": 4095048,
   "byteLength": 2040,
   "target": 34963
  }
 ],
 "accessors": [
  {
   "bufferView": 0,
   "componentType": 5126,
   "count": 312,
   "type": "VEC3",
   "min": [
    15.0,
    1.0,
    12.0
   ],
   "max": [
    36.0,
    1.0,
    29.0
   ]
  },
  {
   "bufferView": 1,
   "componentType": 5126,
   "count": 312,
   "type": "VEC3"
  },
  {
   "bufferView": 2,
   "componentType": 5123,
   "count": 468,
   "type": "SCALAR"
  },
  {
   "bufferView": 3,
   "componentType": 5126,
   "count": 364,
   "type": "VEC3",
   "min": [
    15.0,
    1.0,
    11.0
   ],
   "max": [
    38.0,
    1.0,
    28.0
   ]
  },
  {
   "bufferView": 4,
   "componentType": 5126,
   "count": 364,
   "type": "VEC3"
  },
  {
   "bufferView": 5,
   "componentType": 5123,
   "count": 546,
   "type": "SCALAR"
  },
  {
   "bufferView": 6,
   "componentType": 5126,
   "count": 9716,
   "type": "VEC3",
   "min": [
    -78.0,
    -3.0,
    -78.0
   ],
   "max": [
    79.0,
    12.0,
    79.0
   ]
  },
  {
   "bufferView": 7,
   "componentType": 5126,
   "count": 9716,
   "type": "VEC3"
  },
  {
   "bufferView": 8,
   "componentType": 5123,
   "count": 14574,
   "type": "SCALAR"
  },
  {
   "bufferView": 9,
   "componentType": 5126,
   "count": 316,
   "type": "VEC3",
   "min": [
    16.0,
    1.0,
    12.0
   ],
   "max": [
    37.0,
    1.0,
    29.0
   ]
  },
  {
   "bufferView": 10,
   "componentType": 5126,
   "count": 316,
   "type": "VEC3"
  },
  {
   "bufferView": 11,
   "componentType": 5123,
   "count": 474,
   "type": "SCALAR"
  },
  {
   "bufferView": 12,
   "componentType": 5126,
   "count": 9936,
   "type": "VEC3",
   "min": [
    -78.0,
    -3.0,
    -78.0
   ],
   "max": [
    79.0,
    12.0,
    79.0
   ]
  },
  {
   "bufferView": 13,
   "componentType": 5126,
   "count": 9936,
   "type": "VEC3"
  },
  {
   "bufferView": 14,
   "componentType": 5123,
   "count": 14904,
   "type": "SCALAR"
  },
  {
   "bufferView": 15,
   "componentType": 5126,
   "count": 22724,
   "type": "VEC3",
   "min": [
    -78.0,
    -3.0,
    -78.0
   ],
   "max": [
    79.0,
    11.0,
    79.0
   ]
  },
  {
   "bufferView": 16,
   "componentType": 5126,
   "count": 22724,
   "type": "VEC3"
  },
  {
   "bufferView": 17,
   "componentType": 5123,
   "count": 34086,
   "type": "SCALAR"
  },
  {
   "bufferView": 18,
   "componentType": 5126,
   "count": 288,
   "type": "VEC3",
   "min": [
    -16.0,
    1.0,
    -16.0
   ],
   "max": [
    18.0,
    5.0,
    18.0
   ]
  },
  {
   "bufferView": 19,
   "componentType": 5126,
   "count": 288,
   "type": "VEC3"
  },
  {
   "bufferView": 20,
   "componentType": 5123,
   "count": 432,
   "type": "SCALAR"
  },
  {
   "bufferView": 21,
   "componentType": 5126,
   "count": 21744,
   "type": "VEC3",
   "min": [
    -78.0,
    -3.0,
    -78.0
   ],
   "max": [
    79.0,
    12.0,
    79.0
   ]
  },
  {
   "bufferView": 22,
   "componentType": 5126,
   "count": 21744,
   "type": "VEC3"
  },
  {
   "bufferView": 23,
   "componentType": 5123,
   "count": 32616,
   "type": "SCALAR"
  },
  {
   "bufferView": 24,
   "componentType": 5126,
   "count": 168,
   "type": "VEC3",
   "min": [
    -14.0,
    1.0,
    -14.0
   ],
   "max": [
    18.0,
    5.0,
    18.0
   ]
  },
  {
   "bufferView": 25,
   "componentType": 5126,
   "count": 168,
   "type": "VEC3"
  },
  {
   "bufferView": 26,
   "componentType": 5123,
   "count": 252,
   "type": "SCALAR"
  },
  {
   "bufferView": 27,
   "componentType": 5126,
   "count": 22296,
   "type": "VEC3",
   "min": [
    -78.0,
    -3.0,
    -78.0
   ],
   "max": [
    79.0,
    13.0,
    79.0
   ]
  },
  {
   "bufferView": 28,
   "componentType": 5126,
   "count": 22296,
   "type": "VEC3"
  },
  {
   "bufferView": 29,
   "componentType": 5123,
   "count": 33444,
   "type": "SCALAR"
  },
  {
   "bufferView": 30,
   "componentType": 5126,
   "count": 1232,
   "type": "VEC3",
   "min": [
    -7.0,
    5.0,
    -75.0
   ],
   "max": [
    21.0,
    14.0,
    25.0
   ]
  },
  {
   "bufferView": 31,
   "componentType": 5126,
   "count": 1232,
   "type": "VEC3"
  },
  {
   "bufferView": 32,
   "componentType": 5123,
   "count": 1848,
   "type": "SCALAR"
  },
  {
   "bufferView": 33,
   "componentType": 5126,
   "count": 21980,
   "type": "VEC3",
   "min": [
    -78.0,
    -3.0,
    -78.0
   ],
   "max": [
    79.0,
    12.0,
    79.0
   ]
  },
  {
   "bufferView": 34,
   "componentType": 5126,
   "count": 21980,
   "type": "VEC3"
  },
  {
   "bufferView": 35,
   "componentType": 5123,
   "count": 32970,
   "type": "SCALAR"
  },
  {
   "bufferView": 36,
   "componentType": 5126,
   "count": 112,
   "type": "VEC3",
   "min": [
    14.0,
    5.0,
    20.0
   ],
   "max": [
    21.0,
    7.0,
    25.0
   ]
  },
  {
   "bufferView": 37,
   "componentType": 5126,
   "count": 112,
   "type": "VEC3"
  },
  {
   "bufferView": 38,
   "componentType": 5123,
   "count": 168,
   "type": "SCALAR"
  },
  {
   "bufferView": 39,
   "componentType": 5126,
   "count": 280,
   "type": "VEC3",
   "min": [
    -16.0,
    1.0,
    -16.0
   ],
   "max": [
    18.0,
    5.0,
    18.0
   ]
  },
  {
   "bufferView": 40,
   "componentType": 5126,
   "count": 280,
   "type": "VEC3"
  },
  {
   "bufferView": 41,
   "componentType": 5123,
   "count": 420,
   "type": "SCALAR"
  },
  {
   "bufferView": 42,
   "componentType": 5126,
   "count": 1072,
   "type": "VEC3",
   "min": [
    -17.0,
    1.0,
    -72.0
   ],
   "max": [
    19.0,
    10.0,
    32.0
   ]
  },
  {
   "bufferView": 43,
   "componentType": 5126,
   "count": 1072,
   "type": "VEC3"
  },
  {
   "bufferView": 44,
   "componentType": 5123,
   "count": 1608,
   "type": "SCALAR"
  },
  {
   "bufferView": 45,
   "componentType": 5126,
   "count": 8644,
   "type": "VEC3",
   "min": [
    -78.0,
    -3.0,
    -78.0
   ],
   "max": [
    79.0,
    12.0,
    79.0
   ]
  },
  {
   "bufferView": 46,
   "componentType": 5126,
   "count": 8644,
   "type": "VEC3"
  },
  {
   "bufferView": 47,
   "componentType": 5123,
   "count": 12966,
   "type": "SCALAR"
  },
  {
   "bufferView": 48,
   "componentType": 5126,
   "count": 64,
   "type": "VEC3",
   "min": [
    16.0,
    1.0,
    13.0
   ],
   "max": [
    35.0,
    1.0,
    25.0
   ]
  },
  {
   "bufferView": 49,
   "componentType": 5126,
   "count": 64,
   "type": "VEC3"
  },
  {
   "bufferView": 50,
   "componentType": 5123,
   "count": 96,
   "type": "SCALAR"
  },
  {
   "bufferView": 51,
   "componentType": 5126,
   "count": 80,
   "type": "VEC3",
   "min": [
    -14.0,
    7.0,
    -16.0
   ],
   "max": [
    9.0,
    8.0,
    9.0
   ]
  },
  {
   "bufferView": 52,
   "componentType": 5126,
   "count": 80,
   "type": "VEC3"
  },
  {
   "bufferView": 53,
   "componentType": 5123,
   "count": 120,
   "type": "SCALAR"
  },
  {
   "bufferView": 54,
   "componentType": 5126,
   "count": 2272,
   "type": "VEC3",
   "min": [
    -21.0,
    0.0,
    -70.0
   ],
   "max": [
    33.0,
    10.0,
    27.0
   ]
  },
  {
   "bufferView": 55,
   "componentType": 5126,
   "count": 2272,
   "type": "VEC3"
  },
  {
   "bufferView": 56,
   "componentType": 5123,
   "count": 3408,
   "type": "SCALAR"
  },
  {
   "bufferView": 57,
   "componentType": 5126,
   "count": 8684,
   "type": "VEC3",
   "min": [
    -78.0,
    -3.0,
    -78.0
   ],
   "max": [
    79.0,
    12.0,
    79.0
   ]
  },
  {
   "bufferView": 58,
   "componentType": 5126,
   "count": 8684,
   "type": "VEC3"
  },
  {
   "bufferView": 59,
   "componentType": 5123,
   "count": 13026,
   "type": "SCALAR"
  },
  {
   "bufferView": 60,
   "componentType": 5126,
   "count": 2012,
   "type": "VEC3",
   "min": [
    -22.0,
    1.0,
    -51.0
   ],
   "max": [
    18.0,
    8.0,
    30.0
   ]
  },
  {
   "bufferView": 61,
   "componentType": 5126,
   "count": 2012,
   "type": "VEC3"
  },
  {
   "bufferView": 62,
   "componentType": 5123,
   "count": 3018,
   "type": "SCALAR"
  },
  {
   "bufferView": 63,
   "componentType": 5126,
   "count": 72,
   "type": "VEC3",
   "min": [
    17.0,
    1.0,
    13.0
   ],
   "max": [
    35.0,
    1.0,
    28.0
   ]
  },
  {
   "bufferView": 64,
   "componentType": 5126,
   "count": 72,
   "type": "VEC3"
  },
  {
   "bufferView": 65,
   "componentType": 5123,
   "count": 108,
   "type": "SCALAR"
  },
  {
   "bufferView": 66,
   "componentType": 5126,
   "count": 160,
   "type": "VEC3",
   "min": [
    -16.0,
    7.0,
    -14.0
   ],
   "max": [
    18.0,
    8.0,
    18.0
   ]
  },
  {
   "bufferView": 67,
   "componentType": 5126,
   "count": 160,
   "type": "VEC3"
  },
  {
   "bufferView": 68,
   "componentType": 5123,
   "count": 240,
   "type": "SCALAR"
  },
  {
   "bufferView": 69,
   "componentType": 5126,
   "count": 2072,
   "type": "VEC3",
   "min": [
    -78.0,
    -3.0,
    -78.0
   ],
   "max": [
    79.0,
    11.0,
    79.0
   ]
  },
  {
   "bufferView": 70,
   "componentType": 5126,
   "count": 2072,
   "type": "VEC3"
  },
  {
   "bufferView": 71,
   "componentType": 5123,
   "count": 3108,
   "type": "SCALAR"
  },
  {
   "bufferView": 72,
   "componentType": 5126,
   "count": 1648,
   "type": "VEC3",
   "min": [
    -20.0,
    0.0,
    -65.0
   ],
   "max": [
    19.0,
    13.0,
    18.0
   ]
  },
  {
   "bufferView": 73,
   "componentType": 5126,
   "count": 1648,
   "type": "VEC3"
  },
  {
   "bufferView": 74,
   "componentType": 5123,
   "count": 2472,
   "type": "SCALAR"
  },
  {
   "bufferView": 75,
   "componentType": 5126,
   "count": 1456,
   "type": "VEC3",
   "min": [
    -78.0,
    -4.0,
    -78.0
   ],
   "max": [
    79.0,
    8.0,
    79.0
   ]
  },
  {
   "bufferView": 76,
   "componentType": 5126,
   "count": 1456,
   "type": "VEC3"
  },
  {
   "bufferView": 77,
   "componentType": 5123,
   "count": 2184,
   "type": "SCALAR"
  },
  {
   "bufferView": 78,
   "componentType": 5126,
   "count": 2128,
   "type": "VEC3",
   "min": [
    -78.0,
    -3.0,
    -78.0
   ],
   "max": [
    79.0,
    9.0,
    79.0
   ]
  },
  {
   "bufferView": 79,
   "componentType": 5126,
   "count": 2128,
   "type": "VEC3"
  },
  {
   "bufferView": 80,
   "componentType": 5123,
   "count": 3192,
   "type": "SCALAR"
  },
  {
   "bufferView": 81,
   "componentType": 5126,
   "count": 1476,
   "type": "VEC3",
   "min": [
    -78.0,
    -4.0,
    -78.0
   ],
   "max": [
    79.0,
    8.0,
    79.0
   ]
  },
  {
   "bufferView": 82,
   "componentType": 5126,
   "count": 1476,
   "type": "VEC3"
  },
  {
   "bufferView": 83,
   "componentType": 5123,
   "count": 2214,
   "type": "SCALAR"
  },
  {
   "bufferView": 84,
   "componentType": 5126,
   "count": 704,
   "type": "VEC3",
   "min": [
    -6.0,
    4.0,
    -74.0
   ],
   "max": [
    22.0,
    11.0,
    25.0
   ]
  },
  {
   "bufferView": 85,
   "componentType": 5126,
   "count": 704,
   "type": "VEC3"
  },
  {
   "bufferView": 86,
   "componentType": 5123,
   "count": 1056,
   "type": "SCALAR"
  },
  {
   "bufferView": 87,
   "componentType": 5126,
   "count": 2212,
   "type": "VEC3",
   "min": [
    -78.0,
    -3.0,
    -78.0
   ],
   "max": [
    79.0,
    14.0,
    79.0
   ]
  },
  {
   "bufferView": 88,
   "componentType": 5126,
   "count": 2212,
   "type": "VEC3"
  },
  {
   "bufferView": 89,
   "componentType": 5123,
   "count": 3318,
   "type": "SCALAR"
  },
  {
   "bufferView": 90,
   "componentType": 5126,
   "count": 20,
   "type": "VEC3",
   "min": [
    16.0,
    1.0,
    11.0
   ],
   "max": [
    38.0,
    1.0,
    28.0
   ]
  },
  {
   "bufferView": 91,
   "componentType": 5126,
   "count": 20,
   "type": "VEC3"
  },
  {
   "bufferView": 92,
   "componentType": 5123,
   "count": 30,
   "type": "SCALAR"
  },
  {
   "bufferView": 93,
   "componentType": 5126,
   "count": 1408,
   "type": "VEC3",
   "min": [
    -78.0,
    -4.0,
    -78.0
   ],
   "max": [
    79.0,
    8.0,
    79.0
   ]
  },
  {
   "bufferView": 94,
   "componentType": 5126,
   "count": 1408,
   "type": "VEC3"
  },
  {
   "bufferView": 95,
   "componentType": 5123,
   "count": 2112,
   "type": "SCALAR"
  },
  {
   "bufferView": 96,
   "componentType": 5126,
   "count": 724,
   "type": "VEC3",
   "min": [
    -6.0,
    4.0,
    -66.0
   ],
   "max": [
    22.0,
    12.0,
    25.0
   ]
  },
  {
   "bufferView": 97,
   "componentType": 5126,
   "count": 724,
   "type": "VEC3"
  },
  {
   "bufferView": 98,
   "componentType": 5123,
   "count": 1086,
   "type": "SCALAR"
  },
  {
   "bufferView": 99,
   "componentType": 5126,
   "count": 20,
   "type": "VEC3",
   "min": [
    15.0,
    1.0,
    11.0
   ],
   "max": [
    37.0,
    1.0,
    27.0
   ]
  },
  {
   "bufferView": 100,
   "componentType": 5126,
   "count": 20,
   "type": "VEC3"
  },
  {
   "bufferView": 101,
   "componentType": 5123,
   "count": 30,
   "type": "SCALAR"
  },
  {
   "bufferView": 102,
   "componentType": 5126,
   "count": 20,
   "type": "VEC3",
   "min": [
    0.0,
    14.0,
    -66.0
   ],
   "max": [
    1.0,
    15.0,
    -65.0
   ]
  },
  {
   "bufferView": 103,
   "componentType": 5126,
   "count": 20,
   "type": "VEC3"
  },
  {
   "bufferView": 104,
   "componentType": 5123,
   "count": 30,
   "type": "SCALAR"
  },
  {
   "bufferView": 105,
   "componentType": 5126,
   "count": 8,
   "type": "VEC3",
   "min": [
    18.0,
    1.0,
    11.0
   ],
   "max": [
    25.0,
    1.0,
    28.0
   ]
  },
  {
   "bufferView": 106,
   "componentType": 5126,
   "count": 8,
   "type": "VEC3"
  },
  {
   "bufferView": 107,
   "componentType": 5123,
   "count": 12,
   "type": "SCALAR"
  },
  {
   "bufferView": 108,
   "componentType": 5126,
   "count": 192,
   "type": "VEC3",
   "min": [
    -9.0,
    1.0,
    -15.0
   ],
   "max": [
    29.0,
    7.0,
    23.0
   ]
  },
  {
   "bufferView": 109,
   "componentType": 5126,
   "count": 192,
   "type": "VEC3"
  },
  {
   "bufferView": 110,
   "componentType": 5123,
   "count": 288,
   "type": "SCALAR"
  },
  {
   "bufferView": 111,
   "componentType": 5126,
   "count": 20,
   "type": "VEC3",
   "min": [
    0.0,
    13.0,
    -74.0
   ],
   "max": [
    1.0,
    14.0,
    -73.0
   ]
  },
  {
   "bufferView": 112,
   "componentType": 5126,
   "count": 20,
   "type": "VEC3"
  },
  {
   "bufferView": 113,
   "componentType": 5123,
   "count": 30,
   "type": "SCALAR"
  },
  {
   "bufferView": 114,
   "componentType": 5126,
   "count": 832,
   "type": "VEC3",
   "min": [
    -1.0,
    1.0,
    -17.0
   ],
   "max": [
    30.0,
    7.0,
    19.0
   ]
  },
  {
   "bufferView": 115,
   "componentType": 5126,
   "count": 832,
   "type": "VEC3"
  },
  {
   "bufferView": 116,
   "componentType": 5123,
   "count": 1248,
   "type": "SCALAR"
  },
  {
   "bufferView": 117,
   "componentType": 5126,
   "count": 1116,
   "type": "VEC3",
   "min": [
    -17.0,
    1.0,
    -15.0
   ],
   "max": [
    32.0,
    7.0,
    23.0
   ]
  },
  {
   "bufferView": 118,
   "componentType": 5126,
   "count": 1116,
   "type": "VEC3"
  },
  {
   "bufferView": 119,
   "componentType": 5123,
   "count": 1674,
   "type": "SCALAR"
  },
  {
   "bufferView": 120,
   "componentType": 5126,
   "count": 480,
   "type": "VEC3",
   "min": [
    -4.0,
    3.0,
    -64.0
   ],
   "max": [
    32.0,
    12.0,
    23.0
   ]
  },
  {
   "bufferView": 121,
   "componentType": 5126,
   "count": 480,
   "type": "VEC3"
  },
  {
   "bufferView": 122,
   "componentType": 5123,
   "count": 720,
   "type": "SCALAR"
  },
  {
   "bufferView": 123,
   "componentType": 5126,
   "count": 680,
   "type": "VEC3",
   "min": [
    -7.0,
    3.0,
    -71.0
   ],
   "max": [
    30.0,
    9.0,
    23.0
   ]
  },
  {
   "bufferView": 124,
   "componentType": 5126,
   "count": 680,
   "type": "VEC3"
  },
  {
   "bufferView": 125,
   "componentType": 5123,
   "count": 1020,
   "type": "SCALAR"
  }
 ],
 "extensionsUsed": [
  "KHR_materials_emissive_strength"
 ]
}
