{
 "asset": {
  "version": "2.0",
  "generator": "Bozzard tools/gen_pagoda.py"
 },
 "scene": 0,
 "scenes": [
  {
   "nodes": [
    0
   ]
  }
 ],
 "nodes": [
  {
   "name": "pagoda",
   "mesh": 0
  }
 ],
 "meshes": [
  {
   "name": "pagoda",
   "primitives": [
    {
     "attributes": {
      "POSITION": 0,
      "NORMAL": 1
     },
     "indices": 2,
     "material": 0
    },
    {
     "attributes": {
      "POSITION": 3,
      "NORMAL": 4
     },
     "indices": 5,
     "material": 1
    },
    {
     "attributes": {
      "POSITION": 6,
      "NORMAL": 7
     },
     "indices": 8,
     "material": 2
    },
    {
     "attributes": {
      "POSITION": 9,
      "NORMAL": 10
     },
     "indices": 11,
     "material": 3
    },
    {
     "attributes": {
      "POSITION": 12,
      "NORMAL": 13
     },
     "indices": 14,
     "material": 4
    },
    {
     "attributes": {
      "POSITION": 15,
      "NORMAL": 16
     },
     "indices": 17,
     "material": 5
    },
    {
     "attributes": {
      "POSITION": 18,
      "NORMAL": 19
     },
     "indices": 20,
     "material": 6
    },
    {
     "attributes": {
      "POSITION": 21,
      "NORMAL": 22
     },
     "indices": 23,
     "material": 7
    },
    {
     "attributes": {
      "POSITION": 24,
      "NORMAL": 25
     },
     "indices": 26,
     "material": 8
    },
    {
     "attributes": {
      "POSITION": 27,
      "NORMAL": 28
     },
     "indices": 29,
     "material": 9
    },
    {
     "attributes": {
      "POSITION": 30,
      "NORMAL": 31
     },
     "indices": 32,
     "material": 10
    },
    {
     "attributes": {
      "POSITION": 33,
      "NORMAL": 34
     },
     "indices": 35,
     "material": 11
    },
    {
     "attributes": {
      "POSITION": 36,
      "NORMAL": 37
     },
     "indices": 38,
     "material": 12
    },
    {
     "attributes": {
      "POSITION": 39,
      "NORMAL": 40
     },
     "indices": 41,
     "material": 13
    },
    {
     "attributes": {
      "POSITION": 42,
      "NORMAL": 43
     },
     "indices": 44,
     "material": 14
    },
    {
     "attributes": {
      "POSITION": 45,
      "NORMAL": 46
     },
     "indices": 47,
     "material": 15
    },
    {
     "attributes": {
      "POSITION": 48,
      "NORMAL": 49
     },
     "indices": 50,
     "material": 16
    },
    {
     "attributes": {
      "POSITION": 51,
      "NORMAL": 52
     },
     "indices": 53,
     "material": 17
    },
    {
     "attributes": {
      "POSITION": 54,
      "NORMAL": 55
     },
     "indices": 56,
     "material": 18
    },
    {
     "attributes": {
      "POSITION": 57,
      "NORMAL": 58
     },
     "indices": 59,
     "material": 19
    },
    {
     "attributes": {
      "POSITION": 60,
      "NORMAL": 61
     },
     "indices": 62,
     "material": 20
    },
    {
     "attributes": {
      "POSITION": 63,
      "NORMAL": 64
     },
     "indices": 65,
     "material": 21
    },
    {
     "attributes": {
      "POSITION": 66,
      "NORMAL": 67
     },
     "indices": 68,
     "material": 22
    }
   ]
  }
 ],
 "materials": [
  {
   "name": "c-28406b",
   "pbrMetallicRoughness": {
    "baseColorFactor": [
     0.021219,
     0.051269,
     0.147027,
     1.0
    ],
    "metallicFactor": 0.0,
    "roughnessFactor": 1.0
   }
  },
  {
   "name": "c-2f4b7c",
   "pbrMetallicRoughness": {
    "baseColorFactor": [
     0.028426,
     0.07036,
     0.201556,
     1.0
    ],
    "metallicFactor": 0.0,
    "roughnessFactor": 1.0
   }
  },
  {
   "name": "c-37568d",
   "pbrMetallicRoughness": {
    "baseColorFactor": [
     0.038204,
     0.093059,
     0.266356,
     1.0
    ],
    "metallicFactor": 0.0,
    "roughnessFactor": 1.0
   }
  },
  {
   "name": "c-5d241d",
   "pbrMetallicRoughness": {
    "baseColorFactor": [
     0.109462,
     0.017642,
     0.012286,
     1.0
    ],
    "metallicFactor": 0.0,
    "roughnessFactor": 1.0
   }
  },
  {
   "name": "c-6b2a21",
   "pbrMetallicRoughness": {
    "baseColorFactor": [
     0.147027,
     0.023153,
     0.015209,
     1.0
    ],
    "metallicFactor": 0.0,
    "roughnessFactor": 1.0
   }
  },
  {
   "name": "c-7a2f26",
   "pbrMetallicRoughness": {
    "baseColorFactor": [
     0.194618,
     0.028426,
     0.019382,
     1.0
    ],
    "metallicFactor": 0.0,
    "roughnessFactor": 1.0
   }
  },
  {
   "name": "c-7f8794",
   "pbrMetallicRoughness": {
    "baseColorFactor": [
     0.212231,
     0.242281,
     0.296138,
     1.0
    ],
    "metallicFactor": 0.0,
    "roughnessFactor": 1.0
   }
  },
  {
   "name": "c-8a6a44",
   "pbrMetallicRoughness": {
    "baseColorFactor": [
     0.254152,
     0.144128,
     0.057805,
     1.0
    ],
    "metallicFactor": 0.0,
    "roughnessFactor": 1.0
   }
  },
  {
   "name": "c-8b3a2f",
   "pbrMetallicRoughness": {
    "baseColorFactor": [
     0.258183,
     0.042311,
     0.028426,
     1.0
    ],
    "metallicFactor": 0.0,
    "roughnessFactor": 1.0
   }
  },
  {
   "name": "c-9c4436",
   "pbrMetallicRoughness": {
    "baseColorFactor": [
     0.332452,
     0.057805,
     0.036889,
     1.0
    ],
    "metallicFactor": 0.0,
    "roughnessFactor": 1.0
   }
  },
  {
   "name": "c-9c7a52",
   "pbrMetallicRoughness": {
    "baseColorFactor": [
     0.332452,
     0.194618,
     0.084376,
     1.0
    ],
    "metallicFactor": 0.0,
    "roughnessFactor": 1.0
   }
  },
  {
   "name": "c-b9a48a",
   "pbrMetallicRoughness": {
    "baseColorFactor": [
     0.48515,
     0.371238,
     0.254152,
     1.0
    ],
    "metallicFactor": 0.0,
    "roughnessFactor": 1.0
   }
  },
  {
   "name": "c-c0392b",
   "pbrMetallicRoughness": {
    "baseColorFactor": [
     0.527115,
     0.040915,
     0.024158,
     1.0
    ],
    "metallicFactor": 0.0,
    "roughnessFactor": 1.0
   }
  },
  {
   "name": "c-d04a3a",
   "pbrMetallicRoughness": {
    "baseColorFactor": [
     0.630757,
     0.068478,
     0.042311,
     1.0
    ],
    "metallicFactor": 0.0,
    "roughnessFactor": 1.0
   }
  },
  {
   "name": "c-d9a441",
   "pbrMetallicRoughness": {
    "baseColorFactor": [
     0.693872,
     0.371238,
     0.052861,
     1.0
    ],
    "metallicFactor": 0.0,
    "roughnessFactor": 1.0
   }
  },
  {
   "name": "c-e0ab35",
   "pbrMetallicRoughness": {
    "baseColorFactor": [
     0.745404,
     0.40724,
     0.035601,
     1.0
    ],
    "metallicFactor": 0.0,
    "roughnessFactor": 1.0
   },
   "emissiveFactor": [
    0.745404,
    0.40724,
    0.035601
   ],
   "extensions": {
    "KHR_materials_emissive_strength": {
     "emissiveStrength": 0.85
    }
   }
  },
  {
   "name": "c-e8b552",
   "pbrMetallicRoughness": {
    "baseColorFactor": [
     0.806952,
     0.462077,
     0.084376,
     1.0
    ],
    "metallicFactor": 0.0,
    "roughnessFactor": 1.0
   }
  },
  {
   "name": "c-f2c14e",
   "pbrMetallicRoughness": {
    "baseColorFactor": [
     0.887923,
     0.533276,
     0.076185,
     1.0
    ],
    "metallicFactor": 0.0,
    "roughnessFactor": 1.0
   },
   "emissiveFactor": [
    0.887923,
    0.533276,
    0.076185
   ],
   "extensions": {
    "KHR_materials_emissive_strength": {
     "emissiveStrength": 0.85
    }
   }
  },
  {
   "name": "c-ffc2cf",
   "pbrMetallicRoughness": {
    "baseColorFactor": [
     1.0,
     0.539479,
     0.62396,
     1.0
    ],
    "metallicFactor": 0.0,
    "roughnessFactor": 1.0
   }
  },
  {
   "name": "c-ffd76a",
   "pbrMetallicRoughness": {
    "baseColorFactor": [
     1.0,
     0.679542,
     0.144128,
     1.0
    ],
    "metallicFactor": 0.0,
    "roughnessFactor": 1.0
   },
   "emissiveFactor": [
    1.0,
    0.679542,
    0.144128
   ],
   "extensions": {
    "KHR_materials_emissive_strength": {
     "emissiveStrength": 0.85
    }
   }
  },
  {
   "name": "c-ffd9e0",
   "pbrMetallicRoughness": {
    "baseColorFactor": [
     1.0,
     0.693872,
     0.745404,
     1.0
    ],
    "metallicFactor": 0.0,
    "roughnessFactor": 1.0
   }
  },
  {
   "name": "c-ffe6ec",
   "pbrMetallicRoughness": {
    "baseColorFactor": [
     1.0,
     0.791298,
     0.838799,
     1.0
    ],
    "metallicFactor": 0.0,
    "roughnessFactor": 1.0
   }
  },
  {
   "name": "c-fff0b5",
   "pbrMetallicRoughness": {
    "baseColorFactor": [
     1.0,
     0.871367,
     0.462077,
     1.0
    ],
    "metallicFactor": 0.0,
    "roughnessFactor": 1.0
   },
   "emissiveFactor": [
    1.0,
    0.871367,
    0.462077
   ],
   "extensions": {
    "KHR_materials_emissive_strength": {
     "emissiveStrength": 0.85
    }
   }
  }
 ],
 "buffers": [
  {
   "uri": "pagoda.bin",
   "byteLength": 1228068
  }
 ],
 "bufferViews": [
  {
   "buffer": 0,
   "byteOffset": 0,
   "byteLength": 18336,
   "target": 34962
  },
  {
   "buffer": 0,
   "byteOffset": 18336,
   "byteLength": 18336,
   "target": 34962
  },
  {
   "buffer": 0,
   "byteOffset": 36672,
   "byteLength": 4584,
   "target": 34963
  },
  {
   "buffer": 0,
   "byteOffset": 41256,
   "byteLength": 52944,
   "target": 34962
  },
  {
   "buffer": 0,
   "byteOffset": 94200,
   "byteLength": 52944,
   "target": 34962
  },
  {
   "buffer": 0,
   "byteOffset": 147144,
   "byteLength": 13236,
   "target": 34963
  },
  {
   "buffer": 0,
   "byteOffset": 160380,
   "byteLength": 92736,
   "target": 34962
  },
  {
   "buffer": 0,
   "byteOffset": 253116,
   "byteLength": 92736,
   "target": 34962
  },
  {
   "buffer": 0,
   "byteOffset": 345852,
   "byteLength": 23184,
   "target": 34963
  },
  {
   "buffer": 0,
   "byteOffset": 369036,
   "byteLength": 4944,
   "target": 34962
  },
  {
   "buffer": 0,
   "byteOffset": 373980,
   "byteLength": 4944,
   "target": 34962
  },
  {
   "buffer": 0,
   "byteOffset": 378924,
   "byteLength": 1236,
   "target": 34963
  },
  {
   "buffer": 0,
   "byteOffset": 380160,
   "byteLength": 5040,
   "target": 34962
  },
  {
   "buffer": 0,
   "byteOffset": 385200,
   "byteLength": 5040,
   "target": 34962
  },
  {
   "buffer": 0,
   "byteOffset": 390240,
   "byteLength": 1260,
   "target": 34963
  },
  {
   "buffer": 0,
   "byteOffset": 391500,
   "byteLength": 39600,
   "target": 34962
  },
  {
   "buffer": 0,
   "byteOffset": 431100,
   "byteLength": 39600,
   "target": 34962
  },
  {
   "buffer": 0,
   "byteOffset": 470700,
   "byteLength": 9900,
   "target": 34963
  },
  {
   "buffer": 0,
   "byteOffset": 480600,
   "byteLength": 9504,
   "target": 34962
  },
  {
   "buffer": 0,
   "byteOffset": 490104,
   "byteLength": 9504,
   "target": 34962
  },
  {
   "buffer": 0,
   "byteOffset": 499608,
   "byteLength": 2376,
   "target": 34963
  },
  {
   "buffer": 0,
   "byteOffset": 501984,
   "byteLength": 8832,
   "target": 34962
  },
  {
   "buffer": 0,
   "byteOffset": 510816,
   "byteLength": 8832,
   "target": 34962
  },
  {
   "buffer": 0,
   "byteOffset": 519648,
   "byteLength": 2208,
   "target": 34963
  },
  {
   "buffer": 0,
   "byteOffset": 521856,
   "byteLength": 38016,
   "target": 34962
  },
  {
   "buffer": 0,
   "byteOffset": 559872,
   "byteLength": 38016,
   "target": 34962
  },
  {
   "buffer": 0,
   "byteOffset": 597888,
   "byteLength": 9504,
   "target": 34963
  },
  {
   "buffer": 0,
   "byteOffset": 607392,
   "byteLength": 44496,
   "target": 34962
  },
  {
   "buffer": 0,
   "byteOffset": 651888,
   "byteLength": 44496,
   "target": 34962
  },
  {
   "buffer": 0,
   "byteOffset": 696384,
   "byteLength": 11124,
   "target": 34963
  },
  {
   "buffer": 0,
   "byteOffset": 707508,
   "byteLength": 8064,
   "target": 34962
  },
  {
   "buffer": 0,
   "byteOffset": 715572,
   "byteLength": 8064,
   "target": 34962
  },
  {
   "buffer": 0,
   "byteOffset": 723636,
   "byteLength": 2016,
   "target": 34963
  },
  {
   "buffer": 0,
   "byteOffset": 725652,
   "byteLength": 15024,
   "target": 34962
  },
  {
   "buffer": 0,
   "byteOffset": 740676,
   "byteLength": 15024,
   "target": 34962
  },
  {
   "buffer": 0,
   "byteOffset": 755700,
   "byteLength": 3756,
   "target": 34963
  },
  {
   "buffer": 0,
   "byteOffset": 759456,
   "byteLength": 21984,
   "target": 34962
  },
  {
   "buffer": 0,
   "byteOffset": 781440,
   "byteLength": 21984,
   "target": 34962
  },
  {
   "buffer": 0,
   "byteOffset": 803424,
   "byteLength": 5496,
   "target": 34963
  },
  {
   "buffer": 0,
   "byteOffset": 808920,
   "byteLength": 21984,
   "target": 34962
  },
  {
   "buffer": 0,
   "byteOffset": 830904,
   "byteLength": 21984,
   "target": 34962
  },
  {
   "buffer": 0,
   "byteOffset": 852888,
   "byteLength": 5496,
   "target": 34963
  },
  {
   "buffer": 0,
   "byteOffset": 858384,
   "byteLength": 85584,
   "target": 34962
  },
  {
   "buffer": 0,
   "byteOffset": 943968,
   "byteLength": 85584,
   "target": 34962
  },
  {
   "buffer": 0,
   "byteOffset": 1029552,
   "byteLength": 21396,
   "target": 34963
  },
  {
   "buffer": 0,
   "byteOffset": 1050948,
   "byteLength": 7536,
   "target": 34962
  },
  {
   "buffer": 0,
   "byteOffset": 1058484,
   "byteLength": 7536,
   "target": 34962
  },
  {
   "buffer": 0,
   "byteOffset": 1066020,
   "byteLength": 1884,
   "target": 34963
  },
  {
   "buffer": 0,
   "byteOffset": 1067904,
   "byteLength": 48480,
   "target": 34962
  },
  {
   "buffer": 0,
   "byteOffset": 1116384,
   "byteLength": 48480,
   "target": 34962
  },
  {
   "buffer": 0,
   "byteOffset": 1164864,
   "byteLength": 12120,
   "target": 34963
  },
  {
   "buffer": 0,
   "byteOffset": 1176984,
   "byteLength": 4656,
   "target": 34962
  },
  {
   "buffer": 0,
   "byteOffset": 1181640,
   "byteLength": 4656,
   "target": 34962
  },
  {
   "buffer": 0,
   "byteOffset": 1186296,
   "byteLength": 1164,
   "target": 34963
  },
  {
   "buffer": 0,
   "byteOffset": 1187460,
   "byteLength": 3648,
   "target": 34962
  },
  {
   "buffer": 0,
   "byteOffset": 1191108,
   "byteLength": 3648,
   "target": 34962
  },
  {
   "buffer": 0,
   "byteOffset": 1194756,
   "byteLength": 912,
   "target": 34963
  },
  {
   "buffer": 0,
   "byteOffset": 1195668,
   "byteLength": 7056,
   "target": 34962
  },
  {
   "buffer": 0,
   "byteOffset": 1202724,
   "byteLength": 7056,
   "target": 34962
  },
  {
   "buffer": 0,
   "byteOffset": 1209780,
   "byteLength": 1764,
   "target": 34963
  },
  {
   "buffer": 0,
   "byteOffset": 1211544,
   "byteLength": 3072,
   "target": 34962
  },
  {
   "buffer": 0,
   "byteOffset": 1214616,
   "byteLength": 3072,
   "target": 34962
  },
  {
   "buffer": 0,
   "byteOffset": 1217688,
   "byteLength": 768,
   "target": 34963
  },
  {
   "buffer": 0,
   "byteOffset": 1218456,
   "byteLength": 4032,
   "target": 34962
  },
  {
   "buffer": 0,
   "byteOffset": 1222488,
   "byteLength": 4032,
   "target": 34962
  },
  {
   "buffer": 0,
   "byteOffset": 1226520,
   "byteLength": 1008,
   "target": 34963
  },
  {
   "buffer": 0,
   "byteOffset": 1227528,
   "byteLength": 240,
   "target": 34962
  },
  {
   "buffer": 0,
   "byteOffset": 1227768,
   "byteLength": 240,
   "target": 34962
  },
  {
   "buffer": 0,
   "byteOffset": 1228008,
   "byteLength": 60,
   "target": 34963
  }
 ],
 "accessors": [
  {
   "bufferView": 0,
   "componentType": 5126,
   "count": 1528,
   "type": "VEC3",
   "min": [
    -14.0,
    10.0,
    -15.0
   ],
   "max": [
    16.0,
    52.0,
    15.0
   ]
  },
  {
   "bufferView": 1,
   "componentType": 5126,
   "count": 1528,
   "type": "VEC3"
  },
  {
   "bufferView": 2,
   "componentType": 5123,
   "count": 2292,
   "type": "SCALAR"
  },
  {
   "bufferView": 3,
   "componentType": 5126,
   "count": 4412,
   "type": "VEC3",
   "min": [
    -15.0,
    10.0,
    -15.0
   ],
   "max": [
    15.0,
    52.0,
    16.0
   ]
  },
  {
   "bufferView": 4,
   "componentType": 5126,
   "count": 4412,
   "type": "VEC3"
  },
  {
   "bufferView": 5,
   "componentType": 5123,
   "count": 6618,
   "type": "SCALAR"
  },
  {
   "bufferView": 6,
   "componentType": 5126,
   "count": 7728,
   "type": "VEC3",
   "min": [
    -15.0,
    10.0,
    -14.0
   ],
   "max": [
    16.0,
    52.0,
    16.0
   ]
  },
  {
   "bufferView": 7,
   "componentType": 5126,
   "count": 7728,
   "type": "VEC3"
  },
  {
   "bufferView": 8,
   "componentType": 5123,
   "count": 11592,
   "type": "SCALAR"
  },
  {
   "bufferView": 9,
   "componentType": 5126,
   "count": 412,
   "type": "VEC3",
   "min": [
    -10.0,
    3.0,
    -10.0
   ],
   "max": [
    11.0,
    49.0,
    11.0
   ]
  },
  {
   "bufferView": 10,
   "componentType": 5126,
   "count": 412,
   "type": "VEC3"
  },
  {
   "bufferView": 11,
   "componentType": 5123,
   "count": 618,
   "type": "SCALAR"
  },
  {
   "bufferView": 12,
   "componentType": 5126,
   "count": 420,
   "type": "VEC3",
   "min": [
    -10.0,
    3.0,
    -10.0
   ],
   "max": [
    11.0,
    49.0,
    11.0
   ]
  },
  {
   "bufferView": 13,
   "componentType": 5126,
   "count": 420,
   "type": "VEC3"
  },
  {
   "bufferView": 14,
   "componentType": 5123,
   "count": 630,
   "type": "SCALAR"
  },
  {
   "bufferView": 15,
   "componentType": 5126,
   "count": 3300,
   "type": "VEC3",
   "min": [
    -10.0,
    4.0,
    -10.0
   ],
   "max": [
    11.0,
    49.0,
    11.0
   ]
  },
  {
   "bufferView": 16,
   "componentType": 5126,
   "count": 3300,
   "type": "VEC3"
  },
  {
   "bufferView": 17,
   "componentType": 5123,
   "count": 4950,
   "type": "SCALAR"
  },
  {
   "bufferView": 18,
   "componentType": 5126,
   "count": 792,
   "type": "VEC3",
   "min": [
    -13.0,
    1.0,
    -13.0
   ],
   "max": [
    14.0,
    2.0,
    14.0
   ]
  },
  {
   "bufferView": 19,
   "componentType": 5126,
   "count": 792,
   "type": "VEC3"
  },
  {
   "bufferView": 20,
   "componentType": 5123,
   "count": 1188,
   "type": "SCALAR"
  },
  {
   "bufferView": 21,
   "componentType": 5126,
   "count": 736,
   "type": "VEC3",
   "min": [
    -9.0,
    3.0,
    -9.0
   ],
   "max": [
    10.0,
    3.0,
    10.0
   ]
  },
  {
   "bufferView": 22,
   "componentType": 5126,
   "count": 736,
   "type": "VEC3"
  },
  {
   "bufferView": 23,
   "componentType": 5123,
   "count": 1104,
   "type": "SCALAR"
  },
  {
   "bufferView": 24,
   "componentType": 5126,
   "count": 3168,
   "type": "VEC3",
   "min": [
    -10.0,
    4.0,
    -10.0
   ],
   "max": [
    11.0,
    48.0,
    11.0
   ]
  },
  {
   "bufferView": 25,
   "componentType": 5126,
   "count": 3168,
   "type": "VEC3"
  },
  {
   "bufferView": 26,
   "componentType": 5123,
   "count": 4752,
   "type": "SCALAR"
  },
  {
   "bufferView": 27,
   "componentType": 5126,
   "count": 3708,
   "type": "VEC3",
   "min": [
    -10.0,
    3.0,
    -10.0
   ],
   "max": [
    11.0,
    48.0,
    11.0
   ]
  },
  {
   "bufferView": 28,
   "componentType": 5126,
   "count": 3708,
   "type": "VEC3"
  },
  {
   "bufferView": 29,
   "componentType": 5123,
   "count": 5562,
   "type": "SCALAR"
  },
  {
   "bufferView": 30,
   "componentType": 5126,
   "count": 672,
   "type": "VEC3",
   "min": [
    -9.0,
    3.0,
    -9.0
   ],
   "max": [
    10.0,
    3.0,
    10.0
   ]
  },
  {
   "bufferView": 31,
   "componentType": 5126,
   "count": 672,
   "type": "VEC3"
  },
  {
   "bufferView": 32,
   "componentType": 5123,
   "count": 1008,
   "type": "SCALAR"
  },
  {
   "bufferView": 33,
   "componentType": 5126,
   "count": 1252,
   "type": "VEC3",
   "min": [
    -12.0,
    2.0,
    -12.0
   ],
   "max": [
    13.0,
    55.0,
    13.0
   ]
  },
  {
   "bufferView": 34,
   "componentType": 5126,
   "count": 1252,
   "type": "VEC3"
  },
  {
   "bufferView": 35,
   "componentType": 5123,
   "count": 1878,
   "type": "SCALAR"
  },
  {
   "bufferView": 36,
   "componentType": 5126,
   "count": 1832,
   "type": "VEC3",
   "min": [
    -11.0,
    8.0,
    -11.0
   ],
   "max": [
    12.0,
    49.0,
    12.0
   ]
  },
  {
   "bufferView": 37,
   "componentType": 5126,
   "count": 1832,
   "type": "VEC3"
  },
  {
   "bufferView": 38,
   "componentType": 5123,
   "count": 2748,
   "type": "SCALAR"
  },
  {
   "bufferView": 39,
   "componentType": 5126,
   "count": 1832,
   "type": "VEC3",
   "min": [
    -11.0,
    8.0,
    -11.0
   ],
   "max": [
    12.0,
    49.0,
    12.0
   ]
  },
  {
   "bufferView": 40,
   "componentType": 5126,
   "count": 1832,
   "type": "VEC3"
  },
  {
   "bufferView": 41,
   "componentType": 5123,
   "count": 2748,
   "type": "SCALAR"
  },
  {
   "bufferView": 42,
   "componentType": 5126,
   "count": 7132,
   "type": "VEC3",
   "min": [
    -15.0,
    9.0,
    -15.0
   ],
   "max": [
    16.0,
    53.0,
    16.0
   ]
  },
  {
   "bufferView": 43,
   "componentType": 5126,
   "count": 7132,
   "type": "VEC3"
  },
  {
   "bufferView": 44,
   "componentType": 5123,
   "count": 10698,
   "type": "SCALAR"
  },
  {
   "bufferView": 45,
   "componentType": 5126,
   "count": 628,
   "type": "VEC3",
   "min": [
    -14.0,
    3.0,
    -14.0
   ],
   "max": [
    15.0,
    60.0,
    15.0
   ]
  },
  {
   "bufferView": 46,
   "componentType": 5126,
   "count": 628,
   "type": "VEC3"
  },
  {
   "bufferView": 47,
   "componentType": 5123,
   "count": 942,
   "type": "SCALAR"
  },
  {
   "bufferView": 48,
   "componentType": 5126,
   "count": 4040,
   "type": "VEC3",
   "min": [
    -14.0,
    10.0,
    -14.0
   ],
   "max": [
    15.0,
    53.0,
    15.0
   ]
  },
  {
   "bufferView": 49,
   "componentType": 5126,
   "count": 4040,
   "type": "VEC3"
  },
  {
   "bufferView": 50,
   "componentType": 5123,
   "count": 6060,
   "type": "SCALAR"
  },
  {
   "bufferView": 51,
   "componentType": 5126,
   "count": 388,
   "type": "VEC3",
   "min": [
    -14.0,
    8.0,
    -12.0
   ],
   "max": [
    13.0,
    63.0,
    15.0
   ]
  },
  {
   "bufferView": 52,
   "componentType": 5126,
   "count": 388,
   "type": "VEC3"
  },
  {
   "bufferView": 53,
   "componentType": 5123,
   "count": 582,
   "type": "SCALAR"
  },
  {
   "bufferView": 54,
   "componentType": 5126,
   "count": 304,
   "type": "VEC3",
   "min": [
    -10.0,
    5.0,
    -10.0
   ],
   "max": [
    11.0,
    48.0,
    11.0
   ]
  },
  {
   "bufferView": 55,
   "componentType": 5126,
   "count": 304,
   "type": "VEC3"
  },
  {
   "bufferView": 56,
   "componentType": 5123,
   "count": 456,
   "type": "SCALAR"
  },
  {
   "bufferView": 57,
   "componentType": 5126,
   "count": 588,
   "type": "VEC3",
   "min": [
    -14.0,
    7.0,
    -14.0
   ],
   "max": [
    15.0,
    66.0,
    15.0
   ]
  },
  {
   "bufferView": 58,
   "componentType": 5126,
   "count": 588,
   "type": "VEC3"
  },
  {
   "bufferView": 59,
   "componentType": 5123,
   "count": 882,
   "type": "SCALAR"
  },
  {
   "bufferView": 60,
   "componentType": 5126,
   "count": 256,
   "type": "VEC3",
   "min": [
    -10.0,
    5.0,
    -10.0
   ],
   "max": [
    11.0,
    48.0,
    11.0
   ]
  },
  {
   "bufferView": 61,
   "componentType": 5126,
   "count": 256,
   "type": "VEC3"
  },
  {
   "bufferView": 62,
   "componentType": 5123,
   "count": 384,
   "type": "SCALAR"
  },
  {
   "bufferView": 63,
   "componentType": 5126,
   "count": 336,
   "type": "VEC3",
   "min": [
    -10.0,
    5.0,
    -10.0
   ],
   "max": [
    11.0,
    48.0,
    11.0
   ]
  },
  {
   "bufferView": 64,
   "componentType": 5126,
   "count": 336,
   "type": "VEC3"
  },
  {
   "bufferView": 65,
   "componentType": 5123,
   "count": 504,
   "type": "SCALAR"
  },
  {
   "bufferView": 66,
   "componentType": 5126,
   "count": 20,
   "type": "VEC3",
   "min": [
    0.0,
    66.0,
    0.0
   ],
   "max": [
    1.0,
    67.0,
    1.0
   ]
  },
  {
   "bufferView": 67,
   "componentType": 5126,
   "count": 20,
   "type": "VEC3"
  },
  {
   "bufferView": 68,
   "componentType": 5123,
   "count": 30,
   "type": "SCALAR"
  }
 ],
 "extensionsUsed": [
  "KHR_materials_emissive_strength"
 ]
}
