{
	"asset":{
		"generator":"Khronos glTF Blender I/O v5.2.40",
		"version":"2.0"
	},
	"extensionsUsed":[
		"KHR_materials_emissive_strength"
	],
	"scene":0,
	"scenes":[
		{
			"name":"Scene",
			"nodes":[
				0
			]
		}
	],
	"nodes":[
		{
			"mesh":0,
			"name":"Bozzard dorm room \u2014 Room 207"
		}
	],
	"materials":[
		{
			"doubleSided":true,
			"name":"Walnut",
			"pbrMetallicRoughness":{
				"baseColorTexture":{
					"index":0,
					"texCoord":1
				},
				"metallicFactor":0,
				"roughnessFactor":0.550000011920929
			}
		},
		{
			"doubleSided":true,
			"name":"Oak floor shade 06",
			"pbrMetallicRoughness":{
				"baseColorTexture":{
					"index":1,
					"texCoord":1
				},
				"metallicFactor":0,
				"roughnessFactor":0.550000011920929
			}
		},
		{
			"doubleSided":true,
			"name":"Oak floor shade 02",
			"pbrMetallicRoughness":{
				"baseColorTexture":{
					"index":2,
					"texCoord":1
				},
				"metallicFactor":0,
				"roughnessFactor":0.550000011920929
			}
		},
		{
			"doubleSided":true,
			"name":"Oak floor shade 00",
			"pbrMetallicRoughness":{
				"baseColorTexture":{
					"index":3,
					"texCoord":1
				},
				"metallicFactor":0,
				"roughnessFactor":0.550000011920929
			}
		},
		{
			"doubleSided":true,
			"name":"Oak floor shade 04",
			"pbrMetallicRoughness":{
				"baseColorTexture":{
					"index":4,
					"texCoord":1
				},
				"metallicFactor":0,
				"roughnessFactor":0.550000011920929
			}
		},
		{
			"doubleSided":true,
			"name":"Oak floor shade 03",
			"pbrMetallicRoughness":{
				"baseColorTexture":{
					"index":5,
					"texCoord":1
				},
				"metallicFactor":0,
				"roughnessFactor":0.550000011920929
			}
		},
		{
			"doubleSided":true,
			"name":"Oak floor shade 01",
			"pbrMetallicRoughness":{
				"baseColorTexture":{
					"index":6,
					"texCoord":1
				},
				"metallicFactor":0,
				"roughnessFactor":0.550000011920929
			}
		},
		{
			"doubleSided":true,
			"name":"Oak floor shade 05",
			"pbrMetallicRoughness":{
				"baseColorTexture":{
					"index":7,
					"texCoord":1
				},
				"metallicFactor":0,
				"roughnessFactor":0.550000011920929
			}
		},
		{
			"doubleSided":true,
			"name":"Sage green painted plaster",
			"normalTexture":{
				"index":8,
				"texCoord":1
			},
			"pbrMetallicRoughness":{
				"baseColorTexture":{
					"index":9,
					"texCoord":1
				},
				"metallicFactor":0,
				"roughnessFactor":0.550000011920929
			}
		},
		{
			"doubleSided":true,
			"name":"Warm ivory trim",
			"pbrMetallicRoughness":{
				"baseColorTexture":{
					"index":10,
					"texCoord":1
				},
				"metallicFactor":0,
				"roughnessFactor":0.550000011920929
			}
		},
		{
			"doubleSided":true,
			"name":"Honey oak",
			"pbrMetallicRoughness":{
				"baseColorTexture":{
					"index":11,
					"texCoord":1
				},
				"metallicFactor":0,
				"roughnessFactor":0.550000011920929
			}
		},
		{
			"doubleSided":true,
			"name":"Brushed steel",
			"pbrMetallicRoughness":{
				"baseColorTexture":{
					"index":12,
					"texCoord":1
				},
				"metallicFactor":0.800000011920929,
				"roughnessFactor":0.2800000011920929
			}
		},
		{
			"doubleSided":true,
			"name":"Charcoal",
			"pbrMetallicRoughness":{
				"baseColorTexture":{
					"index":13,
					"texCoord":1
				},
				"metallicFactor":0,
				"roughnessFactor":0.550000011920929
			}
		},
		{
			"doubleSided":true,
			"name":"Cotton off white",
			"normalTexture":{
				"index":14,
				"texCoord":1
			},
			"pbrMetallicRoughness":{
				"baseColorTexture":{
					"index":15,
					"texCoord":1
				},
				"metallicFactor":0,
				"roughnessFactor":0.550000011920929
			}
		},
		{
			"doubleSided":true,
			"name":"Petrol blue duvet",
			"normalTexture":{
				"index":16,
				"texCoord":1
			},
			"pbrMetallicRoughness":{
				"baseColorTexture":{
					"index":17,
					"texCoord":1
				},
				"metallicFactor":0,
				"roughnessFactor":0.550000011920929
			}
		},
		{
			"doubleSided":true,
			"name":"Golden ochre",
			"pbrMetallicRoughness":{
				"baseColorTexture":{
					"index":18,
					"texCoord":1
				},
				"metallicFactor":0,
				"roughnessFactor":0.550000011920929
			}
		},
		{
			"doubleSided":true,
			"name":"Terracotta",
			"pbrMetallicRoughness":{
				"baseColorTexture":{
					"index":19,
					"texCoord":1
				},
				"metallicFactor":0,
				"roughnessFactor":0.550000011920929
			}
		},
		{
			"doubleSided":true,
			"name":"Blue book",
			"pbrMetallicRoughness":{
				"baseColorTexture":{
					"index":20,
					"texCoord":1
				},
				"metallicFactor":0,
				"roughnessFactor":0.550000011920929
			}
		},
		{
			"doubleSided":true,
			"emissiveFactor":[
				0.009749999424442657,
				0.06499999858438965,
				0.11049999710917469
			],
			"name":"Screen midnight blue",
			"pbrMetallicRoughness":{
				"baseColorTexture":{
					"index":21,
					"texCoord":1
				},
				"metallicFactor":0,
				"roughnessFactor":0.25
			}
		},
		{
			"doubleSided":true,
			"name":"Paper",
			"pbrMetallicRoughness":{
				"baseColorTexture":{
					"index":22,
					"texCoord":1
				},
				"metallicFactor":0,
				"roughnessFactor":0.550000011920929
			}
		},
		{
			"doubleSided":true,
			"emissiveFactor":[
				1,
				0.6800000071525574,
				0.30000001192092896
			],
			"extensions":{
				"KHR_materials_emissive_strength":{
					"emissiveStrength":3
				}
			},
			"name":"Lamp warm diffuser",
			"pbrMetallicRoughness":{
				"baseColorTexture":{
					"index":23,
					"texCoord":1
				},
				"metallicFactor":0,
				"roughnessFactor":0.4000000059604645
			}
		},
		{
			"doubleSided":true,
			"emissiveFactor":[
				1,
				0.07999999821186066,
				0.2199999988079071
			],
			"extensions":{
				"KHR_materials_emissive_strength":{
					"emissiveStrength":6
				}
			},
			"name":"Neon coral",
			"pbrMetallicRoughness":{
				"baseColorTexture":{
					"index":24,
					"texCoord":1
				},
				"metallicFactor":0,
				"roughnessFactor":0.2800000011920929
			}
		},
		{
			"doubleSided":true,
			"name":"Cork",
			"normalTexture":{
				"index":25,
				"texCoord":1
			},
			"pbrMetallicRoughness":{
				"baseColorTexture":{
					"index":26,
					"texCoord":1
				},
				"metallicFactor":0,
				"roughnessFactor":0.550000011920929
			}
		},
		{
			"doubleSided":true,
			"emissiveFactor":[
				0.07999999821186066,
				0.14499999582767487,
				0.16249999403953552
			],
			"name":"Blue daylight glass",
			"pbrMetallicRoughness":{
				"baseColorTexture":{
					"index":27,
					"texCoord":1
				},
				"metallicFactor":0,
				"roughnessFactor":0.2199999988079071
			}
		},
		{
			"doubleSided":true,
			"name":"Plant green",
			"pbrMetallicRoughness":{
				"baseColorTexture":{
					"index":28,
					"texCoord":1
				},
				"metallicFactor":0,
				"roughnessFactor":0.550000011920929
			}
		},
		{
			"doubleSided":true,
			"name":"Woven oatmeal rug",
			"normalTexture":{
				"index":29,
				"texCoord":1
			},
			"pbrMetallicRoughness":{
				"baseColorTexture":{
					"index":30,
					"texCoord":1
				},
				"metallicFactor":0,
				"roughnessFactor":0.550000011920929
			}
		},
		{
			"alphaMode":"BLEND",
			"doubleSided":true,
			"name":"Dog portrait \u00b7 pigment on ivory canvas.001",
			"pbrMetallicRoughness":{
				"baseColorTexture":{
					"index":31
				},
				"metallicFactor":0,
				"roughnessFactor":0.8700000047683716
			}
		},
		{
			"doubleSided":true,
			"name":"Second dog photograph \u00b7 matte print",
			"pbrMetallicRoughness":{
				"baseColorTexture":{
					"index":32
				},
				"metallicFactor":0,
				"roughnessFactor":0.800000011920929
			}
		}
	],
	"meshes":[
		{
			"name":"Cube.271",
			"primitives":[
				{
					"attributes":{
						"POSITION":0,
						"NORMAL":1,
						"TEXCOORD_0":2,
						"TEXCOORD_1":3
					},
					"indices":4,
					"material":0
				},
				{
					"attributes":{
						"POSITION":5,
						"NORMAL":6,
						"TEXCOORD_0":7,
						"TEXCOORD_1":8
					},
					"indices":9,
					"material":1
				},
				{
					"attributes":{
						"POSITION":10,
						"NORMAL":11,
						"TEXCOORD_0":12,
						"TEXCOORD_1":13
					},
					"indices":14,
					"material":2
				},
				{
					"attributes":{
						"POSITION":15,
						"NORMAL":16,
						"TEXCOORD_0":17,
						"TEXCOORD_1":18
					},
					"indices":19,
					"material":3
				},
				{
					"attributes":{
						"POSITION":20,
						"NORMAL":21,
						"TEXCOORD_0":22,
						"TEXCOORD_1":23
					},
					"indices":24,
					"material":4
				},
				{
					"attributes":{
						"POSITION":25,
						"NORMAL":26,
						"TEXCOORD_0":27,
						"TEXCOORD_1":28
					},
					"indices":29,
					"material":5
				},
				{
					"attributes":{
						"POSITION":30,
						"NORMAL":31,
						"TEXCOORD_0":32,
						"TEXCOORD_1":33
					},
					"indices":34,
					"material":6
				},
				{
					"attributes":{
						"POSITION":35,
						"NORMAL":36,
						"TEXCOORD_0":37,
						"TEXCOORD_1":38
					},
					"indices":39,
					"material":7
				},
				{
					"attributes":{
						"POSITION":40,
						"NORMAL":41,
						"TEXCOORD_0":42,
						"TEXCOORD_1":43
					},
					"indices":44,
					"material":8
				},
				{
					"attributes":{
						"POSITION":45,
						"NORMAL":46,
						"TEXCOORD_0":47,
						"TEXCOORD_1":48
					},
					"indices":49,
					"material":9
				},
				{
					"attributes":{
						"POSITION":50,
						"NORMAL":51,
						"TEXCOORD_0":52,
						"TEXCOORD_1":53
					},
					"indices":54,
					"material":10
				},
				{
					"attributes":{
						"POSITION":55,
						"NORMAL":56,
						"TEXCOORD_0":57,
						"TEXCOORD_1":58
					},
					"indices":59,
					"material":11
				},
				{
					"attributes":{
						"POSITION":60,
						"NORMAL":61,
						"TEXCOORD_0":62,
						"TEXCOORD_1":63
					},
					"indices":64,
					"material":12
				},
				{
					"attributes":{
						"POSITION":65,
						"NORMAL":66,
						"TEXCOORD_0":67,
						"TEXCOORD_1":68
					},
					"indices":69,
					"material":13
				},
				{
					"attributes":{
						"POSITION":70,
						"NORMAL":71,
						"TEXCOORD_0":72,
						"TEXCOORD_1":73
					},
					"indices":74,
					"material":14
				},
				{
					"attributes":{
						"POSITION":75,
						"NORMAL":76,
						"TEXCOORD_0":77,
						"TEXCOORD_1":78
					},
					"indices":79,
					"material":15
				},
				{
					"attributes":{
						"POSITION":80,
						"NORMAL":81,
						"TEXCOORD_0":82,
						"TEXCOORD_1":83
					},
					"indices":84,
					"material":16
				},
				{
					"attributes":{
						"POSITION":85,
						"NORMAL":86,
						"TEXCOORD_0":87,
						"TEXCOORD_1":88
					},
					"indices":89,
					"material":17
				},
				{
					"attributes":{
						"POSITION":90,
						"NORMAL":91,
						"TEXCOORD_0":92,
						"TEXCOORD_1":93
					},
					"indices":94,
					"material":18
				},
				{
					"attributes":{
						"POSITION":95,
						"NORMAL":96,
						"TEXCOORD_0":97,
						"TEXCOORD_1":98
					},
					"indices":99,
					"material":19
				},
				{
					"attributes":{
						"POSITION":100,
						"NORMAL":101,
						"TEXCOORD_0":102,
						"TEXCOORD_1":103
					},
					"indices":104,
					"material":20
				},
				{
					"attributes":{
						"POSITION":105,
						"NORMAL":106,
						"TEXCOORD_0":107,
						"TEXCOORD_1":108
					},
					"indices":109,
					"material":21
				},
				{
					"attributes":{
						"POSITION":110,
						"NORMAL":111,
						"TEXCOORD_0":112,
						"TEXCOORD_1":113
					},
					"indices":114,
					"material":22
				},
				{
					"attributes":{
						"POSITION":115,
						"NORMAL":116,
						"TEXCOORD_0":117,
						"TEXCOORD_1":118
					},
					"indices":119,
					"material":23
				},
				{
					"attributes":{
						"POSITION":120,
						"NORMAL":121,
						"TEXCOORD_0":122,
						"TEXCOORD_1":123
					},
					"indices":124,
					"material":24
				},
				{
					"attributes":{
						"POSITION":125,
						"NORMAL":126,
						"TEXCOORD_0":127,
						"TEXCOORD_1":128
					},
					"indices":129,
					"material":25
				},
				{
					"attributes":{
						"POSITION":130,
						"NORMAL":131,
						"TEXCOORD_0":132,
						"TEXCOORD_1":133
					},
					"indices":134,
					"material":26
				},
				{
					"attributes":{
						"POSITION":135,
						"NORMAL":136,
						"TEXCOORD_0":137,
						"TEXCOORD_1":138
					},
					"indices":134,
					"material":27
				}
			]
		}
	],
	"textures":[
		{
			"sampler":0,
			"source":0
		},
		{
			"sampler":0,
			"source":0
		},
		{
			"sampler":0,
			"source":0
		},
		{
			"sampler":0,
			"source":0
		},
		{
			"sampler":0,
			"source":0
		},
		{
			"sampler":0,
			"source":0
		},
		{
			"sampler":0,
			"source":0
		},
		{
			"sampler":0,
			"source":0
		},
		{
			"sampler":0,
			"source":1
		},
		{
			"sampler":0,
			"source":0
		},
		{
			"sampler":0,
			"source":0
		},
		{
			"sampler":0,
			"source":0
		},
		{
			"sampler":0,
			"source":0
		},
		{
			"sampler":0,
			"source":0
		},
		{
			"sampler":0,
			"source":1
		},
		{
			"sampler":0,
			"source":0
		},
		{
			"sampler":0,
			"source":1
		},
		{
			"sampler":0,
			"source":0
		},
		{
			"sampler":0,
			"source":0
		},
		{
			"sampler":0,
			"source":0
		},
		{
			"sampler":0,
			"source":0
		},
		{
			"sampler":0,
			"source":0
		},
		{
			"sampler":0,
			"source":0
		},
		{
			"sampler":0,
			"source":0
		},
		{
			"sampler":0,
			"source":0
		},
		{
			"sampler":0,
			"source":1
		},
		{
			"sampler":0,
			"source":0
		},
		{
			"sampler":0,
			"source":0
		},
		{
			"sampler":0,
			"source":0
		},
		{
			"sampler":0,
			"source":1
		},
		{
			"sampler":0,
			"source":0
		},
		{
			"sampler":0,
			"source":2
		},
		{
			"sampler":0,
			"source":3
		}
	],
	"images":[
		{
			"mimeType":"image/png",
			"name":"dorm_basecolor",
			"uri":"dorm_basecolor.png"
		},
		{
			"mimeType":"image/png",
			"name":"dorm_normal",
			"uri":"dorm_normal.png"
		},
		{
			"mimeType":"image/png",
			"name":"dog_portrait",
			"uri":"dog_portrait.png"
		},
		{
			"mimeType":"image/png",
			"name":"dog_photo",
			"uri":"dog_photo.png"
		}
	],
	"accessors":[
		{
			"bufferView":0,
			"componentType":5126,
			"count":7444,
			"max":[
				2.799999952316284,
				2.634999990463257,
				2.3499999046325684
			],
			"min":[
				-2.799999952316284,
				-0.2750000059604645,
				-2.3499999046325684
			],
			"type":"VEC3"
		},
		{
			"bufferView":1,
			"componentType":5126,
			"count":7444,
			"type":"VEC3"
		},
		{
			"bufferView":2,
			"componentType":5126,
			"count":7444,
			"type":"VEC2"
		},
		{
			"bufferView":3,
			"componentType":5126,
			"count":7444,
			"type":"VEC2"
		},
		{
			"bufferView":4,
			"componentType":5123,
			"count":17328,
			"type":"SCALAR"
		},
		{
			"bufferView":5,
			"componentType":5126,
			"count":3327,
			"max":[
				1.0054999589920044,
				0.02850000001490116,
				2.3405001163482666
			],
			"min":[
				-2.695500135421753,
				-0.006500000134110451,
				-2.1505000591278076
			],
			"type":"VEC3"
		},
		{
			"bufferView":6,
			"componentType":5126,
			"count":3327,
			"type":"VEC3"
		},
		{
			"bufferView":7,
			"componentType":5126,
			"count":3327,
			"type":"VEC2"
		},
		{
			"bufferView":8,
			"componentType":5126,
			"count":3327,
			"type":"VEC2"
		},
		{
			"bufferView":9,
			"componentType":5123,
			"count":6204,
			"type":"SCALAR"
		},
		{
			"bufferView":10,
			"componentType":5126,
			"count":4556,
			"max":[
				2.695500135421753,
				0.02850000001490116,
				2.3405001163482666
			],
			"min":[
				-2.695500135421753,
				-0.006500000134110451,
				-2.1505000591278076
			],
			"type":"VEC3"
		},
		{
			"bufferView":11,
			"componentType":5126,
			"count":4556,
			"type":"VEC3"
		},
		{
			"bufferView":12,
			"componentType":5126,
			"count":4556,
			"type":"VEC2"
		},
		{
			"bufferView":13,
			"componentType":5126,
			"count":4556,
			"type":"VEC2"
		},
		{
			"bufferView":14,
			"componentType":5123,
			"count":8460,
			"type":"SCALAR"
		},
		{
			"bufferView":15,
			"componentType":5126,
			"count":4584,
			"max":[
				2.695500135421753,
				0.02850000001490116,
				2.3405001163482666
			],
			"min":[
				-2.695499897003174,
				-0.006500000134110451,
				-2.1505000591278076
			],
			"type":"VEC3"
		},
		{
			"bufferView":16,
			"componentType":5126,
			"count":4584,
			"type":"VEC3"
		},
		{
			"bufferView":17,
			"componentType":5126,
			"count":4584,
			"type":"VEC2"
		},
		{
			"bufferView":18,
			"componentType":5126,
			"count":4584,
			"type":"VEC2"
		},
		{
			"bufferView":19,
			"componentType":5123,
			"count":8460,
			"type":"SCALAR"
		},
		{
			"bufferView":20,
			"componentType":5126,
			"count":4867,
			"max":[
				2.695500135421753,
				0.02850000001490116,
				2.0905001163482666
			],
			"min":[
				-2.695500135421753,
				-0.006500000134110451,
				-2.1505000591278076
			],
			"type":"VEC3"
		},
		{
			"bufferView":21,
			"componentType":5126,
			"count":4867,
			"type":"VEC3"
		},
		{
			"bufferView":22,
			"componentType":5126,
			"count":4867,
			"type":"VEC2"
		},
		{
			"bufferView":23,
			"componentType":5126,
			"count":4867,
			"type":"VEC2"
		},
		{
			"bufferView":24,
			"componentType":5123,
			"count":9024,
			"type":"SCALAR"
		},
		{
			"bufferView":25,
			"componentType":5126,
			"count":3300,
			"max":[
				2.695500135421753,
				0.02850000001490116,
				2.0905001163482666
			],
			"min":[
				-2.695500135421753,
				-0.006500000134110451,
				-1.650499939918518
			],
			"type":"VEC3"
		},
		{
			"bufferView":26,
			"componentType":5126,
			"count":3300,
			"type":"VEC3"
		},
		{
			"bufferView":27,
			"componentType":5126,
			"count":3300,
			"type":"VEC2"
		},
		{
			"bufferView":28,
			"componentType":5126,
			"count":3300,
			"type":"VEC2"
		},
		{
			"bufferView":29,
			"componentType":5123,
			"count":6204,
			"type":"SCALAR"
		},
		{
			"bufferView":30,
			"componentType":5126,
			"count":3266,
			"max":[
				2.695499897003174,
				0.02850000001490116,
				1.840499997138977
			],
			"min":[
				-2.695500135421753,
				-0.006500000134110451,
				-1.400499939918518
			],
			"type":"VEC3"
		},
		{
			"bufferView":31,
			"componentType":5126,
			"count":3266,
			"type":"VEC3"
		},
		{
			"bufferView":32,
			"componentType":5126,
			"count":3266,
			"type":"VEC2"
		},
		{
			"bufferView":33,
			"componentType":5126,
			"count":3266,
			"type":"VEC2"
		},
		{
			"bufferView":34,
			"componentType":5123,
			"count":6204,
			"type":"SCALAR"
		},
		{
			"bufferView":35,
			"componentType":5126,
			"count":3293,
			"max":[
				2.695500135421753,
				0.02850000001490116,
				1.840499997138977
			],
			"min":[
				-2.635499954223633,
				-0.006500000134110451,
				-1.400499939918518
			],
			"type":"VEC3"
		},
		{
			"bufferView":36,
			"componentType":5126,
			"count":3293,
			"type":"VEC3"
		},
		{
			"bufferView":37,
			"componentType":5126,
			"count":3293,
			"type":"VEC2"
		},
		{
			"bufferView":38,
			"componentType":5126,
			"count":3293,
			"type":"VEC2"
		},
		{
			"bufferView":39,
			"componentType":5123,
			"count":6204,
			"type":"SCALAR"
		},
		{
			"bufferView":40,
			"componentType":5126,
			"count":1133,
			"max":[
				2.7899999618530273,
				3,
				2.325000047683716
			],
			"min":[
				-2.879999876022339,
				0,
				-2.429999828338623
			],
			"type":"VEC3"
		},
		{
			"bufferView":41,
			"componentType":5126,
			"count":1133,
			"type":"VEC3"
		},
		{
			"bufferView":42,
			"componentType":5126,
			"count":1133,
			"type":"VEC2"
		},
		{
			"bufferView":43,
			"componentType":5126,
			"count":1133,
			"type":"VEC2"
		},
		{
			"bufferView":44,
			"componentType":5123,
			"count":2256,
			"type":"SCALAR"
		},
		{
			"bufferView":45,
			"componentType":5126,
			"count":89106,
			"max":[
				2.880000114440918,
				3.065000057220459,
				2.3350000381469727
			],
			"min":[
				-2.9049999713897705,
				-0.004999995231628418,
				-2.4549999237060547
			],
			"type":"VEC3"
		},
		{
			"bufferView":46,
			"componentType":5126,
			"count":89106,
			"type":"VEC3"
		},
		{
			"bufferView":47,
			"componentType":5126,
			"count":89106,
			"type":"VEC2"
		},
		{
			"bufferView":48,
			"componentType":5126,
			"count":89106,
			"type":"VEC2"
		},
		{
			"bufferView":49,
			"componentType":5125,
			"count":230484,
			"type":"SCALAR"
		},
		{
			"bufferView":50,
			"componentType":5126,
			"count":8862,
			"max":[
				2.343602418899536,
				2.5904998779296875,
				2.055500030517578
			],
			"min":[
				-2.690000057220459,
				0.009999990463256836,
				-2.3575000762939453
			],
			"type":"VEC3"
		},
		{
			"bufferView":51,
			"componentType":5126,
			"count":8862,
			"type":"VEC3"
		},
		{
			"bufferView":52,
			"componentType":5126,
			"count":8862,
			"type":"VEC2"
		},
		{
			"bufferView":53,
			"componentType":5126,
			"count":8862,
			"type":"VEC2"
		},
		{
			"bufferView":54,
			"componentType":5123,
			"count":16056,
			"type":"SCALAR"
		},
		{
			"bufferView":55,
			"componentType":5126,
			"count":40297,
			"max":[
				2.101264238357544,
				1.4408491849899292,
				1.5884315967559814
			],
			"min":[
				-0.4399999976158142,
				0.1119999960064888,
				-2.195000171661377
			],
			"type":"VEC3"
		},
		{
			"bufferView":56,
			"componentType":5126,
			"count":40297,
			"type":"VEC3"
		},
		{
			"bufferView":57,
			"componentType":5126,
			"count":40297,
			"type":"VEC2"
		},
		{
			"bufferView":58,
			"componentType":5126,
			"count":40297,
			"type":"VEC2"
		},
		{
			"bufferView":59,
			"componentType":5123,
			"count":76680,
			"type":"SCALAR"
		},
		{
			"bufferView":60,
			"componentType":5126,
			"count":27506,
			"max":[
				2.352891683578491,
				2.5450000762939453,
				1.6570000648498535
			],
			"min":[
				-2.6752285957336426,
				0.019999980926513672,
				-2.234499931335449
			],
			"type":"VEC3"
		},
		{
			"bufferView":61,
			"componentType":5126,
			"count":27506,
			"type":"VEC3"
		},
		{
			"bufferView":62,
			"componentType":5126,
			"count":27506,
			"type":"VEC2"
		},
		{
			"bufferView":63,
			"componentType":5126,
			"count":27506,
			"type":"VEC2"
		},
		{
			"bufferView":64,
			"componentType":5123,
			"count":73980,
			"type":"SCALAR"
		},
		{
			"bufferView":65,
			"componentType":5126,
			"count":3880,
			"max":[
				2.3135454654693604,
				2.6619999408721924,
				1.3356842994689941
			],
			"min":[
				-2.512500047683716,
				0.28651162981987,
				-1.7050000429153442
			],
			"type":"VEC3"
		},
		{
			"bufferView":66,
			"componentType":5126,
			"count":3880,
			"type":"VEC3"
		},
		{
			"bufferView":67,
			"componentType":5126,
			"count":3880,
			"type":"VEC2"
		},
		{
			"bufferView":68,
			"componentType":5126,
			"count":3880,
			"type":"VEC2"
		},
		{
			"bufferView":69,
			"componentType":5123,
			"count":10284,
			"type":"SCALAR"
		},
		{
			"bufferView":70,
			"componentType":5126,
			"count":27218,
			"max":[
				2.3384008407592773,
				2.121999979019165,
				1.7400000095367432
			],
			"min":[
				-2.549999952316284,
				0.06261807680130005,
				-2.115999937057495
			],
			"type":"VEC3"
		},
		{
			"bufferView":71,
			"componentType":5126,
			"count":27218,
			"type":"VEC3"
		},
		{
			"bufferView":72,
			"componentType":5126,
			"count":27218,
			"type":"VEC2"
		},
		{
			"bufferView":73,
			"componentType":5126,
			"count":27218,
			"type":"VEC2"
		},
		{
			"bufferView":74,
			"componentType":5123,
			"count":44088,
			"type":"SCALAR"
		},
		{
			"bufferView":75,
			"componentType":5126,
			"count":5409,
			"max":[
				0.5830934047698975,
				2.157860279083252,
				-0.9163820743560791
			],
			"min":[
				-2.559999942779541,
				0.7863602042198181,
				-2.134000062942505
			],
			"type":"VEC3"
		},
		{
			"bufferView":76,
			"componentType":5126,
			"count":5409,
			"type":"VEC3"
		},
		{
			"bufferView":77,
			"componentType":5126,
			"count":5409,
			"type":"VEC2"
		},
		{
			"bufferView":78,
			"componentType":5126,
			"count":5409,
			"type":"VEC2"
		},
		{
			"bufferView":79,
			"componentType":5123,
			"count":9684,
			"type":"SCALAR"
		},
		{
			"bufferView":80,
			"componentType":5126,
			"count":8529,
			"max":[
				2.108706474304199,
				2.2750000953674316,
				1.8336941003799438
			],
			"min":[
				-2.559999942779541,
				0.06549999862909317,
				-2.125
			],
			"type":"VEC3"
		},
		{
			"bufferView":81,
			"componentType":5126,
			"count":8529,
			"type":"VEC3"
		},
		{
			"bufferView":82,
			"componentType":5126,
			"count":8529,
			"type":"VEC2"
		},
		{
			"bufferView":83,
			"componentType":5126,
			"count":8529,
			"type":"VEC2"
		},
		{
			"bufferView":84,
			"componentType":5123,
			"count":23544,
			"type":"SCALAR"
		},
		{
			"bufferView":85,
			"componentType":5126,
			"count":6005,
			"max":[
				2.2468395233154297,
				2.2907907962799072,
				1.4969984292984009
			],
			"min":[
				-2.559999942779541,
				0.07499998807907104,
				-2.134000062942505
			],
			"type":"VEC3"
		},
		{
			"bufferView":86,
			"componentType":5126,
			"count":6005,
			"type":"VEC3"
		},
		{
			"bufferView":87,
			"componentType":5126,
			"count":6005,
			"type":"VEC2"
		},
		{
			"bufferView":88,
			"componentType":5126,
			"count":6005,
			"type":"VEC2"
		},
		{
			"bufferView":89,
			"componentType":5123,
			"count":12612,
			"type":"SCALAR"
		},
		{
			"bufferView":90,
			"componentType":5126,
			"count":688,
			"max":[
				0.17399999499320984,
				1.3352826833724976,
				1.2480511665344238
			],
			"min":[
				-2.2574081420898438,
				0.6740000247955322,
				-1.7493358850479126
			],
			"type":"VEC3"
		},
		{
			"bufferView":91,
			"componentType":5126,
			"count":688,
			"type":"VEC3"
		},
		{
			"bufferView":92,
			"componentType":5126,
			"count":688,
			"type":"VEC2"
		},
		{
			"bufferView":93,
			"componentType":5126,
			"count":688,
			"type":"VEC2"
		},
		{
			"bufferView":94,
			"componentType":5123,
			"count":1128,
			"type":"SCALAR"
		},
		{
			"bufferView":95,
			"componentType":5126,
			"count":953,
			"max":[
				0.7052602767944336,
				2.2872378826141357,
				1.274999976158142
			],
			"min":[
				-2.3450000286102295,
				0.31300002336502075,
				-2.134000062942505
			],
			"type":"VEC3"
		},
		{
			"bufferView":96,
			"componentType":5126,
			"count":953,
			"type":"VEC3"
		},
		{
			"bufferView":97,
			"componentType":5126,
			"count":953,
			"type":"VEC2"
		},
		{
			"bufferView":98,
			"componentType":5126,
			"count":953,
			"type":"VEC2"
		},
		{
			"bufferView":99,
			"componentType":5123,
			"count":1692,
			"type":"SCALAR"
		},
		{
			"bufferView":100,
			"componentType":5126,
			"count":778,
			"max":[
				-0.38499999046325684,
				1.3639999628067017,
				-1.3849999904632568
			],
			"min":[
				-0.574999988079071,
				1.3560000658035278,
				-1.5750000476837158
			],
			"type":"VEC3"
		},
		{
			"bufferView":101,
			"componentType":5126,
			"count":778,
			"type":"VEC3"
		},
		{
			"bufferView":102,
			"componentType":5126,
			"count":778,
			"type":"VEC2"
		},
		{
			"bufferView":103,
			"componentType":5126,
			"count":778,
			"type":"VEC2"
		},
		{
			"bufferView":104,
			"componentType":5123,
			"count":1524,
			"type":"SCALAR"
		},
		{
			"bufferView":105,
			"componentType":5126,
			"count":18201,
			"max":[
				-1.0296599864959717,
				2.3973400592803955,
				-2.1550002098083496
			],
			"min":[
				-2.2044200897216797,
				2.1316616535186768,
				-2.1710000038146973
			],
			"type":"VEC3"
		},
		{
			"bufferView":106,
			"componentType":5126,
			"count":18201,
			"type":"VEC3"
		},
		{
			"bufferView":107,
			"componentType":5126,
			"count":18201,
			"type":"VEC2"
		},
		{
			"bufferView":108,
			"componentType":5126,
			"count":18201,
			"type":"VEC2"
		},
		{
			"bufferView":109,
			"componentType":5123,
			"count":81900,
			"type":"SCALAR"
		},
		{
			"bufferView":110,
			"componentType":5126,
			"count":329,
			"max":[
				0.7100000381469727,
				2.3550000190734863,
				-2.1440000534057617
			],
			"min":[
				-0.4099999964237213,
				1.684999942779541,
				-2.1579999923706055
			],
			"type":"VEC3"
		},
		{
			"bufferView":111,
			"componentType":5126,
			"count":329,
			"type":"VEC3"
		},
		{
			"bufferView":112,
			"componentType":5126,
			"count":329,
			"type":"VEC2"
		},
		{
			"bufferView":113,
			"componentType":5126,
			"count":329,
			"type":"VEC2"
		},
		{
			"bufferView":114,
			"componentType":5123,
			"count":564,
			"type":"SCALAR"
		},
		{
			"bufferView":115,
			"componentType":5126,
			"count":335,
			"max":[
				-2.61899995803833,
				2.570000171661377,
				0.9750000238418579
			],
			"min":[
				-2.63700008392334,
				1.350000023841858,
				-0.17499998211860657
			],
			"type":"VEC3"
		},
		{
			"bufferView":116,
			"componentType":5126,
			"count":335,
			"type":"VEC3"
		},
		{
			"bufferView":117,
			"componentType":5126,
			"count":335,
			"type":"VEC2"
		},
		{
			"bufferView":118,
			"componentType":5126,
			"count":335,
			"type":"VEC2"
		},
		{
			"bufferView":119,
			"componentType":5123,
			"count":564,
			"type":"SCALAR"
		},
		{
			"bufferView":120,
			"componentType":5126,
			"count":24156,
			"max":[
				-2.2760000228881836,
				2.2124791145324707,
				0.9509927034378052
			],
			"min":[
				-2.5536136627197266,
				1.4347895383834839,
				-1.600091814994812
			],
			"type":"VEC3"
		},
		{
			"bufferView":121,
			"componentType":5126,
			"count":24156,
			"type":"VEC3"
		},
		{
			"bufferView":122,
			"componentType":5126,
			"count":24156,
			"type":"VEC2"
		},
		{
			"bufferView":123,
			"componentType":5126,
			"count":24156,
			"type":"VEC2"
		},
		{
			"bufferView":124,
			"componentType":5123,
			"count":55944,
			"type":"SCALAR"
		},
		{
			"bufferView":125,
			"componentType":5126,
			"count":3011,
			"max":[
				1.5099999904632568,
				0.06450000405311584,
				1.8576676845550537
			],
			"min":[
				-0.9100000262260437,
				0.039500001817941666,
				-0.39766767621040344
			],
			"type":"VEC3"
		},
		{
			"bufferView":126,
			"componentType":5126,
			"count":3011,
			"type":"VEC3"
		},
		{
			"bufferView":127,
			"componentType":5126,
			"count":3011,
			"type":"VEC2"
		},
		{
			"bufferView":128,
			"componentType":5126,
			"count":3011,
			"type":"VEC2"
		},
		{
			"bufferView":129,
			"componentType":5123,
			"count":6324,
			"type":"SCALAR"
		},
		{
			"bufferView":130,
			"componentType":5126,
			"count":4,
			"max":[
				-2.575000047683716,
				2.461229085922241,
				1.9754999876022339
			],
			"min":[
				-2.575000047683716,
				1.6987708806991577,
				1.344499945640564
			],
			"type":"VEC3"
		},
		{
			"bufferView":131,
			"componentType":5126,
			"count":4,
			"type":"VEC3"
		},
		{
			"bufferView":132,
			"componentType":5126,
			"count":4,
			"type":"VEC2"
		},
		{
			"bufferView":133,
			"componentType":5126,
			"count":4,
			"type":"VEC2"
		},
		{
			"bufferView":134,
			"componentType":5123,
			"count":6,
			"type":"SCALAR"
		},
		{
			"bufferView":135,
			"componentType":5126,
			"count":4,
			"max":[
				-1.4900000095367432,
				1.936204195022583,
				-2.1470000743865967
			],
			"min":[
				-1.8899999856948853,
				1.3937958478927612,
				-2.1470000743865967
			],
			"type":"VEC3"
		},
		{
			"bufferView":136,
			"componentType":5126,
			"count":4,
			"type":"VEC3"
		},
		{
			"bufferView":137,
			"componentType":5126,
			"count":4,
			"type":"VEC2"
		},
		{
			"bufferView":138,
			"componentType":5126,
			"count":4,
			"type":"VEC2"
		}
	],
	"bufferViews":[
		{
			"buffer":0,
			"byteLength":89328,
			"byteOffset":0,
			"target":34962
		},
		{
			"buffer":0,
			"byteLength":89328,
			"byteOffset":89328,
			"target":34962
		},
		{
			"buffer":0,
			"byteLength":59552,
			"byteOffset":178656,
			"target":34962
		},
		{
			"buffer":0,
			"byteLength":59552,
			"byteOffset":238208,
			"target":34962
		},
		{
			"buffer":0,
			"byteLength":34656,
			"byteOffset":297760,
			"target":34963
		},
		{
			"buffer":0,
			"byteLength":39924,
			"byteOffset":332416,
			"target":34962
		},
		{
			"buffer":0,
			"byteLength":39924,
			"byteOffset":372340,
			"target":34962
		},
		{
			"buffer":0,
			"byteLength":26616,
			"byteOffset":412264,
			"target":34962
		},
		{
			"buffer":0,
			"byteLength":26616,
			"byteOffset":438880,
			"target":34962
		},
		{
			"buffer":0,
			"byteLength":12408,
			"byteOffset":465496,
			"target":34963
		},
		{
			"buffer":0,
			"byteLength":54672,
			"byteOffset":477904,
			"target":34962
		},
		{
			"buffer":0,
			"byteLength":54672,
			"byteOffset":532576,
			"target":34962
		},
		{
			"buffer":0,
			"byteLength":36448,
			"byteOffset":587248,
			"target":34962
		},
		{
			"buffer":0,
			"byteLength":36448,
			"byteOffset":623696,
			"target":34962
		},
		{
			"buffer":0,
			"byteLength":16920,
			"byteOffset":660144,
			"target":34963
		},
		{
			"buffer":0,
			"byteLength":55008,
			"byteOffset":677064,
			"target":34962
		},
		{
			"buffer":0,
			"byteLength":55008,
			"byteOffset":732072,
			"target":34962
		},
		{
			"buffer":0,
			"byteLength":36672,
			"byteOffset":787080,
			"target":34962
		},
		{
			"buffer":0,
			"byteLength":36672,
			"byteOffset":823752,
			"target":34962
		},
		{
			"buffer":0,
			"byteLength":16920,
			"byteOffset":860424,
			"target":34963
		},
		{
			"buffer":0,
			"byteLength":58404,
			"byteOffset":877344,
			"target":34962
		},
		{
			"buffer":0,
			"byteLength":58404,
			"byteOffset":935748,
			"target":34962
		},
		{
			"buffer":0,
			"byteLength":38936,
			"byteOffset":994152,
			"target":34962
		},
		{
			"buffer":0,
			"byteLength":38936,
			"byteOffset":1033088,
			"target":34962
		},
		{
			"buffer":0,
			"byteLength":18048,
			"byteOffset":1072024,
			"target":34963
		},
		{
			"buffer":0,
			"byteLength":39600,
			"byteOffset":1090072,
			"target":34962
		},
		{
			"buffer":0,
			"byteLength":39600,
			"byteOffset":1129672,
			"target":34962
		},
		{
			"buffer":0,
			"byteLength":26400,
			"byteOffset":1169272,
			"target":34962
		},
		{
			"buffer":0,
			"byteLength":26400,
			"byteOffset":1195672,
			"target":34962
		},
		{
			"buffer":0,
			"byteLength":12408,
			"byteOffset":1222072,
			"target":34963
		},
		{
			"buffer":0,
			"byteLength":39192,
			"byteOffset":1234480,
			"target":34962
		},
		{
			"buffer":0,
			"byteLength":39192,
			"byteOffset":1273672,
			"target":34962
		},
		{
			"buffer":0,
			"byteLength":26128,
			"byteOffset":1312864,
			"target":34962
		},
		{
			"buffer":0,
			"byteLength":26128,
			"byteOffset":1338992,
			"target":34962
		},
		{
			"buffer":0,
			"byteLength":12408,
			"byteOffset":1365120,
			"target":34963
		},
		{
			"buffer":0,
			"byteLength":39516,
			"byteOffset":1377528,
			"target":34962
		},
		{
			"buffer":0,
			"byteLength":39516,
			"byteOffset":1417044,
			"target":34962
		},
		{
			"buffer":0,
			"byteLength":26344,
			"byteOffset":1456560,
			"target":34962
		},
		{
			"buffer":0,
			"byteLength":26344,
			"byteOffset":1482904,
			"target":34962
		},
		{
			"buffer":0,
			"byteLength":12408,
			"byteOffset":1509248,
			"target":34963
		},
		{
			"buffer":0,
			"byteLength":13596,
			"byteOffset":1521656,
			"target":34962
		},
		{
			"buffer":0,
			"byteLength":13596,
			"byteOffset":1535252,
			"target":34962
		},
		{
			"buffer":0,
			"byteLength":9064,
			"byteOffset":1548848,
			"target":34962
		},
		{
			"buffer":0,
			"byteLength":9064,
			"byteOffset":1557912,
			"target":34962
		},
		{
			"buffer":0,
			"byteLength":4512,
			"byteOffset":1566976,
			"target":34963
		},
		{
			"buffer":0,
			"byteLength":1069272,
			"byteOffset":1571488,
			"target":34962
		},
		{
			"buffer":0,
			"byteLength":1069272,
			"byteOffset":2640760,
			"target":34962
		},
		{
			"buffer":0,
			"byteLength":712848,
			"byteOffset":3710032,
			"target":34962
		},
		{
			"buffer":0,
			"byteLength":712848,
			"byteOffset":4422880,
			"target":34962
		},
		{
			"buffer":0,
			"byteLength":921936,
			"byteOffset":5135728,
			"target":34963
		},
		{
			"buffer":0,
			"byteLength":106344,
			"byteOffset":6057664,
			"target":34962
		},
		{
			"buffer":0,
			"byteLength":106344,
			"byteOffset":6164008,
			"target":34962
		},
		{
			"buffer":0,
			"byteLength":70896,
			"byteOffset":6270352,
			"target":34962
		},
		{
			"buffer":0,
			"byteLength":70896,
			"byteOffset":6341248,
			"target":34962
		},
		{
			"buffer":0,
			"byteLength":32112,
			"byteOffset":6412144,
			"target":34963
		},
		{
			"buffer":0,
			"byteLength":483564,
			"byteOffset":6444256,
			"target":34962
		},
		{
			"buffer":0,
			"byteLength":483564,
			"byteOffset":6927820,
			"target":34962
		},
		{
			"buffer":0,
			"byteLength":322376,
			"byteOffset":7411384,
			"target":34962
		},
		{
			"buffer":0,
			"byteLength":322376,
			"byteOffset":7733760,
			"target":34962
		},
		{
			"buffer":0,
			"byteLength":153360,
			"byteOffset":8056136,
			"target":34963
		},
		{
			"buffer":0,
			"byteLength":330072,
			"byteOffset":8209496,
			"target":34962
		},
		{
			"buffer":0,
			"byteLength":330072,
			"byteOffset":8539568,
			"target":34962
		},
		{
			"buffer":0,
			"byteLength":220048,
			"byteOffset":8869640,
			"target":34962
		},
		{
			"buffer":0,
			"byteLength":220048,
			"byteOffset":9089688,
			"target":34962
		},
		{
			"buffer":0,
			"byteLength":147960,
			"byteOffset":9309736,
			"target":34963
		},
		{
			"buffer":0,
			"byteLength":46560,
			"byteOffset":9457696,
			"target":34962
		},
		{
			"buffer":0,
			"byteLength":46560,
			"byteOffset":9504256,
			"target":34962
		},
		{
			"buffer":0,
			"byteLength":31040,
			"byteOffset":9550816,
			"target":34962
		},
		{
			"buffer":0,
			"byteLength":31040,
			"byteOffset":9581856,
			"target":34962
		},
		{
			"buffer":0,
			"byteLength":20568,
			"byteOffset":9612896,
			"target":34963
		},
		{
			"buffer":0,
			"byteLength":326616,
			"byteOffset":9633464,
			"target":34962
		},
		{
			"buffer":0,
			"byteLength":326616,
			"byteOffset":9960080,
			"target":34962
		},
		{
			"buffer":0,
			"byteLength":217744,
			"byteOffset":10286696,
			"target":34962
		},
		{
			"buffer":0,
			"byteLength":217744,
			"byteOffset":10504440,
			"target":34962
		},
		{
			"buffer":0,
			"byteLength":88176,
			"byteOffset":10722184,
			"target":34963
		},
		{
			"buffer":0,
			"byteLength":64908,
			"byteOffset":10810360,
			"target":34962
		},
		{
			"buffer":0,
			"byteLength":64908,
			"byteOffset":10875268,
			"target":34962
		},
		{
			"buffer":0,
			"byteLength":43272,
			"byteOffset":10940176,
			"target":34962
		},
		{
			"buffer":0,
			"byteLength":43272,
			"byteOffset":10983448,
			"target":34962
		},
		{
			"buffer":0,
			"byteLength":19368,
			"byteOffset":11026720,
			"target":34963
		},
		{
			"buffer":0,
			"byteLength":102348,
			"byteOffset":11046088,
			"target":34962
		},
		{
			"buffer":0,
			"byteLength":102348,
			"byteOffset":11148436,
			"target":34962
		},
		{
			"buffer":0,
			"byteLength":68232,
			"byteOffset":11250784,
			"target":34962
		},
		{
			"buffer":0,
			"byteLength":68232,
			"byteOffset":11319016,
			"target":34962
		},
		{
			"buffer":0,
			"byteLength":47088,
			"byteOffset":11387248,
			"target":34963
		},
		{
			"buffer":0,
			"byteLength":72060,
			"byteOffset":11434336,
			"target":34962
		},
		{
			"buffer":0,
			"byteLength":72060,
			"byteOffset":11506396,
			"target":34962
		},
		{
			"buffer":0,
			"byteLength":48040,
			"byteOffset":11578456,
			"target":34962
		},
		{
			"buffer":0,
			"byteLength":48040,
			"byteOffset":11626496,
			"target":34962
		},
		{
			"buffer":0,
			"byteLength":25224,
			"byteOffset":11674536,
			"target":34963
		},
		{
			"buffer":0,
			"byteLength":8256,
			"byteOffset":11699760,
			"target":34962
		},
		{
			"buffer":0,
			"byteLength":8256,
			"byteOffset":11708016,
			"target":34962
		},
		{
			"buffer":0,
			"byteLength":5504,
			"byteOffset":11716272,
			"target":34962
		},
		{
			"buffer":0,
			"byteLength":5504,
			"byteOffset":11721776,
			"target":34962
		},
		{
			"buffer":0,
			"byteLength":2256,
			"byteOffset":11727280,
			"target":34963
		},
		{
			"buffer":0,
			"byteLength":11436,
			"byteOffset":11729536,
			"target":34962
		},
		{
			"buffer":0,
			"byteLength":11436,
			"byteOffset":11740972,
			"target":34962
		},
		{
			"buffer":0,
			"byteLength":7624,
			"byteOffset":11752408,
			"target":34962
		},
		{
			"buffer":0,
			"byteLength":7624,
			"byteOffset":11760032,
			"target":34962
		},
		{
			"buffer":0,
			"byteLength":3384,
			"byteOffset":11767656,
			"target":34963
		},
		{
			"buffer":0,
			"byteLength":9336,
			"byteOffset":11771040,
			"target":34962
		},
		{
			"buffer":0,
			"byteLength":9336,
			"byteOffset":11780376,
			"target":34962
		},
		{
			"buffer":0,
			"byteLength":6224,
			"byteOffset":11789712,
			"target":34962
		},
		{
			"buffer":0,
			"byteLength":6224,
			"byteOffset":11795936,
			"target":34962
		},
		{
			"buffer":0,
			"byteLength":3048,
			"byteOffset":11802160,
			"target":34963
		},
		{
			"buffer":0,
			"byteLength":218412,
			"byteOffset":11805208,
			"target":34962
		},
		{
			"buffer":0,
			"byteLength":218412,
			"byteOffset":12023620,
			"target":34962
		},
		{
			"buffer":0,
			"byteLength":145608,
			"byteOffset":12242032,
			"target":34962
		},
		{
			"buffer":0,
			"byteLength":145608,
			"byteOffset":12387640,
			"target":34962
		},
		{
			"buffer":0,
			"byteLength":163800,
			"byteOffset":12533248,
			"target":34963
		},
		{
			"buffer":0,
			"byteLength":3948,
			"byteOffset":12697048,
			"target":34962
		},
		{
			"buffer":0,
			"byteLength":3948,
			"byteOffset":12700996,
			"target":34962
		},
		{
			"buffer":0,
			"byteLength":2632,
			"byteOffset":12704944,
			"target":34962
		},
		{
			"buffer":0,
			"byteLength":2632,
			"byteOffset":12707576,
			"target":34962
		},
		{
			"buffer":0,
			"byteLength":1128,
			"byteOffset":12710208,
			"target":34963
		},
		{
			"buffer":0,
			"byteLength":4020,
			"byteOffset":12711336,
			"target":34962
		},
		{
			"buffer":0,
			"byteLength":4020,
			"byteOffset":12715356,
			"target":34962
		},
		{
			"buffer":0,
			"byteLength":2680,
			"byteOffset":12719376,
			"target":34962
		},
		{
			"buffer":0,
			"byteLength":2680,
			"byteOffset":12722056,
			"target":34962
		},
		{
			"buffer":0,
			"byteLength":1128,
			"byteOffset":12724736,
			"target":34963
		},
		{
			"buffer":0,
			"byteLength":289872,
			"byteOffset":12725864,
			"target":34962
		},
		{
			"buffer":0,
			"byteLength":289872,
			"byteOffset":13015736,
			"target":34962
		},
		{
			"buffer":0,
			"byteLength":193248,
			"byteOffset":13305608,
			"target":34962
		},
		{
			"buffer":0,
			"byteLength":193248,
			"byteOffset":13498856,
			"target":34962
		},
		{
			"buffer":0,
			"byteLength":111888,
			"byteOffset":13692104,
			"target":34963
		},
		{
			"buffer":0,
			"byteLength":36132,
			"byteOffset":13803992,
			"target":34962
		},
		{
			"buffer":0,
			"byteLength":36132,
			"byteOffset":13840124,
			"target":34962
		},
		{
			"buffer":0,
			"byteLength":24088,
			"byteOffset":13876256,
			"target":34962
		},
		{
			"buffer":0,
			"byteLength":24088,
			"byteOffset":13900344,
			"target":34962
		},
		{
			"buffer":0,
			"byteLength":12648,
			"byteOffset":13924432,
			"target":34963
		},
		{
			"buffer":0,
			"byteLength":48,
			"byteOffset":13937080,
			"target":34962
		},
		{
			"buffer":0,
			"byteLength":48,
			"byteOffset":13937128,
			"target":34962
		},
		{
			"buffer":0,
			"byteLength":32,
			"byteOffset":13937176,
			"target":34962
		},
		{
			"buffer":0,
			"byteLength":32,
			"byteOffset":13937208,
			"target":34962
		},
		{
			"buffer":0,
			"byteLength":12,
			"byteOffset":13937240,
			"target":34963
		},
		{
			"buffer":0,
			"byteLength":48,
			"byteOffset":13937252,
			"target":34962
		},
		{
			"buffer":0,
			"byteLength":48,
			"byteOffset":13937300,
			"target":34962
		},
		{
			"buffer":0,
			"byteLength":32,
			"byteOffset":13937348,
			"target":34962
		},
		{
			"buffer":0,
			"byteLength":32,
			"byteOffset":13937380,
			"target":34962
		}
	],
	"samplers":[
		{
			"magFilter":9729,
			"minFilter":9987
		}
	],
	"buffers":[
		{
			"byteLength":13937412,
			"uri":"bozzard_dorm.bin"
		}
	]
}
