{
  "asset": {
    "version": "2.0",
    "generator": "Bozzard material-gallery/generate.py (CC0)"
  },
  "scene": 0,
  "scenes": [
    {
      "nodes": [
        0
      ]
    }
  ],
  "nodes": [
    {
      "name": "walnut",
      "mesh": 0
    }
  ],
  "meshes": [
    {
      "name": "walnut",
      "primitives": [
        {
          "attributes": {
            "POSITION": 4,
            "NORMAL": 5,
            "TEXCOORD_0": 6
          },
          "indices": 7,
          "material": 0
        }
      ]
    }
  ],
  "materials": [
    {
      "name": "walnut",
      "pbrMetallicRoughness": {
        "baseColorFactor": [
          1,
          1,
          1,
          1
        ],
        "metallicFactor": 0,
        "roughnessFactor": 1,
        "baseColorTexture": {
          "index": 0
        },
        "metallicRoughnessTexture": {
          "index": 2
        }
      },
      "normalTexture": {
        "index": 1,
        "scale": 0.65
      }
    }
  ],
  "buffers": [
    {
      "uri": "geometry.bin",
      "byteLength": 72608
    }
  ],
  "bufferViews": [
    {
      "buffer": 0,
      "byteOffset": 0,
      "byteLength": 14700
    },
    {
      "buffer": 0,
      "byteOffset": 14700,
      "byteLength": 14700
    },
    {
      "buffer": 0,
      "byteOffset": 29400,
      "byteLength": 9800
    },
    {
      "buffer": 0,
      "byteOffset": 39200,
      "byteLength": 13248
    },
    {
      "buffer": 0,
      "byteOffset": 52448,
      "byteLength": 5832
    },
    {
      "buffer": 0,
      "byteOffset": 58280,
      "byteLength": 5832
    },
    {
      "buffer": 0,
      "byteOffset": 64112,
      "byteLength": 3888
    },
    {
      "buffer": 0,
      "byteOffset": 68000,
      "byteLength": 4608
    }
  ],
  "accessors": [
    {
      "bufferView": 0,
      "componentType": 5126,
      "count": 1225,
      "type": "VEC3",
      "min": [
        -0.5,
        -0.5,
        -0.5
      ],
      "max": [
        0.5,
        0.5,
        0.5
      ]
    },
    {
      "bufferView": 1,
      "componentType": 5126,
      "count": 1225,
      "type": "VEC3"
    },
    {
      "bufferView": 2,
      "componentType": 5126,
      "count": 1225,
      "type": "VEC2"
    },
    {
      "bufferView": 3,
      "componentType": 5123,
      "count": 6624,
      "type": "SCALAR"
    },
    {
      "bufferView": 4,
      "componentType": 5126,
      "count": 486,
      "type": "VEC3",
      "min": [
        -0.5,
        -0.5,
        -0.5
      ],
      "max": [
        0.5,
        0.5,
        0.5
      ]
    },
    {
      "bufferView": 5,
      "componentType": 5126,
      "count": 486,
      "type": "VEC3"
    },
    {
      "bufferView": 6,
      "componentType": 5126,
      "count": 486,
      "type": "VEC2"
    },
    {
      "bufferView": 7,
      "componentType": 5123,
      "count": 2304,
      "type": "SCALAR"
    }
  ],
  "images": [
    {
      "uri": "walnut-color.png"
    },
    {
      "uri": "walnut-normal.png"
    },
    {
      "uri": "walnut-mr.png"
    }
  ],
  "samplers": [
    {
      "magFilter": 9729,
      "minFilter": 9987,
      "wrapS": 10497,
      "wrapT": 10497
    }
  ],
  "textures": [
    {
      "source": 0,
      "sampler": 0
    },
    {
      "source": 1,
      "sampler": 0
    },
    {
      "source": 2,
      "sampler": 0
    }
  ]
}
