{
 "asset": {
  "version": "2.0",
  "generator": "Bozzard tools/gen_pagoda.py"
 },
 "scene": 0,
 "scenes": [
  {
   "nodes": [
    0
   ]
  }
 ],
 "nodes": [
  {
   "name": "tree-cherry-1p3-white-ffb7ce",
   "mesh": 0
  }
 ],
 "meshes": [
  {
   "name": "tree-cherry-1p3-white-ffb7ce",
   "primitives": [
    {
     "attributes": {
      "POSITION": 0,
      "NORMAL": 1
     },
     "indices": 2,
     "material": 0
    }
   ]
  }
 ],
 "materials": [
  {
   "name": "c-ffb7ce",
   "pbrMetallicRoughness": {
    "baseColorFactor": [
     1.0,
     0.473531,
     0.617207,
     1.0
    ],
    "metallicFactor": 0.0,
    "roughnessFactor": 1.0
   }
  }
 ],
 "buffers": [
  {
   "uri": "data:application/octet-stream;base64,",
   "byteLength": 8964
  }
 ],
 "bufferViews": [
  {
   "buffer": 0,
   "byteOffset": 0,
   "byteLength": 3984,
   "target": 34962
  },
  {
   "buffer": 0,
   "byteOffset": 3984,
   "byteLength": 3984,
   "target": 34962
  },
  {
   "buffer": 0,
   "byteOffset": 7968,
   "byteLength": 996,
   "target": 34963
  }
 ],
 "accessors": [
  {
   "bufferView": 0,
   "componentType": 5126,
   "count": 332,
   "type": "VEC3",
   "min": [
    -6.5,
    11.0,
    -6.5
   ],
   "max": [
    6.5,
    23.0,
    7.5
   ]
  },
  {
   "bufferView": 1,
   "componentType": 5126,
   "count": 332,
   "type": "VEC3"
  },
  {
   "bufferView": 2,
   "componentType": 5123,
   "count": 498,
   "type": "SCALAR"
  }
 ]
}
