{
 "asset": {
  "version": "2.0",
  "generator": "Bozzard tools/gen_pagoda.py"
 },
 "scene": 0,
 "scenes": [
  {
   "nodes": [
    0
   ]
  }
 ],
 "nodes": [
  {
   "name": "tree-cherry-1p25-white-ff9dbb",
   "mesh": 0
  }
 ],
 "meshes": [
  {
   "name": "tree-cherry-1p25-white-ff9dbb",
   "primitives": [
    {
     "attributes": {
      "POSITION": 0,
      "NORMAL": 1
     },
     "indices": 2,
     "material": 0
    }
   ]
  }
 ],
 "materials": [
  {
   "name": "c-ff9dbb",
   "pbrMetallicRoughness": {
    "baseColorFactor": [
     1.0,
     0.337164,
     0.496933,
     1.0
    ],
    "metallicFactor": 0.0,
    "roughnessFactor": 1.0
   }
  }
 ],
 "buffers": [
  {
   "uri": "data:application/octet-stream;base64,",
   "byteLength": 11772
  }
 ],
 "bufferViews": [
  {
   "buffer": 0,
   "byteOffset": 0,
   "byteLength": 5232,
   "target": 34962
  },
  {
   "buffer": 0,
   "byteOffset": 5232,
   "byteLength": 5232,
   "target": 34962
  },
  {
   "buffer": 0,
   "byteOffset": 10464,
   "byteLength": 1308,
   "target": 34963
  }
 ],
 "accessors": [
  {
   "bufferView": 0,
   "componentType": 5126,
   "count": 436,
   "type": "VEC3",
   "min": [
    -7.5,
    10.0,
    -6.5
   ],
   "max": [
    7.5,
    21.0,
    7.5
   ]
  },
  {
   "bufferView": 1,
   "componentType": 5126,
   "count": 436,
   "type": "VEC3"
  },
  {
   "bufferView": 2,
   "componentType": 5123,
   "count": 654,
   "type": "SCALAR"
  }
 ]
}
