{
 "asset": {
  "version": "2.0",
  "generator": "Bozzard tools/gen_pagoda.py"
 },
 "scene": 0,
 "scenes": [
  {
   "nodes": [
    0
   ]
  }
 ],
 "nodes": [
  {
   "name": "tree-pine-0p9-28602f",
   "mesh": 0
  }
 ],
 "meshes": [
  {
   "name": "tree-pine-0p9-28602f",
   "primitives": [
    {
     "attributes": {
      "POSITION": 0,
      "NORMAL": 1
     },
     "indices": 2,
     "material": 0
    }
   ]
  }
 ],
 "materials": [
  {
   "name": "c-28602f",
   "pbrMetallicRoughness": {
    "baseColorFactor": [
     0.021219,
     0.116971,
     0.028426,
     1.0
    ],
    "metallicFactor": 0.0,
    "roughnessFactor": 1.0
   }
  }
 ],
 "buffers": [
  {
   "uri": "data:application/octet-stream;base64,",
   "byteLength": 4320
  }
 ],
 "bufferViews": [
  {
   "buffer": 0,
   "byteOffset": 0,
   "byteLength": 1920,
   "target": 34962
  },
  {
   "buffer": 0,
   "byteOffset": 1920,
   "byteLength": 1920,
   "target": 34962
  },
  {
   "buffer": 0,
   "byteOffset": 3840,
   "byteLength": 480,
   "target": 34963
  }
 ],
 "accessors": [
  {
   "bufferView": 0,
   "componentType": 5126,
   "count": 160,
   "type": "VEC3",
   "min": [
    -4.5,
    4.0,
    -3.5
   ],
   "max": [
    3.5,
    7.0,
    3.5
   ]
  },
  {
   "bufferView": 1,
   "componentType": 5126,
   "count": 160,
   "type": "VEC3"
  },
  {
   "bufferView": 2,
   "componentType": 5123,
   "count": 240,
   "type": "SCALAR"
  }
 ]
}
