{
 "asset": {
  "version": "2.0",
  "generator": "Bozzard tools/gen_pagoda.py"
 },
 "scene": 0,
 "scenes": [
  {
   "nodes": [
    0
   ]
  }
 ],
 "nodes": [
  {
   "name": "tree-pine-1p2-4e3220",
   "mesh": 0
  }
 ],
 "meshes": [
  {
   "name": "tree-pine-1p2-4e3220",
   "primitives": [
    {
     "attributes": {
      "POSITION": 0,
      "NORMAL": 1
     },
     "indices": 2,
     "material": 0
    }
   ]
  }
 ],
 "materials": [
  {
   "name": "c-4e3220",
   "pbrMetallicRoughness": {
    "baseColorFactor": [
     0.076185,
     0.031896,
     0.014444,
     1.0
    ],
    "metallicFactor": 0.0,
    "roughnessFactor": 1.0
   }
  }
 ],
 "buffers": [
  {
   "uri": "data:application/octet-stream;base64,",
   "byteLength": 540
  }
 ],
 "bufferViews": [
  {
   "buffer": 0,
   "byteOffset": 0,
   "byteLength": 240,
   "target": 34962
  },
  {
   "buffer": 0,
   "byteOffset": 240,
   "byteLength": 240,
   "target": 34962
  },
  {
   "buffer": 0,
   "byteOffset": 480,
   "byteLength": 60,
   "target": 34963
  }
 ],
 "accessors": [
  {
   "bufferView": 0,
   "componentType": 5126,
   "count": 20,
   "type": "VEC3",
   "min": [
    -0.5,
    3.0,
    -0.5
   ],
   "max": [
    0.5,
    10.0,
    0.5
   ]
  },
  {
   "bufferView": 1,
   "componentType": 5126,
   "count": 20,
   "type": "VEC3"
  },
  {
   "bufferView": 2,
   "componentType": 5123,
   "count": 30,
   "type": "SCALAR"
  }
 ]
}
