{
 "asset": {
  "version": "2.0",
  "generator": "Bozzard tools/gen_pagoda.py"
 },
 "scene": 0,
 "scenes": [
  {
   "nodes": [
    0
   ]
  }
 ],
 "nodes": [
  {
   "name": "tree-cherry-0p9-white-e77fa0",
   "mesh": 0
  }
 ],
 "meshes": [
  {
   "name": "tree-cherry-0p9-white-e77fa0",
   "primitives": [
    {
     "attributes": {
      "POSITION": 0,
      "NORMAL": 1
     },
     "indices": 2,
     "material": 0
    }
   ]
  }
 ],
 "materials": [
  {
   "name": "c-e77fa0",
   "pbrMetallicRoughness": {
    "baseColorFactor": [
     0.799103,
     0.212231,
     0.351533,
     1.0
    ],
    "metallicFactor": 0.0,
    "roughnessFactor": 1.0
   }
  }
 ],
 "buffers": [
  {
   "uri": "data:application/octet-stream;base64,",
   "byteLength": 4212
  }
 ],
 "bufferViews": [
  {
   "buffer": 0,
   "byteOffset": 0,
   "byteLength": 1872,
   "target": 34962
  },
  {
   "buffer": 0,
   "byteOffset": 1872,
   "byteLength": 1872,
   "target": 34962
  },
  {
   "buffer": 0,
   "byteOffset": 3744,
   "byteLength": 468,
   "target": 34963
  }
 ],
 "accessors": [
  {
   "bufferView": 0,
   "componentType": 5126,
   "count": 156,
   "type": "VEC3",
   "min": [
    -4.5,
    8.0,
    -4.5
   ],
   "max": [
    4.5,
    16.0,
    4.5
   ]
  },
  {
   "bufferView": 1,
   "componentType": 5126,
   "count": 156,
   "type": "VEC3"
  },
  {
   "bufferView": 2,
   "componentType": 5123,
   "count": 234,
   "type": "SCALAR"
  }
 ]
}
