{
 "asset": {
  "version": "2.0",
  "generator": "Bozzard tools/gen_pagoda.py"
 },
 "scene": 0,
 "scenes": [
  {
   "nodes": [
    0
   ]
  }
 ],
 "nodes": [
  {
   "name": "tree-maple-0p9-gold-d9662f",
   "mesh": 0
  }
 ],
 "meshes": [
  {
   "name": "tree-maple-0p9-gold-d9662f",
   "primitives": [
    {
     "attributes": {
      "POSITION": 0,
      "NORMAL": 1
     },
     "indices": 2,
     "material": 0
    }
   ]
  }
 ],
 "materials": [
  {
   "name": "c-d9662f",
   "pbrMetallicRoughness": {
    "baseColorFactor": [
     0.693872,
     0.132868,
     0.028426,
     1.0
    ],
    "metallicFactor": 0.0,
    "roughnessFactor": 1.0
   }
  }
 ],
 "buffers": [
  {
   "uri": "data:application/octet-stream;base64,",
   "byteLength": 3024
  }
 ],
 "bufferViews": [
  {
   "buffer": 0,
   "byteOffset": 0,
   "byteLength": 1344,
   "target": 34962
  },
  {
   "buffer": 0,
   "byteOffset": 1344,
   "byteLength": 1344,
   "target": 34962
  },
  {
   "buffer": 0,
   "byteOffset": 2688,
   "byteLength": 336,
   "target": 34963
  }
 ],
 "accessors": [
  {
   "bufferView": 0,
   "componentType": 5126,
   "count": 112,
   "type": "VEC3",
   "min": [
    -3.5,
    5.0,
    -2.5
   ],
   "max": [
    2.5,
    12.0,
    3.5
   ]
  },
  {
   "bufferView": 1,
   "componentType": 5126,
   "count": 112,
   "type": "VEC3"
  },
  {
   "bufferView": 2,
   "componentType": 5123,
   "count": 168,
   "type": "SCALAR"
  }
 ]
}
