{
 "asset": {
  "version": "2.0",
  "generator": "Bozzard tools/gen_pagoda.py"
 },
 "scene": 0,
 "scenes": [
  {
   "nodes": [
    0
   ]
  }
 ],
 "nodes": [
  {
   "name": "tree-pine-0p9-357a41",
   "mesh": 0
  }
 ],
 "meshes": [
  {
   "name": "tree-pine-0p9-357a41",
   "primitives": [
    {
     "attributes": {
      "POSITION": 0,
      "NORMAL": 1
     },
     "indices": 2,
     "material": 0
    }
   ]
  }
 ],
 "materials": [
  {
   "name": "c-357a41",
   "pbrMetallicRoughness": {
    "baseColorFactor": [
     0.035601,
     0.194618,
     0.052861,
     1.0
    ],
    "metallicFactor": 0.0,
    "roughnessFactor": 1.0
   }
  }
 ],
 "buffers": [
  {
   "uri": "data:application/octet-stream;base64,",
   "byteLength": 4968
  }
 ],
 "bufferViews": [
  {
   "buffer": 0,
   "byteOffset": 0,
   "byteLength": 2208,
   "target": 34962
  },
  {
   "buffer": 0,
   "byteOffset": 2208,
   "byteLength": 2208,
   "target": 34962
  },
  {
   "buffer": 0,
   "byteOffset": 4416,
   "byteLength": 552,
   "target": 34963
  }
 ],
 "accessors": [
  {
   "bufferView": 0,
   "componentType": 5126,
   "count": 184,
   "type": "VEC3",
   "min": [
    -3.5,
    4.0,
    -4.5
   ],
   "max": [
    2.5,
    7.0,
    3.5
   ]
  },
  {
   "bufferView": 1,
   "componentType": 5126,
   "count": 184,
   "type": "VEC3"
  },
  {
   "bufferView": 2,
   "componentType": 5123,
   "count": 276,
   "type": "SCALAR"
  }
 ]
}
