{
 "asset": {
  "version": "2.0",
  "generator": "Bozzard tools/gen_pagoda.py"
 },
 "scene": 0,
 "scenes": [
  {
   "nodes": [
    0
   ]
  }
 ],
 "nodes": [
  {
   "name": "tree-maple-0p9-gold-ffd76a",
   "mesh": 0
  }
 ],
 "meshes": [
  {
   "name": "tree-maple-0p9-gold-ffd76a",
   "primitives": [
    {
     "attributes": {
      "POSITION": 0,
      "NORMAL": 1
     },
     "indices": 2,
     "material": 0
    }
   ]
  }
 ],
 "materials": [
  {
   "name": "c-ffd76a",
   "pbrMetallicRoughness": {
    "baseColorFactor": [
     1.0,
     0.679542,
     0.144128,
     1.0
    ],
    "metallicFactor": 0.0,
    "roughnessFactor": 1.0
   },
   "emissiveFactor": [
    1.0,
    0.679542,
    0.144128
   ],
   "extensions": {
    "KHR_materials_emissive_strength": {
     "emissiveStrength": 0.85
    }
   }
  }
 ],
 "buffers": [
  {
   "uri": "data:application/octet-stream;base64,",
   "byteLength": 8316
  }
 ],
 "bufferViews": [
  {
   "buffer": 0,
   "byteOffset": 0,
   "byteLength": 3696,
   "target": 34962
  },
  {
   "buffer": 0,
   "byteOffset": 3696,
   "byteLength": 3696,
   "target": 34962
  },
  {
   "buffer": 0,
   "byteOffset": 7392,
   "byteLength": 924,
   "target": 34963
  }
 ],
 "accessors": [
  {
   "bufferView": 0,
   "componentType": 5126,
   "count": 308,
   "type": "VEC3",
   "min": [
    -4.5,
    5.0,
    -3.5
   ],
   "max": [
    3.5,
    12.0,
    3.5
   ]
  },
  {
   "bufferView": 1,
   "componentType": 5126,
   "count": 308,
   "type": "VEC3"
  },
  {
   "bufferView": 2,
   "componentType": 5123,
   "count": 462,
   "type": "SCALAR"
  }
 ],
 "extensionsUsed": [
  "KHR_materials_emissive_strength"
 ]
}
