{
 "asset": {
  "version": "2.0",
  "generator": "Bozzard tools/gen_pagoda.py"
 },
 "scene": 0,
 "scenes": [
  {
   "nodes": [
    0
   ]
  }
 ],
 "nodes": [
  {
   "name": "tree-willow-1-7cc36a",
   "mesh": 0
  }
 ],
 "meshes": [
  {
   "name": "tree-willow-1-7cc36a",
   "primitives": [
    {
     "attributes": {
      "POSITION": 0,
      "NORMAL": 1
     },
     "indices": 2,
     "material": 0
    }
   ]
  }
 ],
 "materials": [
  {
   "name": "c-7cc36a",
   "pbrMetallicRoughness": {
    "baseColorFactor": [
     0.201556,
     0.545724,
     0.144128,
     1.0
    ],
    "metallicFactor": 0.0,
    "roughnessFactor": 1.0
   }
  }
 ],
 "buffers": [
  {
   "uri": "data:application/octet-stream;base64,",
   "byteLength": 21060
  }
 ],
 "bufferViews": [
  {
   "buffer": 0,
   "byteOffset": 0,
   "byteLength": 9360,
   "target": 34962
  },
  {
   "buffer": 0,
   "byteOffset": 9360,
   "byteLength": 9360,
   "target": 34962
  },
  {
   "buffer": 0,
   "byteOffset": 18720,
   "byteLength": 2340,
   "target": 34963
  }
 ],
 "accessors": [
  {
   "bufferView": 0,
   "componentType": 5126,
   "count": 780,
   "type": "VEC3",
   "min": [
    -4.5,
    6.0,
    -4.5
   ],
   "max": [
    4.5,
    15.0,
    4.5
   ]
  },
  {
   "bufferView": 1,
   "componentType": 5126,
   "count": 780,
   "type": "VEC3"
  },
  {
   "bufferView": 2,
   "componentType": 5123,
   "count": 1170,
   "type": "SCALAR"
  }
 ]
}
