{
 "asset": {
  "version": "2.0",
  "generator": "Bozzard tools/gen_pagoda.py"
 },
 "scene": 0,
 "scenes": [
  {
   "nodes": [
    0
   ]
  }
 ],
 "nodes": [
  {
   "name": "tree-maple-1p2-maple-c4501f",
   "mesh": 0
  }
 ],
 "meshes": [
  {
   "name": "tree-maple-1p2-maple-c4501f",
   "primitives": [
    {
     "attributes": {
      "POSITION": 0,
      "NORMAL": 1
     },
     "indices": 2,
     "material": 0
    }
   ]
  }
 ],
 "materials": [
  {
   "name": "c-c4501f",
   "pbrMetallicRoughness": {
    "baseColorFactor": [
     0.552011,
     0.08022,
     0.013702,
     1.0
    ],
    "metallicFactor": 0.0,
    "roughnessFactor": 1.0
   }
  }
 ],
 "buffers": [
  {
   "uri": "data:application/octet-stream;base64,",
   "byteLength": 36504
  }
 ],
 "bufferViews": [
  {
   "buffer": 0,
   "byteOffset": 0,
   "byteLength": 16224,
   "target": 34962
  },
  {
   "buffer": 0,
   "byteOffset": 16224,
   "byteLength": 16224,
   "target": 34962
  },
  {
   "buffer": 0,
   "byteOffset": 32448,
   "byteLength": 4056,
   "target": 34963
  }
 ],
 "accessors": [
  {
   "bufferView": 0,
   "componentType": 5126,
   "count": 1352,
   "type": "VEC3",
   "min": [
    -6.5,
    7.0,
    -6.5
   ],
   "max": [
    6.5,
    16.0,
    6.5
   ]
  },
  {
   "bufferView": 1,
   "componentType": 5126,
   "count": 1352,
   "type": "VEC3"
  },
  {
   "bufferView": 2,
   "componentType": 5123,
   "count": 2028,
   "type": "SCALAR"
  }
 ]
}
