{
 "asset": {
  "version": "2.0",
  "generator": "Bozzard tools/gen_pagoda.py"
 },
 "scene": 0,
 "scenes": [
  {
   "nodes": [
    0
   ]
  }
 ],
 "nodes": [
  {
   "name": "tree-cherry-1p3-white-f9c6d6",
   "mesh": 0
  }
 ],
 "meshes": [
  {
   "name": "tree-cherry-1p3-white-f9c6d6",
   "primitives": [
    {
     "attributes": {
      "POSITION": 0,
      "NORMAL": 1
     },
     "indices": 2,
     "material": 0
    }
   ]
  }
 ],
 "materials": [
  {
   "name": "c-f9c6d6",
   "pbrMetallicRoughness": {
    "baseColorFactor": [
     0.947307,
     0.564712,
     0.672443,
     1.0
    ],
    "metallicFactor": 0.0,
    "roughnessFactor": 1.0
   }
  }
 ],
 "buffers": [
  {
   "uri": "data:application/octet-stream;base64,",
   "byteLength": 7560
  }
 ],
 "bufferViews": [
  {
   "buffer": 0,
   "byteOffset": 0,
   "byteLength": 3360,
   "target": 34962
  },
  {
   "buffer": 0,
   "byteOffset": 3360,
   "byteLength": 3360,
   "target": 34962
  },
  {
   "buffer": 0,
   "byteOffset": 6720,
   "byteLength": 840,
   "target": 34963
  }
 ],
 "accessors": [
  {
   "bufferView": 0,
   "componentType": 5126,
   "count": 280,
   "type": "VEC3",
   "min": [
    -6.5,
    12.0,
    -7.5
   ],
   "max": [
    6.5,
    23.0,
    6.5
   ]
  },
  {
   "bufferView": 1,
   "componentType": 5126,
   "count": 280,
   "type": "VEC3"
  },
  {
   "bufferView": 2,
   "componentType": 5123,
   "count": 420,
   "type": "SCALAR"
  }
 ]
}
