{
 "asset": {
  "version": "2.0",
  "generator": "Bozzard tools/gen_pagoda.py"
 },
 "scene": 0,
 "scenes": [
  {
   "nodes": [
    0
   ]
  }
 ],
 "nodes": [
  {
   "name": "tree-pine-0p9-4a9a4e",
   "mesh": 0
  }
 ],
 "meshes": [
  {
   "name": "tree-pine-0p9-4a9a4e",
   "primitives": [
    {
     "attributes": {
      "POSITION": 0,
      "NORMAL": 1
     },
     "indices": 2,
     "material": 0
    }
   ]
  }
 ],
 "materials": [
  {
   "name": "c-4a9a4e",
   "pbrMetallicRoughness": {
    "baseColorFactor": [
     0.068478,
     0.323143,
     0.076185,
     1.0
    ],
    "metallicFactor": 0.0,
    "roughnessFactor": 1.0
   }
  }
 ],
 "buffers": [
  {
   "uri": "data:application/octet-stream;base64,",
   "byteLength": 2484
  }
 ],
 "bufferViews": [
  {
   "buffer": 0,
   "byteOffset": 0,
   "byteLength": 1104,
   "target": 34962
  },
  {
   "buffer": 0,
   "byteOffset": 1104,
   "byteLength": 1104,
   "target": 34962
  },
  {
   "buffer": 0,
   "byteOffset": 2208,
   "byteLength": 276,
   "target": 34963
  }
 ],
 "accessors": [
  {
   "bufferView": 0,
   "componentType": 5126,
   "count": 92,
   "type": "VEC3",
   "min": [
    -2.5,
    5.0,
    -2.5
   ],
   "max": [
    1.5,
    6.0,
    3.5
   ]
  },
  {
   "bufferView": 1,
   "componentType": 5126,
   "count": 92,
   "type": "VEC3"
  },
  {
   "bufferView": 2,
   "componentType": 5123,
   "count": 138,
   "type": "SCALAR"
  }
 ]
}
