{
 "asset": {
  "version": "2.0",
  "generator": "Bozzard tools/gen_pagoda.py"
 },
 "scene": 0,
 "scenes": [
  {
   "nodes": [
    0
   ]
  }
 ],
 "nodes": [
  {
   "name": "tree-cherry-1p3-white-fff6f8",
   "mesh": 0
  }
 ],
 "meshes": [
  {
   "name": "tree-cherry-1p3-white-fff6f8",
   "primitives": [
    {
     "attributes": {
      "POSITION": 0,
      "NORMAL": 1
     },
     "indices": 2,
     "material": 0
    }
   ]
  }
 ],
 "materials": [
  {
   "name": "c-fff6f8",
   "pbrMetallicRoughness": {
    "baseColorFactor": [
     1.0,
     0.921582,
     0.938686,
     1.0
    ],
    "metallicFactor": 0.0,
    "roughnessFactor": 1.0
   }
  }
 ],
 "buffers": [
  {
   "uri": "data:application/octet-stream;base64,",
   "byteLength": 37800
  }
 ],
 "bufferViews": [
  {
   "buffer": 0,
   "byteOffset": 0,
   "byteLength": 16800,
   "target": 34962
  },
  {
   "buffer": 0,
   "byteOffset": 16800,
   "byteLength": 16800,
   "target": 34962
  },
  {
   "buffer": 0,
   "byteOffset": 33600,
   "byteLength": 4200,
   "target": 34963
  }
 ],
 "accessors": [
  {
   "bufferView": 0,
   "componentType": 5126,
   "count": 1400,
   "type": "VEC3",
   "min": [
    -7.5,
    11.0,
    -7.5
   ],
   "max": [
    7.5,
    22.0,
    7.5
   ]
  },
  {
   "bufferView": 1,
   "componentType": 5126,
   "count": 1400,
   "type": "VEC3"
  },
  {
   "bufferView": 2,
   "componentType": 5123,
   "count": 2100,
   "type": "SCALAR"
  }
 ]
}
