{
 "asset": {
  "version": "2.0",
  "generator": "Bozzard tools/gen_pagoda.py"
 },
 "scene": 0,
 "scenes": [
  {
   "nodes": [
    0
   ]
  }
 ],
 "nodes": [
  {
   "name": "tree-willow-1-8fd07a",
   "mesh": 0
  }
 ],
 "meshes": [
  {
   "name": "tree-willow-1-8fd07a",
   "primitives": [
    {
     "attributes": {
      "POSITION": 0,
      "NORMAL": 1
     },
     "indices": 2,
     "material": 0
    }
   ]
  }
 ],
 "materials": [
  {
   "name": "c-8fd07a",
   "pbrMetallicRoughness": {
    "baseColorFactor": [
     0.274677,
     0.630757,
     0.194618,
     1.0
    ],
    "metallicFactor": 0.0,
    "roughnessFactor": 1.0
   }
  }
 ],
 "buffers": [
  {
   "uri": "data:application/octet-stream;base64,",
   "byteLength": 19224
  }
 ],
 "bufferViews": [
  {
   "buffer": 0,
   "byteOffset": 0,
   "byteLength": 8544,
   "target": 34962
  },
  {
   "buffer": 0,
   "byteOffset": 8544,
   "byteLength": 8544,
   "target": 34962
  },
  {
   "buffer": 0,
   "byteOffset": 17088,
   "byteLength": 2136,
   "target": 34963
  }
 ],
 "accessors": [
  {
   "bufferView": 0,
   "componentType": 5126,
   "count": 712,
   "type": "VEC3",
   "min": [
    -4.5,
    7.0,
    -4.5
   ],
   "max": [
    4.5,
    15.0,
    4.5
   ]
  },
  {
   "bufferView": 1,
   "componentType": 5126,
   "count": 712,
   "type": "VEC3"
  },
  {
   "bufferView": 2,
   "componentType": 5123,
   "count": 1068,
   "type": "SCALAR"
  }
 ]
}
