{
 "asset": {
  "version": "2.0",
  "generator": "Bozzard tools/gen_pagoda.py"
 },
 "scene": 0,
 "scenes": [
  {
   "nodes": [
    0
   ]
  }
 ],
 "nodes": [
  {
   "name": "tree-cherry-0p9-white-ffeef3",
   "mesh": 0
  }
 ],
 "meshes": [
  {
   "name": "tree-cherry-0p9-white-ffeef3",
   "primitives": [
    {
     "attributes": {
      "POSITION": 0,
      "NORMAL": 1
     },
     "indices": 2,
     "material": 0
    }
   ]
  }
 ],
 "materials": [
  {
   "name": "c-ffeef3",
   "pbrMetallicRoughness": {
    "baseColorFactor": [
     1.0,
     0.854993,
     0.896269,
     1.0
    ],
    "metallicFactor": 0.0,
    "roughnessFactor": 1.0
   }
  }
 ],
 "buffers": [
  {
   "uri": "data:application/octet-stream;base64,",
   "byteLength": 20196
  }
 ],
 "bufferViews": [
  {
   "buffer": 0,
   "byteOffset": 0,
   "byteLength": 8976,
   "target": 34962
  },
  {
   "buffer": 0,
   "byteOffset": 8976,
   "byteLength": 8976,
   "target": 34962
  },
  {
   "buffer": 0,
   "byteOffset": 17952,
   "byteLength": 2244,
   "target": 34963
  }
 ],
 "accessors": [
  {
   "bufferView": 0,
   "componentType": 5126,
   "count": 748,
   "type": "VEC3",
   "min": [
    -5.5,
    8.0,
    -5.5
   ],
   "max": [
    5.5,
    17.0,
    5.5
   ]
  },
  {
   "bufferView": 1,
   "componentType": 5126,
   "count": 748,
   "type": "VEC3"
  },
  {
   "bufferView": 2,
   "componentType": 5123,
   "count": 1122,
   "type": "SCALAR"
  }
 ]
}
