{
 "asset": {
  "version": "2.0",
  "generator": "Bozzard tools/gen_pagoda.py"
 },
 "scene": 0,
 "scenes": [
  {
   "nodes": [
    0
   ]
  }
 ],
 "nodes": [
  {
   "name": "tree-pine-1p2-4a9a4e",
   "mesh": 0
  }
 ],
 "meshes": [
  {
   "name": "tree-pine-1p2-4a9a4e",
   "primitives": [
    {
     "attributes": {
      "POSITION": 0,
      "NORMAL": 1
     },
     "indices": 2,
     "material": 0
    }
   ]
  }
 ],
 "materials": [
  {
   "name": "c-4a9a4e",
   "pbrMetallicRoughness": {
    "baseColorFactor": [
     0.068478,
     0.323143,
     0.076185,
     1.0
    ],
    "metallicFactor": 0.0,
    "roughnessFactor": 1.0
   }
  }
 ],
 "buffers": [
  {
   "uri": "data:application/octet-stream;base64,",
   "byteLength": 13716
  }
 ],
 "bufferViews": [
  {
   "buffer": 0,
   "byteOffset": 0,
   "byteLength": 6096,
   "target": 34962
  },
  {
   "buffer": 0,
   "byteOffset": 6096,
   "byteLength": 6096,
   "target": 34962
  },
  {
   "buffer": 0,
   "byteOffset": 12192,
   "byteLength": 1524,
   "target": 34963
  }
 ],
 "accessors": [
  {
   "bufferView": 0,
   "componentType": 5126,
   "count": 508,
   "type": "VEC3",
   "min": [
    -7.5,
    6.0,
    -6.5
   ],
   "max": [
    7.5,
    11.0,
    8.5
   ]
  },
  {
   "bufferView": 1,
   "componentType": 5126,
   "count": 508,
   "type": "VEC3"
  },
  {
   "bufferView": 2,
   "componentType": 5123,
   "count": 762,
   "type": "SCALAR"
  }
 ]
}
