{
 "asset": {
  "version": "2.0",
  "generator": "Bozzard tools/gen_pagoda.py"
 },
 "scene": 0,
 "scenes": [
  {
   "nodes": [
    0
   ]
  }
 ],
 "nodes": [
  {
   "name": "tree-maple-0p9-maple-e07f3a",
   "mesh": 0
  }
 ],
 "meshes": [
  {
   "name": "tree-maple-0p9-maple-e07f3a",
   "primitives": [
    {
     "attributes": {
      "POSITION": 0,
      "NORMAL": 1
     },
     "indices": 2,
     "material": 0
    }
   ]
  }
 ],
 "materials": [
  {
   "name": "c-e07f3a",
   "pbrMetallicRoughness": {
    "baseColorFactor": [
     0.745404,
     0.212231,
     0.042311,
     1.0
    ],
    "metallicFactor": 0.0,
    "roughnessFactor": 1.0
   }
  }
 ],
 "buffers": [
  {
   "uri": "data:application/octet-stream;base64,",
   "byteLength": 16092
  }
 ],
 "bufferViews": [
  {
   "buffer": 0,
   "byteOffset": 0,
   "byteLength": 7152,
   "target": 34962
  },
  {
   "buffer": 0,
   "byteOffset": 7152,
   "byteLength": 7152,
   "target": 34962
  },
  {
   "buffer": 0,
   "byteOffset": 14304,
   "byteLength": 1788,
   "target": 34963
  }
 ],
 "accessors": [
  {
   "bufferView": 0,
   "componentType": 5126,
   "count": 596,
   "type": "VEC3",
   "min": [
    -4.5,
    5.0,
    -4.5
   ],
   "max": [
    4.5,
    12.0,
    4.5
   ]
  },
  {
   "bufferView": 1,
   "componentType": 5126,
   "count": 596,
   "type": "VEC3"
  },
  {
   "bufferView": 2,
   "componentType": 5123,
   "count": 894,
   "type": "SCALAR"
  }
 ]
}
