{
 "asset": {
  "version": "2.0",
  "generator": "Bozzard tools/gen_pagoda.py"
 },
 "scene": 0,
 "scenes": [
  {
   "nodes": [
    0
   ]
  }
 ],
 "nodes": [
  {
   "name": "tree-cherry-1p25-pink1-e77fa0",
   "mesh": 0
  }
 ],
 "meshes": [
  {
   "name": "tree-cherry-1p25-pink1-e77fa0",
   "primitives": [
    {
     "attributes": {
      "POSITION": 0,
      "NORMAL": 1
     },
     "indices": 2,
     "material": 0
    }
   ]
  }
 ],
 "materials": [
  {
   "name": "c-e77fa0",
   "pbrMetallicRoughness": {
    "baseColorFactor": [
     0.799103,
     0.212231,
     0.351533,
     1.0
    ],
    "metallicFactor": 0.0,
    "roughnessFactor": 1.0
   }
  }
 ],
 "buffers": [
  {
   "uri": "data:application/octet-stream;base64,",
   "byteLength": 18036
  }
 ],
 "bufferViews": [
  {
   "buffer": 0,
   "byteOffset": 0,
   "byteLength": 8016,
   "target": 34962
  },
  {
   "buffer": 0,
   "byteOffset": 8016,
   "byteLength": 8016,
   "target": 34962
  },
  {
   "buffer": 0,
   "byteOffset": 16032,
   "byteLength": 2004,
   "target": 34963
  }
 ],
 "accessors": [
  {
   "bufferView": 0,
   "componentType": 5126,
   "count": 668,
   "type": "VEC3",
   "min": [
    -8.5,
    9.0,
    -8.5
   ],
   "max": [
    7.5,
    22.0,
    7.5
   ]
  },
  {
   "bufferView": 1,
   "componentType": 5126,
   "count": 668,
   "type": "VEC3"
  },
  {
   "bufferView": 2,
   "componentType": 5123,
   "count": 1002,
   "type": "SCALAR"
  }
 ]
}
