{
 "asset": {
  "version": "2.0",
  "generator": "Bozzard tools/gen_pagoda.py"
 },
 "scene": 0,
 "scenes": [
  {
   "nodes": [
    0
   ]
  }
 ],
 "nodes": [
  {
   "name": "tree-maple-0p9-gold-e0ab35",
   "mesh": 0
  }
 ],
 "meshes": [
  {
   "name": "tree-maple-0p9-gold-e0ab35",
   "primitives": [
    {
     "attributes": {
      "POSITION": 0,
      "NORMAL": 1
     },
     "indices": 2,
     "material": 0
    }
   ]
  }
 ],
 "materials": [
  {
   "name": "c-e0ab35",
   "pbrMetallicRoughness": {
    "baseColorFactor": [
     0.745404,
     0.40724,
     0.035601,
     1.0
    ],
    "metallicFactor": 0.0,
    "roughnessFactor": 1.0
   },
   "emissiveFactor": [
    0.745404,
    0.40724,
    0.035601
   ],
   "extensions": {
    "KHR_materials_emissive_strength": {
     "emissiveStrength": 0.85
    }
   }
  }
 ],
 "buffers": [
  {
   "uri": "data:application/octet-stream;base64,",
   "byteLength": 11664
  }
 ],
 "bufferViews": [
  {
   "buffer": 0,
   "byteOffset": 0,
   "byteLength": 5184,
   "target": 34962
  },
  {
   "buffer": 0,
   "byteOffset": 5184,
   "byteLength": 5184,
   "target": 34962
  },
  {
   "buffer": 0,
   "byteOffset": 10368,
   "byteLength": 1296,
   "target": 34963
  }
 ],
 "accessors": [
  {
   "bufferView": 0,
   "componentType": 5126,
   "count": 432,
   "type": "VEC3",
   "min": [
    -4.5,
    6.0,
    -4.5
   ],
   "max": [
    4.5,
    12.0,
    4.5
   ]
  },
  {
   "bufferView": 1,
   "componentType": 5126,
   "count": 432,
   "type": "VEC3"
  },
  {
   "bufferView": 2,
   "componentType": 5123,
   "count": 648,
   "type": "SCALAR"
  }
 ],
 "extensionsUsed": [
  "KHR_materials_emissive_strength"
 ]
}
