{
 "asset": {
  "version": "2.0",
  "generator": "Bozzard tools/gen_pagoda.py"
 },
 "scene": 0,
 "scenes": [
  {
   "nodes": [
    0
   ]
  }
 ],
 "nodes": [
  {
   "name": "tree-maple-1p2-gold-c4501f",
   "mesh": 0
  }
 ],
 "meshes": [
  {
   "name": "tree-maple-1p2-gold-c4501f",
   "primitives": [
    {
     "attributes": {
      "POSITION": 0,
      "NORMAL": 1
     },
     "indices": 2,
     "material": 0
    }
   ]
  }
 ],
 "materials": [
  {
   "name": "c-c4501f",
   "pbrMetallicRoughness": {
    "baseColorFactor": [
     0.552011,
     0.08022,
     0.013702,
     1.0
    ],
    "metallicFactor": 0.0,
    "roughnessFactor": 1.0
   }
  }
 ],
 "buffers": [
  {
   "uri": "data:application/octet-stream;base64,",
   "byteLength": 4752
  }
 ],
 "bufferViews": [
  {
   "buffer": 0,
   "byteOffset": 0,
   "byteLength": 2112,
   "target": 34962
  },
  {
   "buffer": 0,
   "byteOffset": 2112,
   "byteLength": 2112,
   "target": 34962
  },
  {
   "buffer": 0,
   "byteOffset": 4224,
   "byteLength": 528,
   "target": 34963
  }
 ],
 "accessors": [
  {
   "bufferView": 0,
   "componentType": 5126,
   "count": 176,
   "type": "VEC3",
   "min": [
    -3.5,
    8.0,
    -5.5
   ],
   "max": [
    4.5,
    15.0,
    5.5
   ]
  },
  {
   "bufferView": 1,
   "componentType": 5126,
   "count": 176,
   "type": "VEC3"
  },
  {
   "bufferView": 2,
   "componentType": 5123,
   "count": 264,
   "type": "SCALAR"
  }
 ]
}
