{
 "asset": {
  "version": "2.0",
  "generator": "Bozzard tools/gen_pagoda.py"
 },
 "scene": 0,
 "scenes": [
  {
   "nodes": [
    0
   ]
  }
 ],
 "nodes": [
  {
   "name": "tree-willow-1-8a6a44",
   "mesh": 0
  }
 ],
 "meshes": [
  {
   "name": "tree-willow-1-8a6a44",
   "primitives": [
    {
     "attributes": {
      "POSITION": 0,
      "NORMAL": 1
     },
     "indices": 2,
     "material": 0
    }
   ]
  }
 ],
 "materials": [
  {
   "name": "c-8a6a44",
   "pbrMetallicRoughness": {
    "baseColorFactor": [
     0.254152,
     0.144128,
     0.057805,
     1.0
    ],
    "metallicFactor": 0.0,
    "roughnessFactor": 1.0
   }
  }
 ],
 "buffers": [
  {
   "uri": "data:application/octet-stream;base64,",
   "byteLength": 2700
  }
 ],
 "bufferViews": [
  {
   "buffer": 0,
   "byteOffset": 0,
   "byteLength": 1200,
   "target": 34962
  },
  {
   "buffer": 0,
   "byteOffset": 1200,
   "byteLength": 1200,
   "target": 34962
  },
  {
   "buffer": 0,
   "byteOffset": 2400,
   "byteLength": 300,
   "target": 34963
  }
 ],
 "accessors": [
  {
   "bufferView": 0,
   "componentType": 5126,
   "count": 100,
   "type": "VEC3",
   "min": [
    -0.5,
    1.0,
    -0.5
   ],
   "max": [
    0.5,
    8.0,
    0.5
   ]
  },
  {
   "bufferView": 1,
   "componentType": 5126,
   "count": 100,
   "type": "VEC3"
  },
  {
   "bufferView": 2,
   "componentType": 5123,
   "count": 150,
   "type": "SCALAR"
  }
 ]
}
