{
  "asset": {
    "version": "2.0",
    "generator": "Bozzard authored middleware reference"
  },
  "buffers": [
    {
      "byteLength": 584,
      "uri": "data:application/octet-stream;base64,"
    }
  ],
  "bufferViews": [
    {
      "buffer": 0,
      "byteOffset": 0,
      "byteLength": 72
    },
    {
      "buffer": 0,
      "byteOffset": 72,
      "byteLength": 72
    },
    {
      "buffer": 0,
      "byteOffset": 144,
      "byteLength": 48
    },
    {
      "buffer": 0,
      "byteOffset": 192,
      "byteLength": 48
    },
    {
      "buffer": 0,
      "byteOffset": 240,
      "byteLength": 96
    },
    {
      "buffer": 0,
      "byteOffset": 336,
      "byteLength": 24
    },
    {
      "buffer": 0,
      "byteOffset": 360,
      "byteLength": 128
    },
    {
      "buffer": 0,
      "byteOffset": 488,
      "byteLength": 12
    },
    {
      "buffer": 0,
      "byteOffset": 500,
      "byteLength": 48
    },
    {
      "buffer": 0,
      "byteOffset": 548,
      "byteLength": 36
    }
  ],
  "accessors": [
    {
      "bufferView": 0,
      "componentType": 5126,
      "count": 6,
      "type": "VEC3",
      "min": [
        -0.5,
        0,
        0
      ],
      "max": [
        0.5,
        2,
        0
      ]
    },
    {
      "bufferView": 1,
      "componentType": 5126,
      "count": 6,
      "type": "VEC3"
    },
    {
      "bufferView": 2,
      "componentType": 5126,
      "count": 6,
      "type": "VEC2"
    },
    {
      "bufferView": 3,
      "componentType": 5123,
      "count": 6,
      "type": "VEC4"
    },
    {
      "bufferView": 4,
      "componentType": 5126,
      "count": 6,
      "type": "VEC4"
    },
    {
      "bufferView": 5,
      "componentType": 5123,
      "count": 12,
      "type": "SCALAR"
    },
    {
      "bufferView": 6,
      "componentType": 5126,
      "count": 2,
      "type": "MAT4"
    },
    {
      "bufferView": 7,
      "componentType": 5126,
      "count": 3,
      "type": "SCALAR",
      "min": [
        0
      ],
      "max": [
        2
      ]
    },
    {
      "bufferView": 8,
      "componentType": 5126,
      "count": 3,
      "type": "VEC4"
    },
    {
      "bufferView": 9,
      "componentType": 5126,
      "count": 3,
      "type": "VEC3"
    }
  ],
  "materials": [
    {
      "name": "Banner",
      "pbrMetallicRoughness": {
        "baseColorFactor": [
          0.1,
          0.6,
          0.9,
          1
        ],
        "metallicFactor": 0,
        "roughnessFactor": 0.7
      },
      "doubleSided": true
    }
  ],
  "meshes": [
    {
      "name": "Banner",
      "primitives": [
        {
          "attributes": {
            "POSITION": 0,
            "NORMAL": 1,
            "TEXCOORD_0": 2,
            "JOINTS_0": 3,
            "WEIGHTS_0": 4
          },
          "indices": 5,
          "material": 0
        }
      ]
    }
  ],
  "nodes": [
    {
      "name": "Banner",
      "mesh": 0,
      "skin": 0
    },
    {
      "name": "Root",
      "children": [
        2
      ]
    },
    {
      "name": "Tip",
      "translation": [
        0,
        1,
        0
      ]
    }
  ],
  "skins": [
    {
      "joints": [
        1,
        2
      ],
      "inverseBindMatrices": 6,
      "skeleton": 1
    }
  ],
  "animations": [
    {
      "name": "Bend",
      "samplers": [
        {
          "input": 7,
          "output": 8,
          "interpolation": "LINEAR"
        }
      ],
      "channels": [
        {
          "sampler": 0,
          "target": {
            "node": 2,
            "path": "rotation"
          }
        }
      ]
    },
    {
      "name": "Walk",
      "samplers": [
        {
          "input": 7,
          "output": 9,
          "interpolation": "LINEAR"
        }
      ],
      "channels": [
        {
          "sampler": 0,
          "target": {
            "node": 1,
            "path": "translation"
          }
        }
      ]
    }
  ],
  "scenes": [
    {
      "nodes": [
        0,
        1
      ]
    }
  ],
  "scene": 0
}
