{
  "asset": {
    "version": "2.0",
    "generator": "Bozzard original CC0 fixture"
  },
  "scene": 0,
  "scenes": [
    {
      "nodes": [
        0
      ]
    }
  ],
  "nodes": [
    {
      "name": "Courier",
      "children": [
        1,
        2,
        3,
        4,
        5,
        6,
        7,
        8,
        9,
        10
      ]
    },
    {
      "name": "Body",
      "mesh": 0,
      "translation": [
        0,
        0.8,
        0
      ],
      "scale": [
        1.1,
        1.1,
        0.65
      ]
    },
    {
      "name": "Head",
      "mesh": 0,
      "translation": [
        0,
        1.65,
        0
      ],
      "scale": [
        0.95,
        0.6,
        0.6
      ]
    },
    {
      "name": "Visor",
      "mesh": 1,
      "translation": [
        0,
        1.67,
        0.32
      ],
      "scale": [
        0.8,
        0.3,
        0.08
      ]
    },
    {
      "name": "Eye L",
      "mesh": 2,
      "translation": [
        -0.2,
        1.69,
        0.375
      ],
      "scale": [
        0.12,
        0.1,
        0.05
      ]
    },
    {
      "name": "Eye R",
      "mesh": 2,
      "translation": [
        0.2,
        1.69,
        0.375
      ],
      "scale": [
        0.12,
        0.1,
        0.05
      ]
    },
    {
      "name": "Arm L",
      "mesh": 1,
      "translation": [
        -0.72,
        0.85,
        0
      ],
      "scale": [
        0.23,
        0.8,
        0.3
      ]
    },
    {
      "name": "Arm R",
      "mesh": 1,
      "translation": [
        0.72,
        0.85,
        0
      ],
      "scale": [
        0.23,
        0.8,
        0.3
      ]
    },
    {
      "name": "Foot L",
      "mesh": 1,
      "translation": [
        -0.3,
        0.1,
        0.05
      ],
      "scale": [
        0.35,
        0.25,
        0.6
      ]
    },
    {
      "name": "Foot R",
      "mesh": 1,
      "translation": [
        0.3,
        0.1,
        0.05
      ],
      "scale": [
        0.35,
        0.25,
        0.6
      ]
    },
    {
      "name": "Chest glass",
      "mesh": 3,
      "translation": [
        0,
        0.85,
        0.4
      ],
      "scale": [
        0.65,
        0.48,
        0.06
      ]
    }
  ],
  "meshes": [
    {
      "name": "Painted shell",
      "primitives": [
        {
          "attributes": {
            "POSITION": 0,
            "NORMAL": 1,
            "TEXCOORD_0": 2
          },
          "indices": 3,
          "material": 0
        }
      ]
    },
    {
      "name": "Graphite",
      "primitives": [
        {
          "attributes": {
            "POSITION": 0,
            "NORMAL": 1,
            "TEXCOORD_0": 2
          },
          "indices": 3,
          "material": 1
        }
      ]
    },
    {
      "name": "Ivory lights",
      "primitives": [
        {
          "attributes": {
            "POSITION": 0,
            "NORMAL": 1,
            "TEXCOORD_0": 2
          },
          "indices": 3,
          "material": 2
        }
      ]
    },
    {
      "name": "Glass blue",
      "primitives": [
        {
          "attributes": {
            "POSITION": 0,
            "NORMAL": 1,
            "TEXCOORD_0": 2
          },
          "indices": 3,
          "material": 3
        }
      ]
    }
  ],
  "materials": [
    {
      "name": "Painted shell",
      "pbrMetallicRoughness": {
        "baseColorTexture": {
          "index": 0
        },
        "metallicFactor": 0,
        "roughnessFactor": 0.8
      }
    },
    {
      "name": "Graphite",
      "pbrMetallicRoughness": {
        "baseColorFactor": [
          0.035,
          0.055,
          0.075,
          1
        ],
        "metallicFactor": 0
      }
    },
    {
      "name": "Ivory lights",
      "pbrMetallicRoughness": {
        "baseColorFactor": [
          0.95,
          0.96,
          0.87,
          1
        ],
        "metallicFactor": 0
      }
    },
    {
      "name": "Glass blue",
      "alphaMode": "BLEND",
      "pbrMetallicRoughness": {
        "baseColorFactor": [
          0.15,
          0.65,
          0.95,
          0.5
        ],
        "metallicFactor": 0
      }
    }
  ],
  "textures": [
    {
      "source": 0
    }
  ],
  "images": [
    {
      "uri": "courier-paint.png"
    }
  ],
  "buffers": [
    {
      "uri": "courier.bin",
      "byteLength": 840
    }
  ],
  "bufferViews": [
    {
      "buffer": 0,
      "byteOffset": 0,
      "byteLength": 768,
      "byteStride": 32,
      "target": 34962
    },
    {
      "buffer": 0,
      "byteOffset": 768,
      "byteLength": 72,
      "target": 34963
    }
  ],
  "accessors": [
    {
      "bufferView": 0,
      "byteOffset": 0,
      "componentType": 5126,
      "count": 24,
      "type": "VEC3",
      "min": [
        -0.5,
        -0.5,
        -0.5
      ],
      "max": [
        0.5,
        0.5,
        0.5
      ]
    },
    {
      "bufferView": 0,
      "byteOffset": 12,
      "componentType": 5126,
      "count": 24,
      "type": "VEC3"
    },
    {
      "bufferView": 0,
      "byteOffset": 24,
      "componentType": 5126,
      "count": 24,
      "type": "VEC2"
    },
    {
      "bufferView": 1,
      "componentType": 5123,
      "count": 36,
      "type": "SCALAR"
    }
  ]
}
